{"glyphs":{"0":{"ha":956,"x_min":60,"x_max":896,"o":"m 173 735 q 229 794 173 735 q 478 853 285 853 q 783 735 671 853 q 894 417 894 618 q 783 98 894 215 q 478 -19 671 -19 q 256 33 350 -19 q 111 185 161 86 q 61 417 61 283 q 173 735 61 618 m 585 749 q 478 794 539 794 q 371 749 417 794 q 276 417 276 654 q 331 140 276 242 q 478 39 385 39 q 626 140 571 39 q 681 417 681 242 q 585 749 681 654 z "},"1":{"ha":529,"x_min":57,"x_max":478,"o":"m 164 89 l 164 746 q 125 810 164 788 q 86 819 107 819 l 58 819 l 57 833 l 476 833 l 476 819 l 447 819 q 382 783 404 819 q 371 746 371 765 l 371 89 q 410 24 371 46 q 447 14 426 14 l 476 14 l 476 0 l 58 0 l 58 14 l 88 14 q 141 36 118 14 q 164 89 164 58 z "},"2":{"ha":856,"x_min":61,"x_max":811,"o":"m 383 869 q 645 803 544 869 q 746 622 746 738 q 681 453 746 533 q 594 362 632 393 q 535 315 556 331 q 478 274 515 299 q 426 240 442 250 q 374 207 410 229 q 329 179 338 185 l 617 179 q 719 208 678 179 q 797 301 760 236 l 811 301 l 728 0 l 61 0 l 61 13 q 159 112 96 49 q 265 218 222 175 q 360 322 307 261 q 446 432 414 383 q 524 637 524 549 q 476 770 524 725 q 351 815 428 815 q 197 752 249 815 q 144 579 144 689 l 131 579 l 65 779 q 205 845 117 821 q 383 869 293 869 z "},"3":{"ha":782,"x_min":58,"x_max":711,"o":"m 58 751 q 365 850 167 850 q 590 790 506 850 q 675 624 675 729 q 647 515 675 564 q 576 440 618 467 q 485 411 533 414 q 638 335 572 394 q 711 147 710 268 q 672 -6 711 65 q 421 -193 600 -136 q 261 -217 346 -217 q 65 -183 160 -217 l 68 -169 q 82 -169 75 -169 q 279 -131 186 -169 q 430 -14 372 -92 q 488 163 488 64 q 374 360 488 300 q 219 394 308 394 l 222 408 q 229 408 226 408 q 392 472 324 408 q 461 626 461 536 q 414 751 461 711 q 303 792 367 792 q 131 575 131 792 q 131 554 131 565 l 117 554 l 58 751 z "},"4":{"ha":860,"x_min":8,"x_max":817,"o":"m 657 156 l 657 -51 q 701 -118 658 -96 q 735 -125 717 -125 l 749 -125 l 750 -139 l 357 -139 l 357 -125 l 372 -125 q 425 -104 403 -125 q 449 -53 447 -83 l 449 156 l 10 156 l 10 169 l 644 853 l 657 853 l 657 275 l 718 275 q 772 285 754 275 q 803 319 789 296 l 817 319 l 778 156 l 657 156 m 449 275 l 449 549 l 193 275 l 449 275 z "},"5":{"ha":771,"x_min":35,"x_max":688,"o":"m 350 486 q 554 432 469 486 q 688 182 688 350 q 649 17 688 89 q 556 -99 611 -54 q 210 -214 408 -214 q 36 -182 107 -214 l 39 -168 q 63 -168 43 -168 q 129 -158 82 -168 q 234 -124 176 -149 q 340 -65 292 -100 q 424 25 389 -31 q 463 160 463 88 q 414 282 463 232 q 272 338 361 338 q 86 304 182 338 l 74 311 l 186 783 l 544 813 q 656 882 619 813 l 669 882 l 615 650 l 228 621 l 188 465 q 350 486 275 486 z "},"6":{"ha":874,"x_min":68,"x_max":811,"o":"m 454 519 q 358 481 399 519 l 349 492 q 464 585 388 556 q 549 601 508 601 q 623 594 589 601 q 692 564 657 586 q 811 310 811 486 q 718 76 811 171 q 444 -21 621 -21 q 168 88 267 -21 q 69 410 69 197 q 222 857 69 686 q 408 981 297 940 q 647 1021 519 1021 q 690 1019 668 1021 l 696 1010 q 440 868 524 956 q 325 664 353 778 q 300 385 300 553 q 332 132 300 218 q 449 46 364 46 q 538 82 503 46 q 597 289 597 144 q 482 517 597 501 q 454 519 468 519 z "},"7":{"ha":756,"x_min":22,"x_max":728,"o":"m 142 656 q 77 635 101 656 q 38 572 53 615 l 24 572 l 63 831 l 726 831 l 561 425 q 461 149 524 336 q 371 -139 399 -39 l 190 -139 q 344 161 254 -19 q 474 436 433 342 l 565 656 l 142 656 z "},"8":{"ha":838,"x_min":53,"x_max":785,"o":"m 161 38 q 83 116 111 67 q 54 229 54 165 q 254 469 54 394 q 110 724 110 575 q 194 918 110 844 q 413 992 281 992 q 634 927 546 992 q 722 757 722 863 q 697 663 722 706 q 540 551 651 582 q 665 481 640 500 q 709 443 689 461 q 740 407 729 425 q 763 367 751 389 q 783 264 783 325 q 680 56 783 131 q 418 -19 576 -19 q 161 38 260 -19 m 481 582 q 542 767 542 650 q 507 886 542 842 q 413 932 471 932 q 322 893 354 932 q 289 793 289 854 q 329 688 289 732 q 481 582 371 642 m 412 39 q 452 39 412 39 q 540 81 492 39 q 588 189 588 124 q 540 297 588 254 q 413 380 492 339 q 304 438 333 421 q 238 261 238 367 q 282 99 238 156 q 412 39 332 39 z "},"9":{"ha":874,"x_min":64,"x_max":806,"o":"m 419 308 q 517 349 476 308 l 526 336 q 457 267 501 294 q 321 226 393 226 q 160 282 232 226 q 90 374 117 314 q 64 513 64 435 q 158 756 64 664 q 433 849 256 849 q 708 740 610 849 q 806 414 806 632 q 653 -28 806 143 q 467 -153 578 -112 q 233 -193 357 -193 q 185 -192 210 -193 l 179 -182 q 467 -8 372 -124 q 567 261 547 90 q 575 428 575 332 q 543 697 575 611 q 426 782 511 782 q 338 746 372 782 q 278 540 278 685 q 394 311 278 325 q 419 308 407 308 z "}," ":{"ha":347,"x_min":0,"x_max":0,"o":""},"!":{"ha":374,"x_min":79,"x_max":294,"o":"m 268 526 l 218 286 l 154 286 l 106 526 l 79 975 l 293 975 l 268 526 m 256 15 q 241 1 256 15 q 185 -14 226 -14 q 114 15 143 -14 q 85 86 85 44 q 114 158 85 128 q 185 188 143 188 q 256 158 226 188 q 286 86 286 128 q 256 15 286 44 z "},"\"":{"ha":503,"x_min":51,"x_max":453,"o":"m 53 701 q 92 874 92 819 q 86 972 92 929 l 235 992 q 235 970 235 986 q 228 917 235 954 q 206 835 222 881 q 153 751 189 790 q 72 694 118 711 l 53 701 m 269 701 q 308 874 308 819 q 303 972 308 929 l 451 992 q 453 970 453 986 q 446 917 453 954 q 422 835 439 881 q 371 751 406 790 q 289 694 336 711 l 269 701 z "},"#":{"ha":797,"x_min":28,"x_max":743,"o":"m 742 624 l 581 624 l 536 368 l 681 368 l 681 301 l 525 301 l 471 0 l 401 0 l 454 301 l 247 301 l 193 0 l 124 0 l 176 301 l 28 301 l 28 368 l 189 368 l 233 624 l 89 624 l 89 690 l 246 690 l 294 972 l 365 972 l 315 690 l 524 690 l 572 972 l 643 972 l 593 690 l 742 690 l 742 624 m 467 368 l 511 624 l 303 624 l 258 368 l 467 368 z "},"$":{"ha":774,"x_min":58,"x_max":729,"o":"m 60 129 q 103 300 60 229 l 114 300 q 114 279 114 290 q 172 122 114 190 q 338 42 229 53 l 364 400 l 215 499 q 111 599 142 540 q 81 719 81 658 q 82 749 81 735 q 169 925 92 860 q 365 990 246 990 q 368 990 367 990 l 410 990 l 417 1094 l 475 1093 l 467 988 q 564 978 518 983 l 651 978 l 633 774 l 619 774 q 578 879 619 838 q 463 931 536 921 l 438 607 l 604 499 q 729 288 729 426 q 636 65 729 143 q 389 -19 543 -12 l 381 -142 l 324 -137 l 332 -19 q 174 7 243 -15 q 69 65 104 29 q 60 129 60 92 m 406 932 q 288 890 335 928 q 242 790 242 851 q 339 671 242 728 l 383 642 l 406 932 m 419 364 l 394 40 q 522 89 475 46 q 568 194 568 132 q 457 339 568 278 l 419 364 z "},"%":{"ha":1028,"x_min":40,"x_max":974,"o":"m 476 900 q 497 815 497 857 q 406 567 497 649 q 228 501 333 501 q 75 568 124 501 q 42 692 42 617 q 135 928 42 844 q 314 992 206 992 q 408 975 367 992 q 483 940 450 958 q 554 919 524 919 q 612 926 585 919 q 658 941 639 932 q 706 965 676 950 q 742 985 735 981 l 788 965 l 269 -22 l 218 0 l 704 919 q 582 879 636 879 q 476 900 528 879 m 183 658 q 240 546 183 546 q 313 599 282 546 q 353 722 343 653 q 364 829 364 792 q 306 947 364 947 q 237 894 267 947 q 195 768 207 840 q 183 658 183 696 m 611 408 q 784 471 682 471 q 935 406 886 471 q 972 274 972 354 q 883 46 972 126 q 705 -19 811 -19 q 551 49 599 -19 q 517 171 517 96 q 611 408 517 324 m 654 138 q 710 25 654 25 q 783 78 751 25 q 824 201 814 131 q 833 308 833 271 q 776 426 833 426 q 707 373 738 426 q 665 247 676 319 q 654 138 654 175 z "},"&":{"ha":1219,"x_min":56,"x_max":1653,"o":"m 1651 -147 q 1376 -218 1526 -218 q 954 -65 1151 -218 q 813 47 914 -33 q 538 -15 688 -15 q 338 13 428 -15 q 190 76 247 42 q 94 169 132 111 q 56 300 56 226 q 146 489 56 414 q 257 551 194 529 q 193 738 193 650 q 240 882 193 825 q 524 992 329 992 q 735 947 647 992 q 801 893 779 925 l 754 694 l 742 694 q 664 899 738 835 q 558 933 624 933 q 450 888 493 933 q 407 769 407 843 q 464 624 407 696 q 637 453 521 553 q 925 211 753 354 q 1092 606 1092 382 q 986 911 1092 771 q 797 1085 914 1007 l 806 1093 q 1008 927 929 1022 q 1114 742 1088 832 q 1140 569 1140 653 q 975 169 1140 342 l 1018 133 q 1128 43 1083 78 q 1240 -34 1174 8 q 1365 -97 1307 -76 q 1582 -137 1469 -137 q 1649 -133 1615 -137 l 1651 -147 m 275 347 q 378 121 275 201 q 581 53 465 53 q 757 92 671 53 q 488 311 536 269 q 310 481 374 406 q 275 347 275 424 z "},"'":{"ha":278,"x_min":43,"x_max":228,"o":"m 44 701 q 83 874 83 819 q 78 972 83 929 l 226 992 q 226 970 226 986 q 220 917 226 954 q 197 835 214 881 q 145 751 181 790 q 64 694 110 711 l 44 701 z "},"(":{"ha":588,"x_min":125,"x_max":547,"o":"m 332 467 q 332 361 332 467 q 390 98 332 256 q 544 -126 449 -60 l 536 -139 q 311 -7 406 -99 q 125 467 125 176 q 311 917 125 761 q 539 1017 406 994 l 547 1006 q 388 818 444 957 q 332 467 332 679 z "},")":{"ha":588,"x_min":42,"x_max":464,"o":"m 257 466 q 257 573 257 466 q 200 818 257 679 q 42 1006 143 957 l 50 1017 q 356 833 249 985 q 464 467 464 682 q 276 -7 464 176 q 53 -139 182 -99 l 44 -126 q 194 89 138 -61 q 257 466 257 253 z "},"*":{"ha":539,"x_min":51,"x_max":490,"o":"m 281 840 l 357 800 l 446 711 l 406 658 l 344 638 l 285 747 l 271 833 l 256 747 l 199 636 l 136 658 l 97 710 l 183 800 l 261 840 l 175 828 l 51 849 l 51 914 l 90 968 l 203 913 l 265 851 l 226 931 l 207 1054 l 269 1074 l 333 1054 l 315 931 l 276 851 l 339 913 l 451 969 l 490 915 l 490 850 l 367 828 l 281 840 z "},"+":{"ha":668,"x_min":56,"x_max":614,"o":"m 614 469 l 614 390 l 374 390 l 374 151 l 294 151 l 294 390 l 56 390 l 56 469 l 294 469 l 294 710 l 374 710 l 374 469 l 614 469 z "},",":{"ha":319,"x_min":58,"x_max":268,"o":"m 58 -142 q 122 -57 122 -118 q 92 13 122 -22 q 61 92 61 49 q 87 160 61 135 q 147 186 113 186 q 249 121 221 186 q 268 56 268 82 q 236 -69 268 -21 q 86 -158 178 -158 q 64 -157 75 -158 l 58 -142 z "},"-":{"ha":528,"x_min":43,"x_max":485,"o":"m 44 406 l 56 451 l 472 451 l 483 406 l 472 358 l 56 358 l 44 406 z "},".":{"ha":308,"x_min":53,"x_max":256,"o":"m 226 15 q 211 1 226 15 q 154 -14 196 -14 q 83 15 113 -14 q 54 86 54 44 q 83 158 54 128 q 154 188 113 188 q 226 158 196 188 q 256 86 256 128 q 226 15 256 44 z "},"/":{"ha":592,"x_min":11,"x_max":581,"o":"m 13 15 l 513 999 l 579 967 l 78 -19 l 13 15 z "},":":{"ha":308,"x_min":53,"x_max":256,"o":"m 242 567 q 235 556 242 567 q 205 531 228 544 q 147 518 182 518 q 83 547 113 518 q 54 618 54 576 q 83 689 54 660 q 154 718 113 718 q 226 689 196 718 q 256 625 256 660 q 242 567 256 590 m 226 15 q 211 1 226 15 q 154 -14 196 -14 q 83 15 113 -14 q 54 86 54 44 q 83 158 54 128 q 154 188 113 188 q 226 158 196 188 q 256 86 256 128 q 226 15 256 44 z "},";":{"ha":319,"x_min":53,"x_max":268,"o":"m 226 587 q 211 572 226 587 q 154 557 196 557 q 83 587 113 557 q 54 658 54 617 q 83 728 54 699 q 154 758 113 758 q 226 728 196 758 q 256 658 256 699 q 226 587 256 617 m 58 -142 q 122 -57 122 -118 q 92 13 122 -22 q 61 92 61 49 q 87 160 61 135 q 147 186 113 186 q 249 121 221 186 q 268 56 268 82 q 236 -69 268 -21 q 86 -158 178 -158 q 64 -157 75 -158 l 58 -142 z "},"<":{"ha":685,"x_min":56,"x_max":614,"o":"m 614 729 l 614 643 l 167 431 l 614 217 l 614 131 l 56 393 l 56 467 l 614 729 z "},"=":{"ha":668,"x_min":56,"x_max":614,"o":"m 56 497 l 56 576 l 614 576 l 614 497 l 56 497 m 56 254 l 56 333 l 614 333 l 614 254 l 56 254 z "},">":{"ha":668,"x_min":56,"x_max":614,"o":"m 56 729 l 614 468 l 614 393 l 56 131 l 56 217 l 503 431 l 56 643 l 56 729 z "},"?":{"ha":640,"x_min":10,"x_max":589,"o":"m 278 992 q 508 928 426 992 q 589 750 589 864 q 567 654 589 700 q 518 581 544 608 q 443 506 492 553 q 372 434 394 460 q 340 397 349 408 q 321 365 331 386 q 331 282 303 329 l 319 274 q 211 418 211 322 q 256 531 211 481 q 322 613 299 579 q 367 758 367 676 q 329 887 367 840 q 234 933 292 933 q 142 910 176 933 q 72 719 71 861 l 58 719 l 11 868 q 113 958 43 925 q 278 992 183 992 m 389 86 q 389 65 389 86 q 360 15 389 44 q 289 -14 331 -14 q 217 15 247 -14 q 188 79 188 44 q 201 138 188 114 q 289 188 231 188 q 360 158 331 188 q 389 86 389 128 z "},"@":{"ha":1374,"x_min":49,"x_max":1322,"o":"m 125 160 q 50 361 50 233 q 89 549 50 446 q 394 875 178 761 q 750 964 560 964 q 1214 781 1064 964 q 1321 472 1321 651 q 1240 150 1321 293 q 1024 -78 1158 7 q 685 -174 875 -174 q 282 -87 494 -174 l 276 -74 q 564 -136 429 -136 q 881 -49 742 -136 q 1069 153 997 25 q 1157 500 1157 308 q 1093 749 1157 647 q 769 908 992 908 q 421 771 578 908 q 255 542 319 682 q 190 286 190 403 q 213 192 190 226 q 272 156 236 156 q 337 170 308 156 q 395 217 365 185 q 446 274 425 249 q 497 344 467 300 q 540 404 528 388 l 717 644 q 793 751 782 724 l 803 751 l 896 190 q 951 125 907 125 l 958 125 l 957 115 l 669 115 l 671 125 l 681 125 q 722 142 701 125 q 739 185 742 160 l 728 288 l 524 288 q 396 146 450 189 q 263 101 339 101 q 125 160 186 101 m 700 536 l 554 329 l 724 329 l 700 536 z "},"A":{"ha":979,"x_min":-39,"x_max":1342,"o":"m 1340 -254 q 1033 -279 1189 -331 q 749 -54 868 -226 q 639 158 685 38 l 594 276 l 267 276 l 193 101 q 186 72 186 83 q 191 48 186 61 q 212 24 196 35 q 247 14 228 14 l 258 14 l 258 0 l -39 0 l -39 14 l -26 14 q 37 33 6 14 q 89 89 68 51 l 399 796 q 283 964 344 918 q 185 1003 232 1003 q 99 989 139 1003 l 96 1003 q 288 1054 196 1054 q 492 965 401 1054 q 649 713 581 878 l 850 215 q 1083 -172 964 -67 q 1183 -232 1132 -215 q 1270 -249 1235 -249 q 1339 -240 1306 -249 l 1340 -254 m 290 336 l 574 336 l 476 593 q 457 647 469 613 q 440 694 444 681 l 290 336 z "},"B":{"ha":960,"x_min":-8,"x_max":940,"o":"m 785 733 q 752 617 785 668 q 668 546 719 565 q 903 419 829 538 q 940 272 940 360 q 873 113 940 185 q 701 10 806 40 q 482 -21 597 -21 q 71 132 194 -21 q -8 394 -8 229 q -6 450 -8 422 l 8 451 q 179 110 18 213 l 179 872 q 133 947 178 924 q 90 958 114 958 l 72 958 l 72 972 l 425 972 q 682 910 579 972 q 785 733 785 849 m 426 44 q 628 113 556 44 q 701 292 701 181 q 676 409 701 361 q 608 481 650 457 q 435 526 532 526 l 435 539 q 510 571 479 539 q 563 722 563 626 q 520 864 563 818 q 388 913 478 910 l 388 46 q 426 44 407 44 z "},"C":{"ha":1147,"x_min":32,"x_max":1126,"o":"m 1122 543 q 1126 438 1126 501 q 1101 284 1126 375 q 1011 124 1076 193 q 644 -19 878 -19 q 197 120 361 -19 q 33 485 33 260 q 199 851 33 711 q 638 992 365 992 q 836 971 742 992 q 993 917 931 950 l 996 678 l 985 678 q 906 826 961 767 q 636 933 806 933 q 363 813 467 933 q 260 492 260 692 q 367 168 260 293 q 664 39 475 43 q 989 169 868 39 q 1110 524 1110 300 q 1110 543 1110 533 l 1122 543 z "},"D":{"ha":1197,"x_min":-140,"x_max":1138,"o":"m 286 974 q 372 974 310 974 q 604 972 435 974 q 993 840 850 969 q 1136 485 1136 710 q 993 131 1136 261 q 604 0 850 0 l 100 0 l 100 14 l 118 14 q 178 38 153 14 q 207 97 204 63 l 207 910 q -24 838 51 899 q -83 778 -61 808 q -125 704 -104 747 l -139 710 q 1 910 -106 849 q 286 974 107 972 m 588 58 q 823 174 736 58 q 910 486 910 289 q 823 797 910 683 q 590 911 736 911 q 588 911 589 911 l 415 911 l 415 58 l 588 58 q 588 58 588 58 z "},"E":{"ha":931,"x_min":57,"x_max":931,"o":"m 76 14 q 138 40 113 14 q 165 101 164 65 l 165 875 q 119 947 161 924 q 76 958 99 958 l 58 958 l 58 972 l 449 972 q 556 982 510 972 q 615 997 601 992 l 615 754 l 600 754 l 600 771 q 565 872 601 833 q 465 913 528 910 l 374 913 l 374 508 l 594 508 q 679 544 646 510 q 713 628 713 578 l 713 640 l 725 640 l 725 319 l 713 319 l 713 331 q 679 415 713 382 q 596 450 646 449 l 374 450 l 374 60 l 644 60 q 815 118 746 60 q 917 283 883 176 l 931 283 l 865 0 l 58 0 l 58 14 l 76 14 z "},"F":{"ha":913,"x_min":57,"x_max":906,"o":"m 374 450 l 374 101 q 400 40 374 65 q 463 14 426 14 l 479 14 l 481 0 l 58 0 l 58 14 l 76 14 q 138 40 113 14 q 165 101 164 65 l 165 875 q 137 934 163 910 q 76 958 111 958 l 58 958 l 58 972 l 590 972 q 697 982 651 972 q 757 997 743 992 l 757 763 l 743 763 l 743 776 q 681 894 743 860 q 611 913 651 911 l 374 913 l 374 508 l 774 508 q 858 544 825 510 q 892 628 892 578 l 892 640 l 906 640 l 906 319 l 892 319 l 892 331 q 859 415 892 382 q 776 450 826 449 l 374 450 z "},"G":{"ha":1196,"x_min":40,"x_max":1551,"o":"m 1326 -275 q 1258 -269 1292 -275 q 1029 -167 1124 -249 q 893 35 935 -86 q 611 -19 763 -19 q 201 122 361 -19 q 42 486 42 264 q 115 750 42 635 q 319 928 188 865 q 621 992 451 992 q 836 970 732 992 q 1004 917 940 949 l 1007 678 l 996 678 q 867 869 963 804 q 639 933 772 933 q 372 808 475 933 q 268 484 268 682 q 369 163 268 286 q 631 39 471 39 q 780 76 717 39 q 865 176 843 114 l 865 388 q 847 435 865 418 q 796 451 829 451 l 774 451 l 774 465 l 1164 465 l 1164 451 l 1143 451 q 1090 435 1108 451 q 1074 389 1072 418 l 1074 168 q 1108 -3 1075 76 q 1353 -214 1182 -172 q 1448 -225 1399 -225 q 1549 -214 1497 -225 l 1551 -228 q 1326 -275 1432 -275 z "},"H":{"ha":1196,"x_min":11,"x_max":1182,"o":"m 726 14 q 789 39 763 14 q 817 100 815 64 l 817 454 l 379 454 l 379 97 q 294 -168 379 -69 q 103 -246 228 -246 q 15 -236 63 -246 l 13 -222 q 144 -94 115 -179 q 171 97 171 -22 l 171 872 q 144 933 169 908 q 82 958 118 958 l 64 958 l 64 972 l 486 972 l 486 958 l 468 958 q 393 917 418 958 q 379 872 381 897 l 379 514 l 817 514 l 817 847 q 918 1106 817 1010 q 1121 1185 999 1185 q 1179 1181 1149 1185 l 1182 1167 q 1050 1039 1081 1131 q 1024 847 1025 964 l 1024 101 q 1068 26 1025 51 q 1114 14 1089 14 l 1131 14 l 1131 0 l 710 0 l 710 14 l 726 14 z "},"I":{"ha":633,"x_min":-62,"x_max":581,"o":"m 560 14 l 578 14 l 578 0 l 156 0 l 156 14 l 174 14 q 235 40 210 14 q 263 101 261 65 l 263 915 l 131 910 q 0 813 0 904 q 26 749 0 775 q 97 724 51 724 q 106 724 101 724 l 106 715 q 58 706 78 706 q -37 750 -4 706 q -61 819 -61 781 q -13 920 -61 881 q 135 967 35 960 q 251 972 153 968 q 578 1000 476 981 l 581 986 q 497 946 521 976 q 471 856 472 915 l 471 101 q 498 40 472 65 q 560 14 524 14 z "},"J":{"ha":542,"x_min":-110,"x_max":485,"o":"m 467 958 q 390 915 417 958 q 378 871 378 896 l 378 111 q 282 -181 378 -76 q 76 -275 194 -275 q -110 -224 -15 -275 l -106 -210 q -56 -215 -79 -215 q 46 -186 1 -215 q 169 115 169 -108 l 169 871 q 125 947 168 922 q 81 958 104 958 l 63 958 l 63 972 l 485 972 l 485 958 l 467 958 z "},"K":{"ha":1057,"x_min":57,"x_max":1456,"o":"m 76 14 q 138 40 113 14 q 165 101 164 65 l 165 872 q 119 947 164 922 q 76 958 100 958 l 58 958 l 58 972 l 481 972 l 479 958 l 463 958 q 400 933 426 958 q 374 872 374 908 l 374 101 q 400 40 374 65 q 463 14 426 14 l 479 14 l 481 0 l 58 0 l 58 14 l 76 14 m 1456 -236 q 1271 -289 1354 -289 q 1121 -265 1188 -289 q 783 8 956 -206 l 418 458 l 747 894 q 758 919 758 908 q 754 939 758 931 q 715 960 743 960 l 701 960 l 701 972 l 1019 972 l 1019 960 l 1014 960 q 863 893 921 960 l 592 571 l 969 101 q 1207 -140 1096 -65 q 1454 -222 1318 -215 l 1456 -236 z "},"L":{"ha":593,"x_min":57,"x_max":1429,"o":"m 1186 -193 q 1419 -136 1331 -193 l 1429 -147 q 1132 -331 1310 -312 q 1067 -335 1094 -335 q 1005 -333 1040 -335 q 906 -314 969 -331 q 793 -280 842 -297 q 681 -234 744 -262 q 575 -184 617 -206 q 476 -133 533 -162 q 375 -82 418 -103 q 292 -46 332 -61 q 58 0 178 0 l 58 14 l 76 14 q 138 39 113 14 q 165 101 164 64 l 165 871 q 138 933 164 908 q 76 958 113 958 l 58 958 l 58 972 l 481 972 l 479 958 l 465 958 q 386 915 413 958 q 374 871 374 896 l 374 65 q 392 2 374 19 q 432 -22 410 -15 q 1186 -193 954 -193 z "},"M":{"ha":1344,"x_min":-133,"x_max":1614,"o":"m -133 1064 q 4 1097 -54 1097 q 107 1086 63 1097 q 198 1049 151 1075 q 285 986 244 1024 q 417 819 363 913 l 694 299 l 1097 992 l 1110 992 l 1254 175 q 1369 -125 1288 -14 q 1594 -237 1451 -237 q 1613 -237 1604 -237 l 1613 -251 q 1463 -272 1536 -272 q 1189 -154 1313 -272 q 1026 175 1069 -42 l 958 579 l 697 126 q 643 -28 644 39 l 631 -28 l 285 628 l 217 72 q 244 21 213 40 q 271 13 257 13 l 293 13 l 293 0 l 3 0 l 3 14 l 25 14 q 90 35 61 14 q 125 94 118 57 l 219 757 q 76 954 157 868 q -112 1051 -14 1051 q -131 1050 -122 1051 l -133 1064 z "},"N":{"ha":1201,"x_min":-299,"x_max":1538,"o":"m 1297 -145 q 1308 -152 1297 -145 q 1349 -170 1319 -158 q 1405 -187 1378 -182 q 1465 -192 1432 -192 q 1532 -183 1497 -192 l 1538 -197 q 1381 -235 1460 -235 q 1010 -33 1199 -235 l 351 665 l 351 97 q 376 38 351 63 q 436 14 401 14 l 463 14 l 463 0 l 42 0 l 42 14 l 67 14 q 128 38 103 14 q 153 99 153 63 l 153 878 q 50 987 85 956 q -12 1039 15 1018 q -64 1074 -39 1060 q -158 1113 -122 1107 q -224 1118 -193 1118 q -292 1106 -256 1118 l -297 1119 q -140 1164 -221 1164 q 231 956 35 1164 l 851 296 l 851 874 q 825 934 850 910 q 765 958 800 958 l 740 958 l 740 972 l 1161 972 l 1161 958 l 1135 958 q 1075 934 1100 958 q 1049 875 1050 910 l 1049 85 l 1071 63 q 1097 34 1079 54 q 1128 -1 1114 14 q 1163 -37 1142 -15 q 1203 -76 1185 -60 q 1248 -112 1222 -93 q 1297 -145 1274 -132 z "},"O":{"ha":1292,"x_min":40,"x_max":1251,"o":"m 461 621 q 436 722 436 674 q 449 810 436 769 q 490 891 461 851 q 572 957 519 931 q 746 994 644 994 q 999 926 879 994 q 1217 681 1156 838 q 1251 496 1251 594 q 1084 122 1251 264 q 648 -19 917 -19 q 210 122 379 -19 q 42 494 42 264 q 140 794 42 667 q 404 967 238 921 l 413 954 q 306 779 342 894 q 269 531 269 664 q 374 172 269 306 q 647 39 478 39 q 919 165 815 39 q 1022 497 1022 290 q 984 723 1022 622 q 874 878 946 824 q 713 933 801 933 q 553 882 614 933 q 467 694 467 808 q 476 621 467 658 l 461 621 z "},"P":{"ha":979,"x_min":61,"x_max":931,"o":"m 442 528 q 539 472 465 472 q 672 556 622 472 q 707 700 707 613 q 639 889 707 829 q 508 933 588 933 q 471 931 490 933 l 378 917 l 378 101 q 404 39 378 64 q 467 14 431 14 l 485 14 l 485 0 l 63 0 l 63 14 l 81 14 q 142 39 117 14 q 169 101 168 64 l 169 842 q 148 899 168 878 q 89 919 128 919 q 64 918 79 919 l 61 931 q 309 963 179 940 q 480 992 439 986 q 563 997 521 997 q 665 988 606 997 q 788 948 725 979 q 889 856 850 917 q 929 705 929 789 q 899 557 929 621 q 699 401 840 435 q 633 393 664 393 q 574 399 601 393 q 478 438 517 407 q 429 522 439 468 l 442 528 z "},"Q":{"ha":1285,"x_min":31,"x_max":2181,"o":"m 2056 -281 q 1690 -378 1913 -378 q 1218 -287 1454 -378 q 1014 -203 1149 -261 q 571 -19 658 -47 l 571 -6 l 574 -6 q 576 -6 575 -6 q 867 99 742 -6 q 969 240 929 151 q 1015 469 1015 342 q 925 782 1015 649 q 806 893 878 850 q 626 940 726 940 q 363 822 471 940 q 254 488 254 703 q 314 238 254 339 q 522 118 385 118 q 590 127 551 118 q 669 178 628 136 q 721 286 710 219 l 736 285 q 668 115 735 168 q 514 63 600 63 q 418 69 469 63 q 140 215 247 99 q 32 499 32 332 q 75 697 32 604 q 392 963 165 888 q 631 999 501 999 q 1069 854 901 999 q 1238 490 1238 710 q 1197 289 1238 382 q 1088 133 1156 196 q 763 -25 949 3 q 1078 -85 885 -43 q 1349 -144 1272 -128 q 1847 -210 1654 -210 q 1922 -207 1871 -210 q 2049 -182 1974 -204 q 2172 -117 2125 -160 l 2181 -122 q 2056 -281 2149 -218 z "},"R":{"ha":1015,"x_min":61,"x_max":1508,"o":"m 1507 -236 q 1276 -290 1399 -290 q 1079 -257 1168 -290 q 753 19 888 -186 q 624 211 718 69 q 501 392 529 353 q 424 475 453 468 l 424 489 q 427 489 425 489 q 432 489 429 489 q 438 489 435 489 q 444 489 440 489 q 451 489 449 489 q 582 521 522 489 q 672 706 672 571 q 617 858 672 804 q 483 911 561 911 l 378 911 l 378 101 q 404 40 378 65 q 467 14 431 14 l 485 14 l 485 0 l 63 0 l 63 14 l 81 14 q 142 39 115 14 q 169 100 168 64 l 169 871 q 142 933 168 907 q 81 958 117 958 l 63 958 l 63 972 l 539 972 q 817 890 718 972 q 894 710 894 826 q 819 520 894 593 q 646 447 743 447 q 628 449 638 447 q 723 381 685 418 q 790 310 761 343 q 838 251 818 276 q 892 183 858 225 q 961 94 925 140 q 1041 1 997 49 q 1138 -90 1085 -47 q 1247 -161 1192 -133 q 1507 -222 1365 -221 l 1507 -236 z "},"S":{"ha":865,"x_min":35,"x_max":826,"o":"m 131 394 q 75 213 75 306 q 149 28 75 111 q 251 -46 189 -19 q 386 -72 313 -72 q 518 -44 460 -72 q 635 142 635 13 q 602 244 635 190 q 504 342 569 299 l 268 500 q 131 722 131 586 q 132 750 131 736 q 217 924 140 857 q 424 992 294 992 q 615 978 503 992 l 701 978 l 683 774 l 671 774 q 615 890 669 846 q 472 933 561 933 q 315 868 364 933 q 292 796 292 835 q 315 730 292 757 q 390 671 339 703 l 650 501 q 774 381 729 450 q 826 213 826 299 q 803 95 826 157 q 728 -19 781 33 q 594 -106 676 -72 q 413 -139 513 -139 q 233 -104 314 -139 q 44 114 85 -42 q 36 183 36 147 q 118 404 36 300 l 131 394 z "},"T":{"ha":969,"x_min":-104,"x_max":951,"o":"m -36 649 q -104 789 -104 714 q -67 890 -104 847 q 132 974 4 974 l 786 974 q 893 984 847 975 q 951 999 939 993 l 951 757 l 938 757 l 938 774 q 900 875 938 836 q 799 915 863 914 l 611 915 l 611 100 q 657 25 614 50 q 700 14 676 14 l 718 14 l 718 0 l 296 0 l 296 14 l 314 14 q 376 39 350 14 q 403 99 401 64 l 403 915 l 132 915 q 32 894 75 915 q -56 764 -56 853 q -22 656 -56 711 l -36 649 z "},"U":{"ha":1144,"x_min":51,"x_max":1301,"o":"m 1264 1254 q 1301 1253 1282 1254 l 1301 1239 q 1065 1083 1138 1226 q 1018 847 1018 990 l 1018 351 q 906 78 1015 176 q 592 -19 796 -19 q 268 81 389 -19 q 149 350 147 182 l 149 890 q 127 939 149 919 q 75 958 106 958 l 53 958 l 53 972 l 453 972 l 453 958 l 431 958 q 367 925 388 958 q 357 892 357 910 l 357 361 q 433 128 357 214 q 635 42 510 42 q 636 42 636 42 q 638 42 636 42 q 840 122 761 42 q 919 343 919 203 l 919 847 q 1019 1144 919 1035 q 1264 1254 1118 1254 z "},"V":{"ha":999,"x_min":-39,"x_max":1343,"o":"m 1285 1317 q 1343 1314 1319 1317 l 1343 1300 q 1194 1258 1257 1296 q 1094 1178 1124 1215 q 1047 1119 1064 1142 q 1013 1064 1029 1096 q 964 968 986 1015 l 592 154 q 524 -28 528 17 l 511 -28 l 90 879 q 38 938 69 918 q -28 958 6 958 l -39 958 l -39 972 l 403 972 l 403 958 l 392 958 q 347 940 361 958 q 332 904 332 921 q 338 871 332 888 l 574 297 l 861 968 q 1014 1200 926 1122 q 1285 1317 1143 1317 z "},"W":{"ha":1333,"x_min":-47,"x_max":1668,"o":"m 1499 1297 q 1603 1314 1563 1314 q 1667 1311 1643 1314 l 1667 1297 q 1375 1131 1485 1288 q 1283 943 1318 1050 l 1022 129 q 999 -12 999 53 q 999 -25 999 -19 l 985 -25 l 683 644 l 436 57 q 326 -121 399 -35 q 138 -242 249 -212 q 82 -250 111 -250 q 19 -240 53 -250 l 21 -226 q 120 -199 72 -224 q 204 -138 168 -174 q 274 -56 240 -103 q 365 111 328 21 l 83 878 q 32 938 65 918 q -36 958 -1 958 l -47 958 l -47 972 l 376 972 l 376 958 l 364 958 q 320 940 335 958 q 306 904 306 921 q 311 872 306 888 l 482 390 l 733 994 l 746 993 l 1022 383 l 1182 943 q 1292 1157 1217 1064 q 1499 1297 1379 1267 z "},"X":{"ha":1013,"x_min":-242,"x_max":1190,"o":"m 1031 14 l 1050 14 l 1050 0 l 576 0 l 576 14 l 594 14 q 642 42 624 14 q 650 71 650 57 q 642 99 650 85 l 449 400 l 179 17 q -181 -214 15 -214 q -240 -208 -210 -214 l -240 -194 q -31 -90 -118 -183 q 69 33 11 -46 l 394 483 l 140 876 q 56 947 108 925 q 0 958 28 958 l -19 958 l -19 972 l 453 972 l 453 958 l 435 958 q 388 931 406 958 q 379 901 379 915 q 386 874 379 886 l 557 611 l 799 967 q 1154 1199 957 1199 q 1189 1197 1171 1199 l 1189 1183 q 961 1026 1075 1181 q 928 982 944 1006 q 908 954 913 958 l 613 525 l 890 94 q 952 37 914 60 q 1031 14 990 14 z "},"Y":{"ha":926,"x_min":-93,"x_max":985,"o":"m -93 1053 q -23 1054 -71 1054 q 103 1034 25 1054 q 249 971 182 1014 q 371 867 315 928 q 532 593 474 753 q 749 957 615 831 q 972 1053 850 1053 q 983 1053 978 1053 l 983 1039 q 840 966 914 1038 q 710 793 765 894 q 616 582 654 692 q 571 392 578 472 l 571 101 q 597 40 571 67 q 660 14 622 14 l 678 14 l 678 0 l 256 0 l 256 14 l 274 14 q 335 40 310 14 q 363 101 361 65 l 363 393 q 263 711 346 543 q 47 988 167 906 q -93 1039 -22 1036 l -93 1053 z "},"Z":{"ha":901,"x_min":61,"x_max":1468,"o":"m 1467 -156 q 1347 -260 1413 -221 q 1221 -310 1281 -299 q 1124 -321 1161 -321 q 1038 -318 1086 -321 q 915 -295 990 -315 q 760 -247 840 -275 q 606 -186 679 -219 q 456 -120 532 -153 q 314 -61 379 -87 q 72 0 169 -1 l 63 0 l 63 13 l 572 915 l 236 915 q 134 876 172 914 q 96 774 96 838 l 96 757 l 82 757 l 82 999 q 155 982 103 990 q 228 974 207 974 q 250 974 250 974 l 693 974 q 792 981 751 974 q 839 992 832 988 l 839 979 l 297 11 l 339 1 q 488 -39 388 -12 q 633 -77 589 -65 q 760 -110 676 -89 q 885 -139 844 -131 q 997 -161 926 -147 q 1106 -178 1067 -175 q 1244 -185 1214 -185 q 1303 -182 1274 -185 q 1457 -146 1394 -171 l 1467 -156 z "},"[":{"ha":579,"x_min":167,"x_max":525,"o":"m 167 -125 l 167 1003 l 519 1003 l 519 989 l 375 936 l 375 -58 l 524 -111 l 524 -125 l 167 -125 z "},"\\":{"ha":592,"x_min":11,"x_max":581,"o":"m 13 967 l 79 999 l 579 15 l 514 -19 l 13 967 z "},"]":{"ha":486,"x_min":54,"x_max":414,"o":"m 60 1003 l 413 1003 l 413 -125 l 56 -125 l 56 -111 l 204 -58 l 204 936 l 60 989 l 60 1003 z "},"^":{"ha":767,"x_min":49,"x_max":721,"o":"m 340 524 l 431 524 l 719 244 l 611 244 l 386 457 l 158 244 l 49 244 l 340 524 z "},"_":{"ha":694,"x_min":0,"x_max":694,"o":"m 0 -142 l 0 -83 l 694 -83 l 694 -142 l 0 -142 z "},"`":{"ha":744,"x_min":83,"x_max":379,"o":"m 378 1043 l 368 1033 q 85 1158 229 1067 q 179 1271 111 1238 q 378 1043 319 1144 z "},"a":{"ha":994,"x_min":-40,"x_max":1036,"o":"m 1024 14 l 1036 14 l 1036 0 l 593 0 l 593 14 l 606 14 q 651 33 636 14 q 665 68 665 51 q 658 101 665 85 l 590 272 l 265 272 l 193 101 q 186 67 186 83 q 201 33 186 51 q 247 14 215 14 l 258 14 l 258 0 l -39 0 l -39 14 l -26 14 q 38 33 6 14 q 90 92 69 53 l 411 818 q 481 1000 476 956 l 493 1000 l 906 94 q 958 34 926 54 q 1024 14 990 14 m 289 331 l 567 331 l 432 672 l 289 331 z "},"b":{"ha":935,"x_min":58,"x_max":889,"o":"m 499 0 l 58 0 l 58 14 l 76 14 q 138 39 113 14 q 165 100 164 64 l 165 872 q 138 933 164 908 q 76 958 113 958 l 58 958 l 58 972 l 461 972 q 717 914 622 972 q 814 735 813 856 q 788 628 813 674 q 643 529 742 542 q 819 449 750 519 q 889 271 889 379 q 784 70 889 140 q 499 0 679 0 m 592 717 q 414 913 590 913 l 374 913 l 374 64 l 438 64 q 440 64 439 64 q 593 119 536 64 q 650 288 650 175 q 618 418 650 367 q 421 514 558 514 q 421 514 421 514 l 421 526 q 421 526 421 526 q 542 573 493 526 q 592 717 590 619 z "},"c":{"ha":1083,"x_min":61,"x_max":1017,"o":"m 636 -19 q 502 -18 636 -19 q 215 117 368 -18 q 63 486 63 251 q 214 856 63 721 q 629 992 365 992 q 975 917 831 992 l 978 678 l 967 678 q 643 933 896 933 q 384 815 479 933 q 289 490 289 696 q 380 164 289 285 q 626 39 471 43 q 872 119 788 39 q 992 406 958 203 l 1003 406 l 1017 167 q 636 -19 904 -19 z "},"d":{"ha":1150,"x_min":57,"x_max":1096,"o":"m 563 972 q 951 842 808 972 q 1094 486 1094 711 q 951 131 1094 261 q 563 0 808 0 l 58 0 l 58 14 l 76 14 q 138 40 113 14 q 165 101 164 65 l 165 879 q 136 935 161 913 q 76 958 111 958 l 58 958 l 58 972 l 563 972 m 544 58 q 717 110 644 58 q 829 259 790 163 q 868 486 868 356 q 781 799 868 683 q 544 914 694 914 l 374 914 l 374 58 l 544 58 z "},"e":{"ha":876,"x_min":57,"x_max":842,"o":"m 76 14 q 138 40 113 14 q 165 101 164 65 l 165 875 q 119 947 161 924 q 76 958 99 958 l 58 958 l 58 972 l 590 972 q 685 981 633 972 q 757 997 736 989 l 757 754 l 743 754 l 743 771 q 706 872 743 833 q 607 913 669 910 l 374 913 l 374 508 l 557 508 q 642 544 608 510 q 675 628 675 578 l 675 640 l 689 640 l 689 319 l 675 319 l 675 331 q 619 433 675 400 q 558 450 592 449 l 374 450 l 374 60 l 556 60 q 726 118 657 60 q 828 283 794 176 l 842 283 l 778 0 l 58 0 l 58 14 l 76 14 z "},"f":{"ha":826,"x_min":57,"x_max":757,"o":"m 374 913 l 374 508 l 557 508 q 642 543 608 510 q 675 628 675 576 l 675 640 l 689 640 l 689 319 l 675 319 l 675 331 q 642 415 675 382 q 558 450 610 449 l 374 450 l 374 101 q 418 25 374 50 q 463 14 439 14 l 479 14 l 481 0 l 58 0 l 58 14 l 76 14 q 138 40 113 14 q 165 101 164 65 l 165 875 q 137 934 163 910 q 76 958 111 958 l 58 958 l 58 972 l 590 972 q 703 983 658 972 q 757 997 747 993 l 757 763 l 743 763 l 743 776 q 708 874 743 838 q 611 913 672 911 l 374 913 z "},"g":{"ha":1161,"x_min":61,"x_max":1139,"o":"m 1138 451 l 1117 451 q 1065 435 1083 451 q 1047 389 1047 419 l 1047 160 q 868 35 993 89 q 588 -19 743 -19 q 206 117 350 -19 q 63 487 63 254 q 206 856 63 719 q 596 992 350 992 q 811 970 707 992 q 979 917 915 949 l 982 678 l 969 678 q 846 873 933 813 q 638 933 758 933 q 379 813 469 933 q 289 484 289 693 q 372 157 289 275 q 606 39 454 39 q 789 101 715 39 q 842 176 825 133 l 842 389 q 823 435 842 419 q 769 451 804 451 l 747 451 l 747 465 l 1138 465 l 1138 451 z "},"h":{"ha":1196,"x_min":57,"x_max":1139,"o":"m 735 14 q 790 32 771 14 q 824 100 822 64 l 824 454 l 374 454 l 374 101 q 400 40 374 65 q 463 14 426 14 l 479 14 l 481 0 l 58 0 l 58 14 l 76 14 q 138 40 113 14 q 165 101 164 65 l 165 872 q 138 933 164 908 q 76 958 113 958 l 58 958 l 58 972 l 481 972 l 479 958 l 463 958 q 400 933 426 958 q 374 872 374 908 l 374 514 l 824 514 l 824 872 q 797 933 822 908 q 735 958 771 958 l 717 958 l 717 972 l 1139 972 l 1139 958 l 1121 958 q 1058 933 1085 958 q 1032 871 1032 907 l 1032 101 q 1058 40 1032 65 q 1121 14 1085 14 l 1139 14 l 1139 0 l 717 0 l 717 14 l 735 14 z "},"i":{"ha":536,"x_min":57,"x_max":481,"o":"m 76 14 q 138 40 113 14 q 165 101 164 65 l 165 872 q 138 933 164 908 q 76 958 113 958 l 58 958 l 58 972 l 481 972 l 479 958 l 463 958 q 400 933 426 958 q 374 872 374 908 l 374 101 q 400 40 374 65 q 463 14 426 14 l 479 14 l 481 0 l 58 0 l 58 14 l 76 14 z "},"j":{"ha":533,"x_min":6,"x_max":485,"o":"m 467 958 q 405 933 431 958 q 378 871 379 907 l 378 42 q 325 -135 378 -57 q 196 -246 272 -212 q 43 -279 119 -279 q 7 -278 25 -279 l 7 -265 q 130 -145 90 -231 q 169 46 169 -60 l 169 871 q 125 947 168 922 q 81 958 104 958 l 63 958 l 63 972 l 485 972 l 485 958 l 467 958 z "},"k":{"ha":1050,"x_min":57,"x_max":1079,"o":"m 76 14 q 138 40 113 14 q 165 101 164 65 l 165 872 q 119 947 164 922 q 76 958 100 958 l 58 958 l 58 972 l 481 972 l 479 958 l 463 958 q 386 915 413 958 q 374 872 374 896 l 374 101 q 400 40 374 65 q 463 14 426 14 l 479 14 l 481 0 l 58 0 l 58 14 l 76 14 m 1079 0 l 965 0 q 667 115 754 0 q 418 458 418 453 l 747 894 q 758 919 758 908 q 754 939 758 931 q 715 960 743 960 l 701 960 l 701 972 l 1019 972 l 1019 960 l 1014 960 q 863 893 921 960 l 592 572 l 938 100 q 1079 14 1001 17 l 1079 0 z "},"l":{"ha":856,"x_min":57,"x_max":842,"o":"m 76 14 q 138 40 113 14 q 165 101 164 65 l 165 871 q 138 933 164 907 q 76 958 113 958 l 58 958 l 58 972 l 481 972 l 479 958 l 463 958 q 400 933 426 958 q 374 871 374 907 l 374 60 l 556 60 q 726 118 657 60 q 828 283 794 176 l 842 283 l 778 0 l 58 0 l 58 14 l 76 14 z "},"m":{"ha":1324,"x_min":-12,"x_max":1339,"o":"m 1315 14 l 1338 14 l 1338 0 l 921 0 l 921 13 l 942 13 q 982 31 965 13 q 996 72 999 50 l 942 576 l 681 126 q 628 -28 629 40 l 614 -28 l 257 572 l 203 72 q 217 31 200 50 q 257 13 233 13 l 278 13 l 278 0 l -12 0 l -12 14 l 10 14 q 77 38 49 14 q 111 101 106 61 l 226 992 l 239 992 l 669 283 l 1083 992 l 1096 992 l 1214 101 q 1249 38 1221 61 q 1315 14 1278 14 z "},"n":{"ha":1201,"x_min":40,"x_max":1161,"o":"m 1135 958 q 1075 934 1100 958 q 1049 875 1050 910 l 1049 158 q 1061 1 1049 65 l 1065 -19 l 1053 -19 l 351 649 l 351 97 q 376 38 351 63 q 436 14 401 14 l 463 14 l 463 0 l 42 0 l 42 14 l 67 14 q 128 38 103 14 q 153 99 153 63 l 153 819 q 140 972 153 911 l 138 993 l 150 993 l 851 325 l 851 874 q 825 934 850 910 q 765 958 800 958 l 740 958 l 740 972 l 1161 972 l 1161 958 l 1135 958 z "},"o":{"ha":1221,"x_min":50,"x_max":1172,"o":"m 611 992 q 1019 856 868 992 q 1171 486 1171 719 q 1019 117 1171 253 q 611 -19 868 -19 q 203 117 354 -19 q 51 486 51 253 q 120 755 51 640 q 315 931 189 869 q 611 992 442 992 m 369 159 q 414 99 369 159 q 611 39 458 39 q 853 159 764 39 q 943 486 943 279 q 903 724 943 622 q 788 879 863 825 q 611 933 713 933 q 369 813 458 933 q 279 486 279 693 q 369 159 279 279 z "},"p":{"ha":910,"x_min":61,"x_max":872,"o":"m 846 574 q 671 424 799 465 q 601 411 633 411 q 425 463 503 411 l 425 476 q 593 544 529 474 q 650 704 650 606 q 544 900 650 856 q 471 914 511 914 l 378 914 l 378 101 q 404 40 378 65 q 467 14 431 14 l 485 14 l 485 0 l 63 0 l 63 14 l 81 14 q 142 40 117 14 q 169 101 168 65 l 169 878 q 122 947 164 925 q 81 958 103 958 l 63 958 l 63 972 l 526 972 q 849 813 778 972 q 871 695 871 760 q 846 574 871 631 z "},"q":{"ha":1242,"x_min":60,"x_max":1885,"o":"m 1556 -201 q 1876 -100 1751 -201 l 1885 -106 q 1779 -297 1878 -218 q 1503 -387 1668 -387 q 1147 -294 1339 -387 q 863 -124 1061 -251 q 736 -56 807 -86 q 604 -19 665 -25 q 208 122 354 -14 q 61 486 61 257 q 130 755 61 640 q 325 931 199 869 q 621 992 451 992 q 1029 856 878 992 q 1181 486 1181 719 q 1083 175 1181 301 q 813 4 986 49 q 987 -44 900 -14 q 1237 -137 1074 -74 q 1556 -201 1400 -201 m 378 813 q 334 753 378 813 q 289 486 289 693 q 378 159 289 279 q 621 39 468 39 q 863 159 774 39 q 953 486 953 279 q 913 724 953 622 q 797 879 872 825 q 621 933 722 933 q 378 813 468 933 z "},"r":{"ha":1036,"x_min":61,"x_max":1096,"o":"m 442 911 l 382 911 q 378 911 379 911 l 378 101 q 422 25 379 50 q 467 14 443 14 l 485 14 l 485 0 l 63 0 l 63 14 l 81 14 q 157 57 131 14 q 169 100 168 76 l 169 871 q 142 933 168 907 q 81 958 117 958 l 63 958 l 63 972 l 539 972 q 767 914 674 972 q 842 833 814 885 q 869 715 869 781 q 847 593 869 649 q 770 496 824 538 q 642 446 717 454 q 783 324 722 419 q 1006 38 933 83 q 1096 14 1042 15 l 1096 0 l 960 0 q 763 33 842 0 q 633 144 683 65 q 569 266 608 185 q 518 382 531 347 q 424 475 481 465 l 424 489 l 467 489 q 577 526 529 489 q 642 649 625 564 q 647 694 647 678 q 601 859 647 808 q 483 911 556 910 q 442 911 469 911 z "},"s":{"ha":803,"x_min":68,"x_max":739,"o":"m 69 129 q 113 300 69 229 l 125 300 q 124 278 124 289 q 192 110 124 182 q 381 39 261 39 q 526 83 474 39 q 578 196 578 128 q 467 339 578 278 l 225 499 q 122 599 153 540 q 90 719 90 658 q 173 921 90 850 q 385 992 256 992 q 574 978 461 992 l 661 978 l 643 774 l 629 774 q 576 890 629 846 q 433 933 522 933 q 276 867 325 933 q 251 794 251 835 q 349 671 251 728 l 614 499 q 739 286 739 426 q 638 59 739 138 q 371 -19 538 -19 q 197 3 276 -19 q 79 65 117 26 q 69 129 69 92 z "},"t":{"ha":925,"x_min":18,"x_max":908,"o":"m 568 915 l 568 100 q 595 39 569 64 q 657 14 621 14 l 674 14 l 675 0 l 253 0 l 253 14 l 271 14 q 331 39 306 14 q 360 99 357 64 l 360 915 l 172 915 q 71 875 108 914 q 33 774 33 836 l 33 757 l 19 757 l 19 999 q 90 982 39 990 q 183 974 140 974 l 743 974 q 854 985 811 975 q 907 999 897 994 l 907 757 l 893 757 l 893 774 q 856 875 893 836 q 754 915 818 914 l 568 915 z "},"u":{"ha":1140,"x_min":51,"x_max":1097,"o":"m 1097 958 l 1074 958 q 1023 940 1044 958 q 1001 893 1001 921 l 1001 351 q 894 81 1001 181 q 601 -19 788 -19 q 265 78 382 -19 q 149 350 149 176 l 149 889 q 127 939 149 919 q 75 958 106 958 l 53 958 l 53 972 l 453 972 l 453 958 l 431 958 q 379 940 400 958 q 357 892 358 921 l 357 361 q 429 128 357 214 q 628 42 501 42 q 828 123 754 42 q 903 343 901 204 l 903 892 q 881 940 903 921 q 829 958 860 958 l 807 958 l 807 972 l 1097 972 l 1097 958 z "},"v":{"ha":1010,"x_min":-39,"x_max":1051,"o":"m 1050 958 l 1038 958 q 974 939 1006 958 q 921 881 942 919 l 592 154 q 524 -28 528 17 l 511 -28 l 90 879 q 38 938 69 918 q -28 958 6 958 l -39 958 l -39 972 l 403 972 l 403 958 l 392 958 q 347 940 361 958 q 332 904 332 921 q 338 871 332 888 l 574 297 l 818 871 q 825 905 825 889 q 810 940 825 921 q 765 958 796 958 l 753 958 l 753 972 l 1050 972 l 1050 958 z "},"w":{"ha":1349,"x_min":-47,"x_max":1389,"o":"m 1389 958 l 1376 958 q 1306 938 1342 958 q 1256 878 1271 917 l 1022 129 q 999 -12 999 53 q 999 -25 999 -19 l 985 -25 l 682 646 l 463 129 q 429 -25 431 49 l 415 -25 l 83 878 q 32 938 65 918 q -36 958 -1 958 l -47 958 l -47 972 l 376 972 l 376 958 l 364 958 q 320 940 335 958 q 306 904 306 921 q 311 872 306 888 l 482 389 l 733 994 l 746 993 l 1022 383 l 1161 872 q 1165 904 1165 888 q 1152 940 1165 921 q 1108 958 1139 958 l 1096 958 l 1096 972 l 1389 972 l 1389 958 z "},"x":{"ha":1013,"x_min":-35,"x_max":1051,"o":"m 594 14 q 642 42 624 14 q 650 71 650 57 q 642 99 650 85 l 447 401 l 243 100 q 257 28 219 58 q 292 14 274 14 l 310 14 l 310 0 l -33 0 l -33 14 l -14 14 q 124 92 64 14 l 397 479 l 140 876 q 79 935 117 911 q 0 958 42 958 l -19 958 l -19 972 l 453 972 l 453 958 l 435 958 q 388 931 406 958 q 379 901 379 915 q 386 874 379 886 l 560 606 l 731 872 q 739 901 739 886 q 729 929 739 915 q 682 958 711 958 l 664 958 l 664 972 l 1006 972 l 1006 958 l 986 958 q 908 935 944 958 q 847 878 872 913 l 611 526 l 890 94 q 952 37 914 60 q 1031 14 990 14 l 1050 14 l 1050 0 l 576 0 l 576 14 l 594 14 z "},"y":{"ha":975,"x_min":-44,"x_max":1021,"o":"m 1019 958 l 1000 958 q 921 935 958 958 q 861 878 883 911 l 588 442 l 588 101 q 614 40 588 65 q 676 14 640 14 l 693 14 l 694 0 l 272 0 l 272 14 l 290 14 q 352 39 326 14 q 379 100 378 64 l 379 443 l 114 879 q 55 935 93 913 q -24 958 17 958 l -43 958 l -43 972 l 417 972 l 417 958 l 399 958 q 351 931 368 958 q 343 901 343 915 q 350 872 343 886 l 549 511 l 754 872 q 763 901 763 886 q 753 929 763 915 q 706 958 736 958 l 689 958 l 689 972 l 1019 972 l 1019 958 z "},"z":{"ha":917,"x_min":61,"x_max":881,"o":"m 82 999 q 155 982 103 990 q 228 974 207 974 q 250 974 250 974 l 693 974 q 797 981 761 974 q 839 992 833 989 l 839 979 l 325 58 l 617 58 q 772 118 706 58 q 865 279 838 178 l 879 279 l 829 0 l 63 0 l 63 13 l 572 915 l 236 915 q 134 876 172 914 q 96 774 96 838 l 96 757 l 82 757 l 82 999 z "},"{":{"ha":610,"x_min":0,"x_max":636,"o":"m 156 467 q 0 615 24 467 q 11 619 0 615 q 68 522 24 553 q 117 506 93 506 q 161 515 140 506 q 217 585 200 533 q 224 664 224 608 l 218 797 q 244 955 218 886 q 317 1060 271 1024 q 478 1117 388 1117 q 635 1067 561 1117 q 628 1057 635 1067 q 557 1067 589 1067 q 503 1060 525 1067 q 446 996 469 1050 q 425 822 429 960 q 369 575 421 654 q 218 475 321 500 q 156 467 186 467 m 224 217 q 222 269 224 232 q 196 338 219 306 q 161 365 182 356 q 117 375 140 375 q 68 358 93 375 q 11 261 24 328 l 0 265 q 33 357 10 322 q 90 403 57 392 q 218 406 151 422 q 372 301 322 379 q 425 76 421 224 q 426 33 425 75 q 433 -57 426 -10 q 445 -112 438 -94 q 467 -151 453 -129 q 503 -179 482 -172 q 540 -186 524 -186 q 573 -186 557 -186 q 628 -176 589 -186 l 635 -186 q 474 -236 560 -236 q 415 -228 446 -236 q 243 -72 290 -197 q 218 82 218 -4 l 224 217 z "},"|":{"ha":357,"x_min":139,"x_max":219,"o":"m 139 -250 l 139 972 l 218 972 l 218 -250 l 139 -250 z "},"}":{"ha":610,"x_min":-25,"x_max":613,"o":"m 388 664 q 390 611 388 647 q 417 543 393 575 q 451 515 431 525 q 495 506 472 506 q 544 522 518 506 q 601 619 588 553 l 611 615 q 560 503 600 538 q 522 478 542 488 q 485 467 501 468 q 447 467 468 467 q 393 475 426 467 q 243 575 292 500 q 188 793 194 650 q 186 850 188 803 q 179 943 185 897 q 167 996 174 979 q 144 1033 160 1013 q 108 1060 129 1054 q 71 1067 88 1067 q 38 1067 54 1067 q -17 1057 22 1067 l -24 1067 q 136 1117 50 1117 q 194 1110 164 1117 q 368 954 321 1079 q 394 797 394 886 l 388 664 m 611 265 l 601 261 q 543 358 589 328 q 495 375 518 375 q 450 365 472 375 q 396 296 413 347 q 388 217 388 271 l 394 82 q 369 -73 394 -4 q 297 -178 343 -142 q 135 -236 225 -236 q -24 -186 51 -236 q -17 -176 -24 -186 q 53 -186 22 -186 q 108 -179 85 -186 q 167 -112 142 -169 q 188 71 183 -75 q 242 304 192 224 q 393 406 289 379 q 457 414 426 414 q 611 265 588 414 z "},"~":{"ha":685,"x_min":42,"x_max":646,"o":"m 644 435 q 613 343 644 379 q 481 289 561 289 q 329 356 417 289 q 195 426 238 426 q 135 396 153 426 q 122 350 122 376 q 128 296 122 324 l 49 296 q 43 351 43 325 q 74 449 43 410 q 197 506 121 506 q 350 438 261 506 q 485 368 443 368 q 553 403 528 368 q 567 445 567 421 q 554 499 567 469 l 636 499 q 644 435 644 464 z "},"¡":{"ha":374,"x_min":81,"x_max":294,"o":"m 118 959 q 133 974 118 959 q 189 989 147 989 q 260 959 231 989 q 289 888 289 929 q 260 817 289 846 q 189 788 231 788 q 118 817 147 788 q 89 888 89 846 q 118 959 89 929 m 106 449 l 156 686 l 221 686 l 269 449 l 294 0 l 81 0 l 106 449 z "},"¢":{"ha":815,"x_min":39,"x_max":772,"o":"m 428 108 q 144 221 247 122 q 40 490 40 319 q 159 758 40 660 q 488 857 278 857 l 497 974 l 554 972 l 544 854 q 742 803 663 843 l 742 613 l 732 613 q 540 801 688 781 l 488 160 q 667 220 608 161 q 749 422 726 279 l 757 422 l 772 242 q 663 144 736 181 q 483 107 590 107 l 474 -12 l 418 -8 l 428 108 m 432 164 l 483 804 q 299 719 361 801 q 238 492 238 636 q 288 266 238 349 q 432 164 338 183 z "},"£":{"ha":838,"x_min":53,"x_max":819,"o":"m 206 92 q 271 103 238 103 q 324 100 304 103 q 388 92 344 97 q 502 82 460 82 q 597 94 544 82 q 709 152 650 107 q 804 272 768 197 l 818 272 l 756 33 q 508 -14 651 -14 q 347 10 451 -14 q 214 35 243 35 q 170 33 185 35 q 118 17 156 32 q 71 -8 81 3 l 57 -8 l 57 6 q 142 178 104 67 q 182 449 179 289 l 53 449 l 74 515 l 181 515 q 181 550 181 533 q 524 992 181 968 q 583 993 542 993 q 682 972 624 993 q 772 913 740 951 l 717 743 l 703 743 q 703 753 703 747 q 565 933 703 933 q 463 901 501 933 q 410 815 425 868 q 389 621 389 740 q 393 515 389 597 l 644 515 l 621 449 l 394 449 q 336 192 392 269 q 279 131 308 153 q 206 92 250 110 z "},"¤":{"ha":751,"x_min":69,"x_max":683,"o":"m 569 268 q 375 193 486 193 q 181 265 264 193 l 99 183 l 69 214 l 151 294 q 78 490 78 378 q 153 685 78 601 l 69 768 l 99 797 l 182 714 q 375 785 265 785 q 568 713 485 785 l 653 797 l 683 768 l 597 683 q 669 490 669 600 q 599 297 669 379 l 683 214 l 653 183 l 569 268 m 194 309 q 232 272 194 309 q 374 235 269 235 q 553 309 479 235 q 628 489 628 383 q 553 669 628 594 q 374 743 479 743 q 194 669 269 743 q 119 489 119 594 q 194 309 119 383 z "},"¥":{"ha":975,"x_min":-43,"x_max":1021,"o":"m 1019 958 l 1000 958 q 896 917 944 958 q 861 878 875 900 l 676 585 l 825 585 l 825 526 l 640 526 l 588 442 l 588 426 l 825 426 l 825 368 l 588 368 l 588 101 q 614 40 588 65 q 676 14 640 14 l 693 14 l 694 0 l 272 0 l 272 14 l 290 14 q 352 40 326 14 q 379 101 378 65 l 379 368 l 139 368 l 139 426 l 379 426 l 379 443 l 328 526 l 139 526 l 139 585 l 293 585 l 114 879 q 55 935 93 913 q -24 958 17 958 l -43 958 l -43 972 l 417 972 l 417 958 l 399 958 q 351 931 368 958 q 343 901 343 915 q 350 872 343 886 l 549 511 l 754 872 q 740 944 775 915 q 706 958 725 958 l 689 958 l 689 972 l 1019 972 l 1019 958 z "},"¦":{"ha":357,"x_min":139,"x_max":219,"o":"m 139 486 l 139 972 l 218 972 l 218 486 l 139 486 m 139 -250 l 139 236 l 218 236 l 218 -250 l 139 -250 z "},"§":{"ha":731,"x_min":57,"x_max":676,"o":"m 114 786 q 465 990 239 990 q 585 960 535 990 q 640 879 640 924 q 621 832 640 856 q 577 806 601 806 q 531 821 553 806 q 483 857 510 836 q 432 897 457 878 q 375 919 403 919 q 325 904 347 919 q 296 860 296 882 q 306 814 296 838 q 329 767 315 790 q 378 703 343 743 q 466 605 426 647 q 508 560 506 563 q 626 385 583 478 q 675 175 675 276 q 589 -85 675 21 q 472 -178 542 -142 q 293 -218 393 -218 q 110 -149 169 -218 q 92 -104 92 -128 q 110 -56 92 -81 q 154 -26 129 -26 q 202 -42 179 -26 q 254 -78 225 -57 q 310 -119 283 -100 q 421 -126 371 -164 q 450 -76 450 -104 q 372 64 450 -25 q 235 208 318 126 q 61 517 79 361 q 58 581 58 544 q 114 786 58 696 m 199 810 q 160 672 160 729 q 176 567 160 615 q 327 355 208 469 q 492 162 446 240 q 539 17 539 83 q 535 -26 539 -4 q 572 99 572 43 q 554 207 572 156 q 396 433 518 308 q 236 626 274 557 q 199 792 199 694 q 199 810 199 800 z "},"¨":{"ha":833,"x_min":143,"x_max":636,"o":"m 287 967 q 275 955 287 967 q 228 943 263 943 q 169 967 193 943 q 144 1026 144 992 q 169 1085 144 1061 q 228 1110 193 1110 q 287 1085 263 1110 q 311 1026 311 1061 q 287 967 311 992 m 610 967 q 598 955 610 967 q 551 943 586 943 q 492 967 517 943 q 468 1026 468 992 q 492 1085 468 1061 q 551 1110 517 1110 q 610 1085 586 1110 q 635 1026 635 1061 q 610 967 635 992 z "},"©":{"ha":1178,"x_min":83,"x_max":1094,"o":"m 231 844 q 305 918 231 844 q 589 992 379 992 q 947 844 799 992 q 1094 486 1094 696 q 947 128 1094 276 q 589 -19 799 -19 q 231 128 379 -19 q 83 486 83 276 q 231 844 83 696 m 810 869 q 759 898 810 869 q 589 928 708 928 q 367 869 469 928 q 206 708 265 810 q 147 486 147 606 q 206 265 147 367 q 367 103 265 163 q 589 44 469 44 q 810 103 708 44 q 972 265 913 163 q 1031 486 1031 367 q 972 708 1031 606 q 810 869 913 810 m 850 447 l 858 447 l 875 304 q 758 210 829 243 q 600 176 688 176 q 360 266 456 178 q 265 487 265 354 q 361 708 265 619 q 603 796 457 796 q 729 780 664 796 q 842 736 794 764 l 844 581 l 836 581 q 749 703 807 660 q 606 747 692 747 q 469 676 521 747 q 417 487 417 604 q 469 298 417 369 q 616 226 522 226 q 774 282 710 226 q 850 447 838 338 z "},"ª":{"ha":529,"x_min":-4,"x_max":535,"o":"m 528 531 l 535 531 l 535 524 l 294 524 l 294 531 l 300 531 q 325 542 315 531 q 328 571 335 553 l 300 635 l 149 635 l 121 574 q 122 542 113 554 q 147 531 132 531 l 153 531 l 153 524 l -4 524 l -4 531 l 1 531 q 60 568 38 531 l 218 893 q 254 988 253 971 l 261 988 l 469 571 q 528 531 493 531 m 165 671 l 285 671 l 226 803 l 165 671 z "},"«":{"ha":696,"x_min":56,"x_max":626,"o":"m 222 406 l 361 132 l 349 122 q 56 406 224 285 q 217 531 147 469 q 349 681 286 592 l 360 674 l 222 406 m 486 406 l 625 132 l 613 122 q 319 406 488 285 q 481 531 411 469 q 613 681 550 592 l 624 674 l 486 406 z "},"¬":{"ha":833,"x_min":56,"x_max":781,"o":"m 781 271 l 701 271 l 701 481 l 56 481 l 56 560 l 781 560 l 781 271 z "},"­":{"ha":528,"x_min":43,"x_max":485,"o":"m 44 406 l 56 451 l 472 451 l 483 406 l 472 358 l 56 358 l 44 406 z "},"®":{"ha":340,"x_min":14,"x_max":328,"o":"m 60 928 q 83 951 60 928 q 171 974 106 974 q 282 928 236 974 q 328 817 328 882 q 282 706 328 751 q 171 660 236 660 q 60 706 106 660 q 14 817 14 751 q 60 928 14 882 m 81 727 q 99 709 81 727 q 170 690 117 690 q 260 727 224 690 q 297 817 297 764 q 260 906 297 869 q 170 943 224 943 q 81 906 117 943 q 44 817 44 869 q 81 727 44 764 m 235 858 q 193 813 235 817 q 227 777 206 810 q 263 740 249 744 l 263 738 l 240 738 q 188 764 204 738 q 175 786 181 775 q 154 818 160 818 l 154 821 l 169 821 q 193 856 194 822 q 163 890 192 890 l 147 890 l 147 754 q 163 740 147 740 l 165 740 l 165 738 l 90 738 l 90 740 l 93 740 q 108 754 107 740 l 108 886 q 93 900 107 900 l 90 900 l 90 903 l 147 903 l 175 904 q 218 892 201 904 q 235 858 235 879 z "},"¯":{"ha":833,"x_min":219,"x_max":601,"o":"m 219 976 l 219 1067 l 600 1067 l 600 976 l 219 976 z "},"°":{"ha":339,"x_min":32,"x_max":307,"o":"m 74 883 q 94 902 74 883 q 170 922 114 922 q 267 883 226 922 q 307 786 307 843 q 267 689 307 729 q 170 649 226 649 q 74 689 114 649 q 33 786 33 729 q 74 883 33 843 m 217 833 q 207 842 217 833 q 169 851 197 851 q 123 833 142 851 q 104 786 104 814 q 123 739 104 758 q 169 719 142 719 q 217 739 197 719 q 236 786 236 758 q 217 833 236 814 z "},"±":{"ha":668,"x_min":56,"x_max":614,"o":"m 374 567 l 614 567 l 614 488 l 374 488 l 374 249 l 294 249 l 294 488 l 56 488 l 56 567 l 294 567 l 294 807 l 374 807 l 374 567 m 56 75 l 56 154 l 614 154 l 614 75 l 56 75 z "},"²":{"ha":557,"x_min":46,"x_max":513,"o":"m 246 996 q 408 952 343 996 q 472 835 472 908 q 240 557 472 690 l 394 557 q 456 576 431 557 q 503 639 482 596 l 511 639 l 458 428 l 49 428 l 49 436 q 118 515 69 460 q 192 603 167 571 q 251 682 218 635 q 314 849 314 771 q 286 928 314 900 q 218 956 258 956 q 132 913 161 956 q 103 796 103 869 l 94 796 l 47 933 q 172 989 92 974 q 246 996 208 996 z "},"³":{"ha":483,"x_min":38,"x_max":438,"o":"m 392 929 q 415 856 415 900 q 383 783 415 813 q 308 749 351 753 q 399 703 361 739 q 438 603 438 668 q 400 490 438 539 q 186 400 332 400 q 39 429 110 400 l 40 436 q 51 436 46 436 q 217 482 149 436 q 285 615 285 528 q 241 708 285 678 q 133 739 197 738 l 135 747 q 139 747 138 747 q 231 782 194 747 q 268 865 268 817 q 242 933 268 914 q 183 951 215 951 q 94 889 113 951 q 86 840 86 863 q 86 811 86 817 l 78 811 l 39 939 q 220 990 99 990 q 392 929 342 990 z "},"´":{"ha":744,"x_min":281,"x_max":576,"o":"m 290 1033 l 281 1043 q 481 1271 342 1146 q 575 1158 549 1236 q 290 1033 432 1068 z "},"¶":{"ha":739,"x_min":68,"x_max":726,"o":"m 578 204 q 494 -18 578 58 l 482 -7 q 519 118 517 51 q 519 201 519 139 l 519 914 l 404 914 l 404 0 q 268 -276 404 -214 l 258 -264 q 329 -159 315 -206 q 343 -65 343 -112 q 342 0 343 -18 l 342 463 q 147 532 224 463 q 69 717 69 601 q 148 902 69 832 q 342 972 226 972 l 583 972 q 594 972 585 972 q 606 972 603 972 q 618 973 608 972 q 633 976 628 974 q 647 980 638 978 q 663 987 656 982 q 679 997 671 992 q 717 1032 696 1008 l 726 1024 q 675 948 714 981 q 578 914 636 915 l 578 204 z "},"·":{"ha":303,"x_min":8,"x_max":294,"o":"m 67 517 q 88 532 67 517 q 152 546 108 546 q 236 517 196 546 q 294 446 276 489 q 236 374 276 403 q 152 346 196 346 q 67 374 108 346 q 10 446 26 403 q 67 517 26 489 m 201 486 q 189 494 201 486 q 151 503 176 503 q 103 486 126 503 q 69 446 79 469 q 103 406 79 422 q 151 389 126 389 q 201 406 176 389 q 235 446 225 422 q 201 486 225 469 z "},"¸":{"ha":833,"x_min":314,"x_max":551,"o":"m 393 -67 q 478 -62 438 -51 q 551 -151 551 -82 q 472 -256 551 -219 q 390 -275 429 -275 q 315 -262 350 -275 l 317 -249 q 410 -223 367 -249 q 453 -146 453 -197 q 432 -106 453 -121 q 382 -90 411 -90 q 325 -100 353 -90 l 318 -86 l 385 1 l 451 1 l 393 -67 z "},"¹":{"ha":361,"x_min":46,"x_max":326,"o":"m 256 993 l 264 993 l 264 481 q 277 449 264 463 q 308 436 290 436 l 325 436 l 325 428 l 53 428 l 53 436 l 71 436 q 102 449 89 436 q 115 481 115 463 l 115 878 q 64 932 115 932 l 47 932 l 47 940 q 256 993 190 950 z "},"º":{"ha":561,"x_min":32,"x_max":531,"o":"m 33 753 q 33 807 33 753 q 100 924 33 861 q 281 988 167 988 q 462 924 394 988 q 529 753 529 861 q 462 583 529 646 q 281 519 394 519 q 100 583 167 519 q 33 753 33 646 m 281 553 q 367 606 336 553 q 397 753 397 660 q 367 901 397 847 q 281 956 336 956 q 195 901 225 956 q 165 769 165 847 q 178 647 165 692 q 281 553 206 553 z "},"»":{"ha":696,"x_min":72,"x_max":643,"o":"m 476 406 l 338 674 l 349 681 q 481 531 411 592 q 642 406 550 469 q 349 124 474 285 l 336 132 l 476 406 m 213 406 l 74 674 l 85 681 q 217 531 147 592 q 378 406 286 469 q 85 124 210 285 l 72 132 l 213 406 z "},"¼":{"ha":1038,"x_min":49,"x_max":1000,"o":"m 819 999 l 872 964 l 208 -25 l 156 11 l 819 999 m 50 940 q 258 993 193 950 l 265 993 l 265 481 q 279 449 265 463 q 311 436 293 436 l 328 436 l 328 428 l 56 428 l 56 436 l 74 436 q 105 449 92 436 q 118 481 118 463 l 118 878 q 67 932 118 932 l 50 932 l 50 940 m 947 8 l 957 8 l 957 0 l 696 0 l 696 8 l 706 8 q 747 31 732 8 q 754 53 753 40 l 754 149 l 490 149 l 490 157 l 892 565 l 899 565 l 899 228 l 938 228 q 992 258 975 228 l 1000 258 l 975 149 l 900 149 l 900 54 q 914 22 900 36 q 947 8 928 8 m 754 228 l 754 363 l 621 228 l 754 228 z "},"½":{"ha":1156,"x_min":49,"x_max":1101,"o":"m 800 999 l 853 964 l 189 -25 l 136 11 l 800 999 m 257 993 l 265 993 l 265 481 q 279 449 265 463 q 311 436 293 436 l 328 436 l 328 428 l 56 428 l 56 436 l 72 436 q 105 449 92 436 q 118 481 118 463 l 118 878 q 67 932 118 932 l 50 932 l 50 940 q 257 993 193 950 m 636 507 q 724 552 669 536 q 838 568 778 568 q 950 549 899 568 q 1031 493 1001 531 q 1061 407 1061 456 q 831 129 1061 263 l 983 129 q 1063 164 1031 129 q 1093 213 1078 182 l 1101 213 l 1049 0 l 638 0 l 638 8 q 696 75 658 32 q 758 146 733 118 q 813 214 782 174 q 861 285 843 254 q 904 416 904 360 q 876 500 904 472 q 807 528 849 528 q 721 485 750 528 q 692 368 692 442 l 685 368 l 636 507 z "},"¾":{"ha":1096,"x_min":42,"x_max":1071,"o":"m 901 999 l 954 964 l 290 -25 l 236 11 l 901 999 m 385 942 q 418 868 418 908 q 403 803 418 828 q 313 749 372 754 q 403 703 365 739 q 442 603 442 668 q 404 490 442 539 q 190 400 335 400 q 43 429 114 400 l 44 436 q 56 436 50 436 q 221 482 153 436 q 289 615 289 528 q 265 688 289 658 q 138 739 225 738 l 139 747 q 143 747 140 747 q 235 782 199 747 q 272 865 272 817 q 245 933 272 914 q 188 951 218 951 q 111 918 132 951 q 90 822 90 885 q 90 811 90 817 l 82 811 l 43 939 q 217 990 101 990 q 385 942 332 990 m 1018 8 l 1026 8 l 1026 0 l 767 0 l 767 8 l 775 8 q 808 22 794 8 q 824 53 822 35 l 824 149 l 561 149 l 561 157 l 961 565 l 969 565 l 969 228 l 1007 228 q 1061 258 1044 228 l 1069 258 l 1044 149 l 969 149 l 969 54 q 994 14 969 28 q 1018 8 1004 8 m 824 228 l 824 363 l 690 228 l 824 228 z "},"¿":{"ha":676,"x_min":51,"x_max":631,"o":"m 253 886 q 282 957 253 928 q 345 986 311 986 q 403 972 379 986 q 453 886 454 944 q 424 815 454 844 q 353 785 394 785 q 282 815 311 785 q 253 886 253 844 m 364 -19 q 134 44 215 -19 q 53 222 53 108 q 75 318 53 272 q 124 392 97 364 q 199 466 150 419 q 270 538 247 513 q 302 575 293 564 q 321 607 311 586 q 311 690 339 643 l 321 699 q 431 554 431 650 q 372 424 431 489 q 326 371 349 399 q 275 219 275 307 q 313 85 275 132 q 420 39 350 39 q 530 93 490 39 q 569 253 569 147 l 583 253 l 631 104 q 528 14 599 47 q 364 -19 457 -19 z "},"À":{"ha":979,"x_min":-39,"x_max":1342,"o":"m 504 1093 l 494 1083 q 210 1208 354 1117 q 304 1321 236 1288 q 504 1093 444 1194 m 1340 -254 q 1172 -300 1250 -300 q 1025 -277 1094 -300 q 885 -200 956 -254 q 639 158 732 -83 l 594 276 l 267 276 l 193 101 q 186 72 186 83 q 191 48 186 61 q 212 24 196 35 q 247 14 228 14 l 258 14 l 258 0 l -39 0 l -39 14 l -26 14 q 37 33 6 14 q 89 89 68 51 l 399 796 q 283 964 344 918 q 185 1003 232 1003 q 99 989 139 1003 l 96 1003 q 288 1054 196 1054 q 492 965 401 1054 q 649 713 581 878 l 850 215 q 1083 -172 964 -67 q 1183 -232 1132 -215 q 1270 -249 1235 -249 q 1339 -240 1306 -249 l 1340 -254 m 290 336 l 574 336 l 476 593 q 457 647 469 613 q 440 694 444 681 l 290 336 z "},"Á":{"ha":979,"x_min":-39,"x_max":1342,"o":"m 463 1081 l 453 1090 q 653 1318 513 1193 q 747 1206 721 1283 q 463 1081 604 1115 m 1340 -254 q 1033 -279 1189 -331 q 749 -54 868 -226 q 639 158 685 38 l 594 276 l 267 276 l 193 101 q 186 67 186 83 q 201 33 186 51 q 247 14 217 14 l 258 14 l 258 0 l -39 0 l -39 14 l -26 14 q 37 33 6 14 q 89 89 68 51 l 399 796 q 283 964 344 918 q 185 1003 232 1003 q 99 989 139 1003 l 96 1003 q 288 1054 196 1054 q 492 965 401 1054 q 649 713 581 878 l 850 215 q 1083 -172 964 -67 q 1183 -232 1132 -215 q 1270 -249 1235 -249 q 1339 -240 1306 -249 l 1340 -254 m 290 336 l 574 336 l 476 593 q 456 647 469 611 q 440 694 443 683 l 290 336 z "},"Â":{"ha":979,"x_min":-39,"x_max":1342,"o":"m 468 1293 l 483 1293 l 697 1081 l 688 1069 l 475 1160 l 278 1069 l 268 1081 l 468 1293 m 1340 -254 q 1172 -300 1250 -300 q 1025 -277 1094 -300 q 885 -200 956 -254 q 639 158 732 -83 l 594 276 l 267 276 l 193 101 q 186 72 186 83 q 191 48 186 61 q 212 24 196 35 q 247 14 228 14 l 258 14 l 258 0 l -39 0 l -39 14 l -26 14 q 37 33 6 14 q 89 89 68 51 l 399 796 q 283 964 344 918 q 185 1003 232 1003 q 99 989 139 1003 l 96 1003 q 288 1054 196 1054 q 492 965 401 1054 q 649 713 581 878 l 850 215 q 1083 -172 964 -67 q 1183 -232 1132 -215 q 1270 -249 1235 -249 q 1339 -240 1306 -249 l 1340 -254 m 290 336 l 574 336 l 476 593 q 456 647 469 611 q 440 694 443 683 l 290 336 z "},"Ã":{"ha":979,"x_min":-39,"x_max":1342,"o":"m 710 1257 l 726 1257 q 729 1228 729 1243 q 701 1142 729 1185 q 593 1083 664 1083 q 488 1116 551 1083 q 404 1151 424 1149 q 367 1154 385 1154 q 322 1135 350 1154 q 283 1088 294 1115 l 268 1088 q 267 1108 267 1099 q 299 1216 267 1161 q 401 1271 332 1271 q 506 1236 439 1271 q 628 1201 574 1201 q 674 1218 646 1201 q 710 1257 701 1235 m 1340 -254 q 1172 -300 1250 -300 q 1025 -277 1094 -300 q 885 -200 956 -254 q 639 158 732 -83 l 594 276 l 267 276 l 193 101 q 186 72 186 83 q 191 48 186 61 q 212 24 196 35 q 247 14 228 14 l 258 14 l 258 0 l -39 0 l -39 14 l -26 14 q 37 33 6 14 q 89 89 68 51 l 399 796 q 283 964 344 918 q 185 1003 232 1003 q 99 989 139 1003 l 96 1003 q 288 1054 196 1054 q 492 965 401 1054 q 649 713 581 878 l 850 215 q 978 -43 919 43 q 1097 -182 1047 -147 q 1244 -247 1189 -247 q 1339 -240 1279 -247 l 1340 -254 m 290 336 l 574 336 l 476 593 q 457 647 469 613 q 440 694 444 681 l 290 336 z "},"Ä":{"ha":979,"x_min":-39,"x_max":1342,"o":"m 372 1101 q 359 1089 372 1101 q 313 1076 347 1076 q 253 1101 278 1076 q 229 1160 229 1125 q 253 1219 229 1194 q 313 1243 278 1243 q 372 1219 347 1243 q 396 1160 396 1194 q 372 1101 396 1125 m 695 1101 q 683 1089 695 1101 q 636 1076 671 1076 q 577 1101 601 1076 q 553 1160 553 1125 q 577 1219 553 1194 q 636 1243 601 1243 q 695 1219 671 1243 q 719 1160 719 1194 q 695 1101 719 1125 m 1340 -254 q 1172 -300 1250 -300 q 1025 -277 1094 -300 q 885 -200 956 -254 q 639 158 732 -83 l 594 276 l 267 276 l 193 101 q 186 72 186 83 q 191 48 186 61 q 212 24 196 35 q 247 14 228 14 l 258 14 l 258 0 l -39 0 l -39 14 l -26 14 q 37 33 6 14 q 89 89 68 51 l 399 796 q 283 964 344 918 q 185 1003 232 1003 q 99 989 139 1003 l 96 1003 q 288 1054 196 1054 q 492 965 401 1054 q 649 713 581 878 l 850 215 q 1083 -172 964 -67 q 1183 -232 1132 -215 q 1270 -249 1235 -249 q 1339 -240 1306 -249 l 1340 -254 m 290 336 l 574 336 l 476 593 q 456 647 469 611 q 440 694 443 683 l 290 336 z "},"Å":{"ha":979,"x_min":-39,"x_max":1342,"o":"m 326 1199 q 326 1224 326 1199 q 369 1282 326 1249 q 466 1315 413 1315 q 553 1301 519 1315 q 607 1260 588 1286 q 626 1201 626 1235 q 607 1140 626 1168 q 476 1083 565 1083 q 369 1116 411 1083 q 326 1199 326 1149 m 547 1199 q 547 1217 547 1199 q 527 1258 547 1235 q 476 1281 507 1281 q 426 1258 446 1281 q 407 1199 407 1235 q 426 1140 407 1163 q 476 1118 446 1118 q 527 1140 507 1118 q 547 1199 547 1163 m 1340 -254 q 1172 -300 1250 -300 q 1025 -277 1094 -300 q 885 -200 956 -254 q 639 158 732 -83 l 594 276 l 267 276 l 193 101 q 186 72 186 83 q 191 48 186 61 q 212 24 196 35 q 247 14 228 14 l 258 14 l 258 0 l -39 0 l -39 14 l -26 14 q 37 33 6 14 q 89 89 68 51 l 399 796 q 283 964 344 918 q 185 1003 232 1003 q 99 989 139 1003 l 96 1003 q 288 1054 196 1054 q 492 965 401 1054 q 649 713 581 878 l 850 215 q 1083 -172 964 -67 q 1183 -232 1132 -215 q 1270 -249 1235 -249 q 1339 -240 1306 -249 l 1340 -254 m 290 336 l 574 336 l 476 593 q 457 647 469 613 q 440 694 444 681 l 290 336 z "},"Æ":{"ha":1268,"x_min":-396,"x_max":1268,"o":"m 83 76 q -28 -60 33 -7 q -150 -131 -89 -112 q -272 -149 -211 -149 q -396 -126 -332 -149 l -394 -112 q -383 -112 -389 -112 q -197 -69 -281 -112 q -25 110 -114 -25 l 503 904 q 501 940 511 924 q 469 957 490 957 l 464 957 l 464 972 l 788 972 q 883 981 831 972 q 957 997 936 989 l 957 763 l 943 763 l 943 776 q 879 896 943 860 q 808 913 850 913 l 713 913 l 713 501 l 939 501 q 1039 560 1007 503 q 1053 619 1053 586 l 1053 632 l 1067 632 l 1067 311 l 1053 311 l 1053 324 q 1022 406 1054 372 q 940 442 990 439 l 713 442 l 713 60 l 996 60 q 1155 116 1088 60 q 1253 271 1222 172 l 1267 271 l 1204 0 l 422 0 l 422 14 l 436 14 q 484 33 464 14 q 506 81 504 53 l 506 442 l 303 442 l 83 76 m 506 501 l 506 783 l 338 501 l 506 501 z "},"Ç":{"ha":1147,"x_min":32,"x_max":1126,"o":"m 526 -261 q 639 -218 597 -261 q 663 -164 663 -194 q 642 -118 663 -133 q 592 -103 621 -103 q 535 -112 563 -103 l 528 -99 l 590 -18 q 182 133 331 -4 q 33 491 33 271 q 199 851 33 711 q 638 992 365 992 q 836 971 742 992 q 993 917 931 950 l 996 678 l 985 678 q 906 826 961 767 q 636 933 806 933 q 363 813 467 933 q 260 492 260 692 q 367 168 260 293 q 664 39 475 43 q 989 169 868 39 q 1110 524 1110 300 q 1110 543 1110 533 l 1122 543 q 1126 451 1126 501 q 1113 328 1126 401 q 1060 190 1100 256 q 958 76 1019 124 q 656 -19 839 -17 l 604 -79 q 688 -75 647 -64 q 761 -163 761 -94 q 682 -268 761 -232 q 601 -287 640 -287 q 525 -275 561 -287 l 526 -261 z "},"È":{"ha":931,"x_min":57,"x_max":931,"o":"m 397 1071 l 388 1061 q 103 1186 249 1094 q 197 1299 131 1265 q 397 1071 339 1172 m 76 14 q 138 40 113 14 q 165 101 164 65 l 165 875 q 119 947 161 924 q 76 958 99 958 l 58 958 l 58 972 l 449 972 q 543 981 492 972 q 615 997 594 989 l 615 754 l 600 754 l 600 771 q 565 872 601 833 q 465 913 528 910 l 374 913 l 374 508 l 594 508 q 679 543 646 510 q 713 628 713 576 l 713 640 l 725 640 l 725 319 l 713 319 l 713 331 q 679 415 713 382 q 596 450 646 449 l 374 450 l 374 60 l 644 60 q 815 118 746 60 q 917 283 883 176 l 931 283 l 865 0 l 58 0 l 58 14 l 76 14 z "},"É":{"ha":931,"x_min":57,"x_max":931,"o":"m 357 1058 l 347 1068 q 546 1296 407 1171 q 640 1183 614 1261 q 357 1058 497 1093 m 76 14 q 138 40 113 14 q 165 101 164 65 l 165 875 q 137 934 163 910 q 76 958 111 958 l 58 958 l 58 972 l 449 972 q 556 982 510 972 q 615 997 601 992 l 615 754 l 600 756 l 600 771 q 565 872 601 833 q 465 913 528 910 l 374 913 l 374 508 l 594 508 q 679 544 646 510 q 713 628 713 578 l 713 640 l 725 640 l 725 319 l 713 319 l 713 331 q 679 415 713 382 q 596 450 646 449 l 374 450 l 374 60 l 644 60 q 815 118 746 60 q 917 283 883 176 l 931 283 l 865 0 l 58 0 l 58 14 l 76 14 z "},"Ê":{"ha":931,"x_min":57,"x_max":931,"o":"m 363 1271 l 378 1271 l 590 1058 l 581 1047 l 369 1138 l 171 1047 l 161 1058 l 363 1271 m 76 14 q 138 40 113 14 q 165 101 164 65 l 165 875 q 119 947 161 924 q 76 958 99 958 l 58 958 l 58 972 l 449 972 q 543 981 492 972 q 615 997 594 989 l 615 754 l 600 754 l 600 771 q 565 872 601 833 q 465 913 528 910 l 374 913 l 374 508 l 594 508 q 679 543 646 510 q 713 628 713 576 l 713 640 l 725 640 l 725 319 l 713 319 l 713 331 q 679 415 713 382 q 596 450 646 449 l 374 450 l 374 60 l 644 60 q 815 118 746 60 q 917 283 883 176 l 931 283 l 865 0 l 58 0 l 58 14 l 76 14 z "},"Ë":{"ha":931,"x_min":57,"x_max":931,"o":"m 265 1078 q 252 1066 265 1078 q 206 1054 240 1054 q 147 1078 171 1054 q 122 1138 122 1103 q 147 1197 122 1172 q 206 1221 171 1221 q 265 1197 240 1221 q 289 1138 289 1172 q 265 1078 289 1103 m 589 1078 q 576 1066 589 1078 q 530 1054 564 1054 q 471 1078 496 1054 q 446 1138 446 1103 q 471 1197 446 1172 q 530 1221 496 1221 q 589 1197 564 1221 q 614 1138 614 1172 q 589 1078 614 1103 m 76 14 q 138 40 113 14 q 165 101 164 65 l 165 875 q 119 947 161 924 q 76 958 99 958 l 58 958 l 58 972 l 449 972 q 556 982 510 972 q 615 997 601 992 l 615 754 l 600 754 l 600 771 q 565 872 601 833 q 465 913 528 910 l 374 913 l 374 508 l 594 508 q 679 544 646 510 q 713 628 713 578 l 713 640 l 725 640 l 725 319 l 713 319 l 713 331 q 679 415 713 382 q 596 450 646 449 l 374 450 l 374 60 l 644 60 q 815 118 746 60 q 917 283 883 176 l 931 283 l 865 0 l 58 0 l 58 14 l 76 14 z "},"Ì":{"ha":633,"x_min":-62,"x_max":581,"o":"m 392 1071 l 382 1061 q 99 1186 243 1094 q 192 1299 125 1265 q 392 1071 333 1172 m 560 14 l 578 14 l 578 0 l 156 0 l 156 14 l 174 14 q 235 40 210 14 q 263 101 261 65 l 263 915 l 131 910 q 0 813 0 903 q 26 749 0 774 q 97 724 51 724 q 106 724 101 724 l 106 715 q 58 706 78 706 q -37 750 -4 706 q -61 819 -61 781 q -13 920 -61 881 q 135 967 35 960 q 251 972 153 968 q 578 1000 476 981 l 581 986 q 497 946 521 976 q 471 856 472 915 l 471 101 q 498 40 472 65 q 560 14 524 14 z "},"Í":{"ha":633,"x_min":-62,"x_max":636,"o":"m 351 1058 l 342 1068 q 542 1296 401 1171 q 635 1183 608 1261 q 351 1058 493 1093 m 560 14 l 578 14 l 578 0 l 156 0 l 156 14 l 174 14 q 235 40 210 14 q 263 101 261 65 l 263 915 l 131 910 q 0 813 0 904 q 26 749 0 775 q 97 724 51 724 q 106 724 101 724 l 106 715 q 58 706 78 706 q -37 750 -4 706 q -61 819 -61 781 q -13 920 -61 881 q 135 967 35 960 q 251 972 153 968 q 578 1000 476 981 l 581 986 q 497 946 521 976 q 471 856 472 915 l 471 101 q 515 25 472 50 q 560 14 536 14 z "},"Î":{"ha":633,"x_min":-62,"x_max":586,"o":"m 357 1271 l 372 1271 l 585 1058 l 575 1047 l 364 1138 l 165 1047 l 157 1058 l 357 1271 m 560 14 l 578 14 l 578 0 l 156 0 l 156 14 l 174 14 q 235 40 210 14 q 263 101 261 65 l 263 915 l 131 910 q 0 813 0 903 q 26 749 0 775 q 97 724 51 724 q 106 724 101 724 l 106 715 q 58 706 78 706 q -37 750 -4 706 q -61 819 -61 781 q -13 920 -61 881 q 135 967 35 960 q 251 972 153 968 q 578 1000 476 981 l 581 986 q 497 946 521 976 q 471 856 472 915 l 471 101 q 515 25 472 50 q 560 14 536 14 z "},"Ï":{"ha":633,"x_min":-62,"x_max":608,"o":"m 259 1078 q 247 1066 259 1078 q 200 1054 235 1054 q 141 1078 165 1054 q 117 1138 117 1103 q 141 1197 117 1172 q 200 1221 165 1221 q 259 1197 235 1221 q 283 1138 283 1172 q 259 1078 283 1103 m 584 1078 q 572 1066 584 1078 q 525 1054 560 1054 q 466 1078 490 1054 q 442 1138 442 1103 q 466 1197 442 1172 q 525 1221 490 1221 q 584 1197 560 1221 q 608 1138 608 1172 q 584 1078 608 1103 m 560 14 l 578 14 l 578 0 l 156 0 l 156 14 l 174 14 q 235 40 210 14 q 263 101 261 65 l 263 915 l 131 910 q 0 813 0 904 q 26 749 0 775 q 97 724 51 724 q 106 724 101 724 l 106 715 q 58 706 78 706 q -37 750 -4 706 q -61 819 -61 781 q -13 920 -61 881 q 135 967 35 960 q 251 972 153 968 q 578 1000 476 981 l 581 986 q 497 946 521 976 q 471 856 472 915 l 471 101 q 498 40 472 65 q 560 14 524 14 z "},"Ð":{"ha":1186,"x_min":-150,"x_max":1126,"o":"m 269 974 q 363 974 297 974 q 592 972 429 974 q 982 840 839 969 q 1125 485 1125 710 q 982 131 1125 261 q 592 0 839 0 l 89 0 l 89 14 l 107 14 q 167 38 142 14 q 196 97 193 63 l 196 457 l 89 457 l 89 515 l 196 515 l 196 908 q -104 764 -22 892 q -136 704 -121 738 l -150 710 q -12 910 -118 847 q 269 974 93 972 m 576 58 q 812 174 725 58 q 899 486 899 289 q 812 797 899 683 q 578 911 725 911 q 575 911 576 911 l 404 911 l 404 515 l 586 515 l 586 457 l 404 457 l 404 58 l 575 58 q 576 58 576 58 z "},"Ñ":{"ha":1201,"x_min":-299,"x_max":1538,"o":"m 804 1235 l 819 1235 q 824 1206 824 1219 q 796 1119 824 1163 q 686 1061 758 1061 q 581 1094 646 1061 q 497 1129 517 1126 q 460 1132 478 1132 q 416 1113 443 1132 q 378 1065 389 1093 l 361 1065 q 360 1086 360 1076 q 393 1194 360 1139 q 496 1249 426 1249 q 601 1214 533 1249 q 721 1179 668 1179 q 767 1196 739 1179 q 804 1235 794 1213 m 1297 -145 q 1308 -152 1297 -145 q 1349 -170 1319 -158 q 1405 -187 1378 -182 q 1465 -192 1432 -192 q 1532 -183 1497 -192 l 1538 -197 q 1381 -235 1460 -235 q 1010 -33 1199 -235 l 351 665 l 351 97 q 376 38 351 63 q 436 14 401 14 l 463 14 l 463 0 l 42 0 l 42 14 l 67 14 q 128 38 103 14 q 153 99 153 63 l 153 878 q 32 1003 71 972 q -37 1057 -7 1035 q -137 1106 -89 1093 q -219 1119 -186 1119 q -292 1106 -253 1119 l -297 1119 q -140 1164 -221 1164 q 231 956 35 1164 l 851 296 l 851 874 q 825 934 850 910 q 765 958 800 958 l 740 958 l 740 972 l 1161 972 l 1161 958 l 1135 958 q 1075 934 1100 958 q 1049 875 1050 910 l 1049 85 l 1071 63 q 1097 34 1079 54 q 1128 -1 1114 14 q 1163 -37 1142 -15 q 1203 -76 1185 -60 q 1248 -112 1222 -93 q 1297 -145 1274 -132 z "},"Ò":{"ha":1292,"x_min":40,"x_max":1251,"o":"m 675 1082 l 665 1072 q 381 1197 526 1106 q 475 1311 408 1276 q 675 1082 615 1185 m 461 621 q 436 722 436 674 q 449 810 436 769 q 490 891 461 851 q 572 957 519 931 q 746 994 644 994 q 999 926 879 994 q 1217 681 1156 838 q 1251 496 1251 594 q 1084 122 1251 264 q 648 -19 917 -19 q 210 122 379 -19 q 42 494 42 264 q 140 794 42 667 q 404 967 238 921 l 413 954 q 306 779 342 894 q 269 531 269 664 q 374 172 269 306 q 647 39 478 39 q 919 165 815 39 q 1022 497 1022 290 q 984 723 1022 622 q 874 878 946 824 q 713 933 801 933 q 553 882 614 933 q 467 694 467 808 q 476 621 467 658 l 461 621 z "},"Ó":{"ha":1292,"x_min":40,"x_max":1251,"o":"m 633 1071 l 624 1081 q 824 1308 685 1183 q 918 1196 892 1274 q 633 1071 775 1104 m 461 621 q 436 722 436 674 q 449 810 436 769 q 490 891 461 851 q 572 957 519 931 q 746 994 644 994 q 999 926 879 994 q 1217 681 1156 838 q 1251 496 1251 596 q 1084 122 1251 264 q 648 -19 917 -19 q 210 122 379 -19 q 42 494 42 264 q 140 794 42 667 q 404 967 238 921 l 413 954 q 306 779 342 894 q 269 522 269 664 q 317 269 269 381 q 451 98 365 157 q 647 39 536 39 q 919 165 815 39 q 1022 497 1022 290 q 984 723 1022 622 q 874 878 946 824 q 713 933 801 933 q 553 882 614 933 q 467 694 467 808 q 476 621 467 658 l 461 621 z "},"Ô":{"ha":1292,"x_min":40,"x_max":1251,"o":"m 639 1283 l 656 1283 l 868 1069 l 858 1058 l 646 1150 l 449 1060 l 439 1071 l 639 1283 m 461 621 q 436 722 436 674 q 449 810 436 769 q 490 891 461 851 q 572 957 519 931 q 746 994 644 994 q 999 926 879 994 q 1217 681 1156 838 q 1251 496 1251 594 q 1084 122 1251 264 q 648 -19 917 -19 q 210 122 379 -19 q 42 494 42 264 q 140 794 42 667 q 404 967 239 921 l 413 954 q 306 779 342 894 q 269 531 269 664 q 374 172 269 306 q 647 39 478 39 q 919 165 815 39 q 1022 497 1022 290 q 985 723 1022 622 q 874 878 947 824 q 713 933 801 933 q 553 882 614 933 q 467 694 467 808 q 476 621 467 658 l 461 621 z "},"Õ":{"ha":1292,"x_min":40,"x_max":1251,"o":"m 882 1247 l 897 1247 q 900 1217 900 1232 q 874 1131 900 1175 q 764 1074 836 1074 q 658 1106 722 1074 q 575 1141 594 1139 q 538 1143 556 1143 q 493 1124 521 1143 q 454 1078 465 1106 l 439 1078 q 438 1099 438 1088 q 470 1206 438 1151 q 572 1260 503 1260 q 678 1226 611 1260 q 799 1192 746 1192 q 844 1208 817 1192 q 882 1247 872 1224 m 461 621 q 436 722 436 674 q 449 810 436 769 q 490 891 461 851 q 572 957 519 931 q 746 994 644 994 q 999 926 879 994 q 1217 681 1156 838 q 1251 496 1251 594 q 1084 122 1251 264 q 648 -19 917 -19 q 210 122 379 -19 q 42 494 42 264 q 140 794 42 667 q 404 967 239 921 l 413 954 q 306 779 342 894 q 269 522 269 664 q 317 269 269 381 q 451 98 365 157 q 647 39 536 39 q 919 165 815 39 q 1022 497 1022 290 q 985 723 1022 622 q 874 878 947 824 q 713 933 801 933 q 553 882 614 933 q 467 694 467 808 q 476 621 467 658 l 461 621 z "},"Ö":{"ha":1292,"x_min":40,"x_max":1251,"o":"m 542 1090 q 530 1078 542 1090 q 483 1065 518 1065 q 424 1090 449 1065 q 400 1149 400 1115 q 424 1208 400 1183 q 483 1233 449 1233 q 542 1208 518 1233 q 567 1149 567 1183 q 542 1090 567 1115 m 866 1090 q 854 1078 866 1090 q 808 1065 842 1065 q 749 1090 774 1065 q 724 1149 724 1115 q 749 1208 724 1183 q 808 1233 774 1233 q 866 1208 842 1233 q 890 1149 890 1183 q 866 1090 890 1115 m 461 621 q 436 722 436 674 q 449 810 436 769 q 490 891 461 851 q 572 957 519 931 q 746 994 644 994 q 999 926 879 994 q 1217 681 1156 838 q 1251 496 1251 594 q 1084 122 1251 264 q 648 -19 917 -19 q 210 122 379 -19 q 42 494 42 264 q 140 794 42 667 q 404 967 238 921 l 413 954 q 306 779 342 894 q 269 531 269 664 q 374 172 269 306 q 647 39 478 39 q 919 165 815 39 q 1022 497 1022 290 q 984 723 1022 622 q 874 878 946 824 q 713 933 801 933 q 553 882 614 933 q 467 694 467 808 q 476 621 467 658 l 461 621 z "},"×":{"ha":571,"x_min":60,"x_max":513,"o":"m 511 600 l 343 431 l 511 261 l 456 206 l 286 374 l 117 206 l 61 261 l 231 431 l 61 600 l 117 656 l 286 486 l 456 656 l 511 600 z "},"Ø":{"ha":1269,"x_min":28,"x_max":1239,"o":"m 447 621 q 424 722 424 674 q 436 810 424 769 q 478 891 449 851 q 560 957 507 931 q 742 994 632 994 q 965 938 853 994 l 1024 1007 l 1074 965 l 1022 904 q 1179 735 1121 839 q 1238 496 1238 631 q 1069 122 1238 264 q 633 -19 901 -19 q 301 53 444 -19 l 229 -32 l 178 10 l 243 88 q 85 260 140 156 q 29 494 29 365 q 127 794 29 667 q 392 967 225 921 l 400 954 q 293 779 329 894 q 257 531 257 664 q 340 201 257 331 l 892 851 q 700 933 813 933 q 540 882 601 933 q 454 694 454 808 q 464 621 454 658 l 447 621 m 381 147 q 640 39 481 39 q 905 165 800 39 q 1010 484 1010 290 q 933 799 1010 678 l 381 147 z "},"Ù":{"ha":1144,"x_min":51,"x_max":1301,"o":"m 678 1071 l 668 1061 q 385 1186 529 1094 q 478 1299 411 1265 q 678 1071 619 1172 m 1264 1254 q 1301 1253 1282 1254 l 1301 1239 q 1092 1126 1165 1228 q 1018 847 1018 1025 l 1018 351 q 824 25 1015 114 q 597 -19 729 -19 q 268 81 389 -19 q 149 350 147 182 l 149 890 q 127 939 149 919 q 75 958 106 958 l 53 958 l 53 972 l 453 972 l 453 958 l 431 958 q 379 939 400 958 q 357 892 358 919 l 357 361 q 433 128 357 214 q 635 42 510 42 q 636 42 636 42 q 638 42 636 42 q 840 122 761 42 q 919 343 919 203 l 919 847 q 1019 1144 919 1035 q 1264 1254 1118 1254 z "},"Ú":{"ha":1144,"x_min":51,"x_max":1301,"o":"m 638 1058 l 628 1068 q 828 1296 688 1171 q 921 1183 894 1261 q 638 1058 779 1093 m 1264 1254 q 1301 1253 1282 1254 l 1301 1239 q 1092 1127 1165 1229 q 1018 847 1018 1025 l 1018 351 q 824 25 1015 114 q 597 -19 729 -19 q 268 81 389 -19 q 149 350 147 182 l 149 890 q 127 939 149 919 q 75 958 106 958 l 53 958 l 53 972 l 453 972 l 453 958 l 431 958 q 367 925 388 958 q 357 892 357 910 l 357 361 q 433 128 357 214 q 635 42 510 42 q 636 42 636 42 q 636 42 636 42 q 839 121 761 42 q 919 343 919 201 l 919 847 q 1019 1144 919 1035 q 1264 1254 1118 1254 z "},"Û":{"ha":1144,"x_min":51,"x_max":1301,"o":"m 643 1271 l 658 1271 l 871 1058 l 861 1047 l 650 1138 l 451 1047 l 443 1058 l 643 1271 m 1264 1254 q 1301 1253 1282 1254 l 1301 1239 q 1092 1126 1165 1228 q 1018 847 1018 1025 l 1018 351 q 906 78 1015 176 q 592 -19 796 -19 q 268 81 389 -19 q 149 350 147 182 l 149 890 q 127 939 149 919 q 75 958 106 958 l 53 958 l 53 972 l 453 972 l 453 958 l 431 958 q 379 939 400 958 q 357 892 358 919 l 357 361 q 433 128 357 214 q 635 42 510 42 q 636 42 636 42 q 638 42 636 42 q 840 122 761 42 q 919 343 919 203 l 919 847 q 1019 1144 919 1035 q 1264 1254 1118 1254 z "},"Ü":{"ha":1144,"x_min":51,"x_max":1301,"o":"m 1264 1254 q 1301 1253 1282 1254 l 1301 1239 q 1065 1083 1138 1226 q 1018 847 1018 990 l 1018 351 q 906 78 1015 176 q 592 -19 796 -19 q 268 81 389 -19 q 149 350 147 182 l 149 890 q 127 939 149 919 q 75 958 106 958 l 53 958 l 53 972 l 453 972 l 453 958 l 431 958 q 367 925 388 958 q 357 892 357 910 l 357 361 q 433 128 357 214 q 635 42 510 42 q 636 42 636 42 q 638 42 636 42 q 840 122 761 42 q 919 343 919 203 l 919 847 q 1019 1144 919 1035 q 1264 1254 1118 1254 m 545 1078 q 533 1066 545 1078 q 486 1054 521 1054 q 427 1078 451 1054 q 403 1138 403 1103 q 427 1197 403 1172 q 486 1221 451 1221 q 545 1197 521 1221 q 569 1138 569 1172 q 545 1078 569 1103 m 870 1078 q 858 1066 870 1078 q 811 1054 846 1054 q 752 1078 776 1054 q 728 1138 728 1103 q 752 1197 728 1172 q 811 1221 776 1221 q 870 1197 846 1221 q 894 1138 894 1172 q 870 1078 894 1103 z "},"Ý":{"ha":926,"x_min":-93,"x_max":985,"o":"m 474 1058 l 464 1068 q 664 1296 524 1171 q 758 1183 732 1261 q 474 1058 615 1093 m -93 1053 q -23 1054 -71 1054 q 103 1034 25 1054 q 249 971 182 1014 q 371 867 315 928 q 532 593 474 753 q 749 957 615 831 q 972 1053 850 1053 q 983 1053 978 1053 l 983 1039 q 840 966 914 1038 q 710 793 765 894 q 616 582 654 692 q 571 392 578 472 l 571 101 q 597 40 571 67 q 660 14 622 14 l 678 14 l 678 0 l 256 0 l 256 14 l 274 14 q 335 40 310 14 q 363 101 361 65 l 363 393 q 263 711 346 543 q 47 988 167 906 q -93 1039 -22 1036 l -93 1053 z "},"Þ":{"ha":897,"x_min":58,"x_max":860,"o":"m 860 492 q 835 371 860 428 q 660 221 788 263 q 592 208 624 208 q 415 260 494 208 l 415 274 q 585 342 519 271 q 640 501 640 403 q 535 697 640 653 q 461 711 501 711 l 375 711 l 375 101 q 401 40 375 65 q 464 14 426 14 l 481 14 l 481 0 l 60 0 l 60 14 l 76 14 q 140 40 114 14 q 167 101 165 65 l 167 872 q 140 933 165 908 q 78 958 114 958 l 60 958 l 60 972 l 481 972 l 481 958 l 464 958 q 401 933 428 958 q 375 872 375 908 l 375 769 l 517 769 q 771 697 688 769 q 860 492 860 621 z "},"ß":{"ha":1606,"x_min":68,"x_max":1542,"o":"m 872 129 q 915 300 872 229 l 928 300 q 926 278 926 289 q 996 110 926 182 q 1183 39 1065 39 q 1328 83 1276 39 q 1381 196 1381 128 q 1269 339 1381 278 l 1028 499 q 924 599 956 540 q 893 719 893 658 q 976 921 893 850 q 1188 992 1058 992 q 1376 978 1264 992 l 1464 978 l 1446 774 l 1432 774 q 1378 890 1432 846 q 1236 933 1325 933 q 1069 851 1114 933 q 1054 794 1054 825 q 1151 671 1054 728 l 1417 499 q 1542 286 1542 426 q 1441 59 1542 138 q 1174 -19 1340 -19 q 999 3 1079 -19 q 882 65 919 26 q 872 129 872 92 m 69 129 q 113 300 69 229 l 125 300 q 124 278 124 289 q 192 110 124 182 q 381 39 261 39 q 526 83 474 39 q 578 196 578 128 q 467 339 578 278 l 225 499 q 122 599 153 540 q 90 719 90 658 q 173 921 90 850 q 385 992 256 992 q 574 978 461 992 l 661 978 l 643 774 l 629 774 q 576 890 629 846 q 433 933 522 933 q 276 867 325 933 q 251 794 251 835 q 349 671 251 728 l 614 499 q 739 286 739 426 q 638 59 739 138 q 371 -19 538 -19 q 197 3 276 -19 q 79 65 117 26 q 69 129 69 92 z "},"à":{"ha":994,"x_min":-40,"x_max":1036,"o":"m 517 1071 l 507 1061 q 222 1186 367 1094 q 317 1299 249 1265 q 517 1071 457 1172 m 1024 14 l 1036 14 l 1036 0 l 593 0 l 593 14 l 606 14 q 651 33 636 14 q 665 68 665 51 q 658 101 665 85 l 590 272 l 265 272 l 193 101 q 186 72 186 83 q 191 48 186 61 q 212 24 196 35 q 247 14 228 14 l 258 14 l 258 0 l -39 0 l -39 14 l -26 14 q 38 33 6 14 q 90 92 69 53 l 411 818 q 481 1000 476 956 l 493 1000 l 906 94 q 958 34 926 54 q 1024 14 990 14 m 289 331 l 567 331 l 432 672 l 289 331 z "},"á":{"ha":994,"x_min":-40,"x_max":1036,"o":"m 475 1058 l 465 1068 q 665 1296 525 1171 q 760 1183 732 1261 q 475 1058 617 1093 m 1024 14 l 1036 14 l 1036 0 l 593 0 l 593 14 l 606 14 q 651 33 636 14 q 665 68 665 51 q 658 101 665 85 l 590 272 l 265 272 l 193 101 q 186 67 186 83 q 201 33 186 51 q 247 14 215 14 l 258 14 l 258 0 l -39 0 l -39 14 l -26 14 q 38 33 6 14 q 90 92 69 53 l 411 818 q 481 1000 476 956 l 493 1000 l 906 94 q 958 34 926 54 q 1024 14 990 14 m 289 331 l 567 331 l 432 672 l 289 331 z "},"â":{"ha":994,"x_min":-40,"x_max":1036,"o":"m 481 1271 l 496 1271 l 708 1058 l 700 1047 l 488 1138 l 290 1047 l 281 1058 l 481 1271 m 1024 14 l 1036 14 l 1036 0 l 593 0 l 593 14 l 606 14 q 651 33 636 14 q 665 68 665 51 q 658 101 665 85 l 590 272 l 265 272 l 193 101 q 186 72 186 83 q 191 48 186 61 q 212 24 196 35 q 247 14 228 14 l 258 14 l 258 0 l -39 0 l -39 14 l -26 14 q 38 33 6 14 q 90 92 69 53 l 411 818 q 481 1000 476 956 l 493 1000 l 906 94 q 958 34 926 54 q 1024 14 990 14 m 289 331 l 567 331 l 432 672 l 289 331 z "},"ã":{"ha":994,"x_min":-40,"x_max":1036,"o":"m 722 1235 l 739 1235 q 742 1206 742 1219 q 714 1119 742 1163 q 606 1061 676 1061 q 500 1094 564 1061 q 417 1129 436 1126 q 379 1132 397 1132 q 334 1113 361 1132 q 296 1065 307 1093 l 279 1065 q 278 1086 278 1076 q 311 1194 278 1139 q 414 1249 344 1249 q 519 1214 451 1249 q 640 1179 586 1179 q 686 1196 658 1179 q 722 1235 714 1213 m 1024 14 l 1036 14 l 1036 0 l 593 0 l 593 14 l 606 14 q 651 33 636 14 q 665 68 665 51 q 658 101 665 85 l 590 272 l 265 272 l 193 101 q 186 67 186 83 q 201 33 186 51 q 247 14 215 14 l 258 14 l 258 0 l -39 0 l -39 14 l -26 14 q 38 33 6 14 q 90 92 69 53 l 411 818 q 481 1000 476 956 l 493 1000 l 906 94 q 958 34 926 54 q 1024 14 990 14 m 289 331 l 567 331 l 432 672 l 289 331 z "},"ä":{"ha":994,"x_min":-40,"x_max":1036,"o":"m 384 1078 q 372 1066 384 1078 q 325 1054 360 1054 q 266 1078 290 1054 q 242 1138 242 1103 q 266 1197 242 1172 q 325 1221 290 1221 q 384 1197 360 1221 q 408 1138 408 1172 q 384 1078 408 1103 m 708 1078 q 695 1066 708 1078 q 649 1054 683 1054 q 590 1078 614 1054 q 565 1138 565 1103 q 590 1197 565 1172 q 649 1221 614 1221 q 708 1197 683 1221 q 732 1138 732 1172 q 708 1078 732 1103 m 1024 14 l 1036 14 l 1036 0 l 593 0 l 593 14 l 606 14 q 651 33 636 14 q 665 68 665 51 q 658 101 665 85 l 590 272 l 265 272 l 193 101 q 186 67 186 83 q 201 33 186 51 q 247 14 215 14 l 258 14 l 258 0 l -39 0 l -39 14 l -26 14 q 38 33 6 14 q 90 92 69 53 l 411 818 q 481 1000 476 956 l 493 1000 l 906 94 q 958 34 926 54 q 1024 14 990 14 m 289 331 l 567 331 l 432 672 l 289 331 z "},"å":{"ha":994,"x_min":-40,"x_max":1036,"o":"m 338 1176 q 338 1201 338 1176 q 381 1260 338 1226 q 490 1293 425 1293 q 597 1261 554 1293 q 639 1178 639 1229 q 596 1094 639 1128 q 488 1061 553 1061 q 381 1094 424 1061 q 338 1176 338 1126 m 560 1176 q 560 1194 560 1176 q 540 1235 560 1213 q 489 1258 519 1258 q 439 1235 458 1258 q 419 1183 419 1213 q 428 1135 419 1153 q 483 1096 447 1096 q 540 1118 519 1096 q 560 1176 560 1140 m 1024 14 l 1036 14 l 1036 0 l 593 0 l 593 14 l 606 14 q 651 33 636 14 q 665 68 665 51 q 658 101 665 85 l 590 272 l 265 272 l 193 101 q 186 67 186 83 q 201 33 186 51 q 247 14 215 14 l 258 14 l 258 0 l -39 0 l -39 14 l -26 14 q 38 33 6 14 q 90 92 69 53 l 411 818 q 481 1000 476 956 l 493 1000 l 906 94 q 958 34 926 54 q 1024 14 990 14 m 289 331 l 567 331 l 432 672 l 289 331 z "},"æ":{"ha":1346,"x_min":-35,"x_max":1313,"o":"m 578 14 q 626 33 606 14 q 647 81 646 53 l 647 442 l 425 442 l 217 99 q 206 63 206 78 q 214 38 206 49 q 261 14 231 14 q 263 14 263 14 l 276 14 l 276 0 l -33 0 l -33 14 l -22 14 q 100 99 43 14 l 635 899 q 643 923 643 913 q 639 940 643 933 q 604 958 629 958 l 599 958 l 599 972 l 1064 972 q 1171 982 1125 972 q 1229 997 1217 992 l 1229 763 l 1215 763 l 1215 776 q 1154 894 1217 860 q 1083 913 1124 911 l 856 913 l 856 501 l 1033 501 q 1116 536 1083 503 q 1149 619 1149 569 l 1149 632 l 1163 632 l 1163 311 l 1149 311 l 1149 324 q 1093 425 1149 392 q 1036 442 1068 440 l 856 442 l 856 60 l 1040 60 q 1201 116 1133 60 q 1299 271 1268 172 l 1313 271 l 1250 0 l 564 0 l 565 14 l 578 14 m 647 501 l 647 807 l 461 501 l 647 501 z "},"ç":{"ha":1083,"x_min":61,"x_max":1017,"o":"m 571 -82 q 618 -75 592 -75 q 714 -111 685 -75 q 729 -161 729 -131 q 650 -271 729 -235 q 568 -290 607 -290 q 493 -278 529 -290 l 494 -264 q 606 -222 565 -264 q 631 -167 631 -197 q 610 -121 631 -136 q 560 -106 589 -106 q 503 -115 531 -106 l 496 -101 l 561 -17 q 197 134 331 1 q 63 494 63 267 q 214 856 63 721 q 629 992 365 992 q 975 917 831 992 l 978 678 l 967 678 q 643 933 896 933 q 384 815 479 933 q 289 490 289 696 q 380 164 289 285 q 626 39 471 43 q 872 119 788 39 q 992 406 958 203 l 1003 406 l 1017 167 q 625 -19 904 -19 l 571 -82 z "},"è":{"ha":876,"x_min":57,"x_max":842,"o":"m 475 1071 l 465 1061 q 181 1186 325 1094 q 275 1299 207 1265 q 475 1071 415 1172 m 76 14 q 138 40 113 14 q 165 101 164 65 l 165 875 q 119 947 161 924 q 76 958 99 958 l 58 958 l 58 972 l 590 972 q 697 982 651 972 q 757 997 743 992 l 757 754 l 743 754 l 743 771 q 706 872 743 833 q 607 913 669 910 l 374 913 l 374 508 l 557 508 q 642 543 608 510 q 675 628 675 576 l 675 640 l 689 640 l 689 319 l 675 319 l 675 331 q 642 415 675 382 q 558 450 610 449 l 374 450 l 374 60 l 556 60 q 726 118 657 60 q 828 283 794 176 l 842 283 l 778 0 l 58 0 l 58 14 l 76 14 z "},"é":{"ha":876,"x_min":57,"x_max":842,"o":"m 433 1058 l 424 1068 q 624 1296 483 1171 q 718 1183 690 1261 q 433 1058 575 1093 m 76 14 q 138 40 113 14 q 165 101 164 65 l 165 875 q 119 947 161 924 q 76 958 99 958 l 58 958 l 58 972 l 590 972 q 685 981 633 972 q 757 997 736 989 l 757 754 l 743 756 l 743 771 q 679 893 743 856 q 607 913 649 911 l 374 913 l 374 508 l 557 508 q 642 544 608 510 q 675 628 675 578 l 675 640 l 689 640 l 689 319 l 675 319 l 675 331 q 619 433 675 400 q 558 450 592 449 l 374 450 l 374 60 l 556 60 q 726 118 657 60 q 828 283 794 176 l 842 283 l 778 0 l 58 0 l 58 14 l 76 14 z "},"ê":{"ha":876,"x_min":57,"x_max":842,"o":"m 439 1271 l 454 1271 l 667 1058 l 658 1047 l 446 1138 l 249 1047 l 239 1058 l 439 1271 m 76 14 q 138 40 113 14 q 165 101 164 65 l 165 875 q 119 947 161 924 q 76 958 99 958 l 58 958 l 58 972 l 590 972 q 685 981 633 972 q 757 997 736 989 l 757 754 l 743 754 l 743 771 q 706 872 743 833 q 607 913 669 910 l 374 913 l 374 508 l 557 508 q 642 543 608 510 q 675 628 675 576 l 675 640 l 689 640 l 689 319 l 675 319 l 675 331 q 642 415 675 382 q 560 450 610 449 l 374 450 l 374 60 l 556 60 q 726 118 657 60 q 828 283 794 176 l 842 283 l 778 0 l 58 0 l 58 14 l 76 14 z "},"ë":{"ha":876,"x_min":57,"x_max":842,"o":"m 342 1078 q 330 1066 342 1078 q 283 1054 318 1054 q 224 1078 249 1054 q 200 1138 200 1103 q 224 1197 200 1172 q 283 1221 249 1221 q 342 1197 318 1221 q 367 1138 367 1172 q 342 1078 367 1103 m 666 1078 q 654 1066 666 1078 q 607 1054 642 1054 q 548 1078 572 1054 q 524 1138 524 1103 q 548 1197 524 1172 q 607 1221 572 1221 q 666 1197 642 1221 q 690 1138 690 1172 q 666 1078 690 1103 m 76 14 q 138 40 113 14 q 165 101 164 65 l 165 875 q 119 947 161 924 q 76 958 99 958 l 58 958 l 58 972 l 590 972 q 685 981 633 972 q 757 997 736 989 l 757 754 l 743 754 l 743 771 q 706 872 743 833 q 607 913 669 910 l 374 913 l 374 508 l 557 508 q 642 544 608 510 q 675 628 675 578 l 675 640 l 689 640 l 689 319 l 675 319 l 675 331 q 619 433 675 400 q 558 450 592 449 l 374 450 l 374 60 l 556 60 q 726 118 657 60 q 828 283 794 176 l 842 283 l 778 0 l 58 0 l 58 14 l 76 14 z "},"ì":{"ha":536,"x_min":0,"x_max":481,"o":"m 294 1071 l 285 1061 q 1 1186 146 1094 q 94 1299 28 1265 q 294 1071 236 1172 m 76 14 q 138 40 113 14 q 165 101 164 65 l 165 872 q 138 933 164 908 q 76 958 113 958 l 58 958 l 58 972 l 481 972 l 479 958 l 463 958 q 400 933 426 958 q 374 872 374 908 l 374 101 q 400 40 374 65 q 463 14 426 14 l 479 14 l 481 0 l 58 0 l 58 14 l 76 14 z "},"í":{"ha":536,"x_min":57,"x_max":539,"o":"m 254 1058 l 244 1068 q 444 1296 304 1171 q 538 1183 511 1261 q 254 1058 396 1093 m 76 14 q 138 40 113 14 q 165 101 164 65 l 165 872 q 138 933 164 908 q 76 958 113 958 l 58 958 l 58 972 l 481 972 l 479 958 l 463 958 q 400 933 426 958 q 374 872 374 908 l 374 101 q 400 40 374 65 q 463 14 426 14 l 479 14 l 481 0 l 58 0 l 58 14 l 76 14 z "},"î":{"ha":536,"x_min":57,"x_max":489,"o":"m 260 1271 l 275 1271 l 488 1058 l 478 1047 l 267 1138 l 68 1047 l 58 1058 l 260 1271 m 76 14 q 138 40 113 14 q 165 101 164 65 l 165 872 q 138 933 164 908 q 76 958 113 958 l 58 958 l 58 972 l 481 972 l 479 958 l 463 958 q 400 933 426 958 q 374 872 374 908 l 374 101 q 400 40 374 65 q 463 14 426 14 l 479 14 l 481 0 l 58 0 l 58 14 l 76 14 z "},"ï":{"ha":536,"x_min":19,"x_max":511,"o":"m 162 1078 q 150 1066 162 1078 q 103 1054 138 1054 q 44 1078 68 1054 q 19 1138 19 1103 q 44 1197 19 1172 q 103 1221 68 1221 q 162 1197 138 1221 q 186 1138 186 1172 q 162 1078 186 1103 m 487 1078 q 475 1066 487 1078 q 428 1054 463 1054 q 369 1078 393 1054 q 344 1138 344 1103 q 369 1197 344 1172 q 428 1221 393 1221 q 487 1197 463 1221 q 511 1138 511 1172 q 487 1078 511 1103 m 76 14 q 138 40 113 14 q 165 101 164 65 l 165 872 q 138 933 164 908 q 76 958 113 958 l 58 958 l 58 972 l 481 972 l 479 958 l 463 958 q 400 933 426 958 q 374 872 374 908 l 374 101 q 400 40 374 65 q 463 14 426 14 l 479 14 l 481 0 l 58 0 l 58 14 l 76 14 z "},"ð":{"ha":1156,"x_min":57,"x_max":1094,"o":"m 565 972 q 953 842 811 972 q 1094 486 1094 711 q 953 131 1094 261 q 565 0 811 0 l 61 0 l 61 14 l 79 14 q 141 40 115 14 q 168 101 167 65 l 168 457 l 58 457 l 58 515 l 168 515 l 168 879 q 121 949 163 925 q 79 958 101 958 l 61 958 l 61 972 l 565 972 m 376 457 l 376 58 l 547 58 q 786 174 697 58 q 875 486 875 289 q 786 799 875 683 q 547 914 697 914 l 376 914 l 376 515 l 556 515 l 556 457 l 376 457 z "},"ñ":{"ha":1201,"x_min":40,"x_max":1161,"o":"m 813 1235 l 829 1235 q 832 1206 832 1219 q 804 1119 832 1163 q 694 1061 767 1061 q 628 1076 663 1061 q 558 1110 593 1092 q 504 1130 522 1128 q 469 1132 486 1132 q 424 1113 451 1132 q 386 1065 397 1093 l 369 1065 q 368 1086 368 1076 q 401 1194 368 1139 q 504 1249 435 1249 q 609 1214 542 1249 q 731 1179 676 1179 q 776 1196 747 1179 q 813 1235 804 1213 m 1135 958 q 1061 917 1086 958 q 1049 875 1050 899 l 1049 158 q 1061 1 1049 65 l 1065 -19 l 1053 -19 l 351 649 l 351 97 q 394 25 351 49 q 436 14 414 14 l 463 14 l 463 0 l 42 0 l 42 14 l 67 14 q 128 38 103 14 q 153 99 153 63 l 153 819 q 140 972 153 911 l 138 993 l 150 993 l 851 325 l 851 874 q 825 934 850 910 q 765 958 800 958 l 740 958 l 740 972 l 1161 972 l 1161 958 l 1135 958 z "},"ò":{"ha":1221,"x_min":50,"x_max":1172,"o":"m 639 1082 l 629 1072 q 344 1197 489 1106 q 439 1311 371 1276 q 639 1082 579 1185 m 611 992 q 1019 856 868 992 q 1171 486 1171 719 q 1019 117 1171 253 q 611 -19 868 -19 q 203 117 354 -19 q 51 486 51 253 q 120 755 51 640 q 315 931 189 869 q 611 992 442 992 m 369 159 q 414 99 369 159 q 611 39 458 39 q 853 159 764 39 q 943 486 943 279 q 903 724 943 622 q 788 879 863 825 q 611 933 713 933 q 369 813 458 933 q 279 486 279 693 q 369 159 279 279 z "},"ó":{"ha":1221,"x_min":50,"x_max":1172,"o":"m 597 1071 l 588 1081 q 788 1308 647 1183 q 882 1196 856 1274 q 597 1071 739 1104 m 203 856 q 278 924 203 856 q 611 992 354 992 q 1019 856 868 992 q 1171 486 1171 719 q 1019 117 1171 253 q 611 -19 868 -19 q 203 117 354 -19 q 51 486 51 253 q 203 856 51 719 m 369 159 q 414 99 369 159 q 611 39 458 39 q 853 159 764 39 q 943 486 943 279 q 903 724 943 622 q 788 879 863 825 q 611 933 713 933 q 369 813 458 933 q 279 486 279 693 q 369 159 279 279 z "},"ô":{"ha":1221,"x_min":50,"x_max":1172,"o":"m 603 1283 l 618 1283 l 832 1069 l 822 1058 l 610 1150 l 413 1060 l 403 1071 l 603 1283 m 120 755 q 155 812 120 755 q 315 931 189 869 q 590 992 442 992 q 843 956 739 992 q 1019 856 947 921 q 1131 697 1092 792 q 1171 486 1171 601 q 1019 117 1171 253 q 611 -19 868 -19 q 203 117 354 -19 q 51 486 51 253 q 120 755 51 640 m 369 159 q 414 99 369 159 q 611 39 458 39 q 853 159 764 39 q 943 486 943 279 q 903 724 943 622 q 788 879 863 825 q 611 933 713 933 q 369 813 458 933 q 279 486 279 693 q 369 159 279 279 z "},"õ":{"ha":1221,"x_min":50,"x_max":1172,"o":"m 844 1247 l 861 1247 q 864 1217 864 1232 q 836 1131 864 1175 q 728 1074 799 1074 q 622 1106 686 1074 q 539 1141 558 1139 q 502 1143 519 1143 q 457 1124 485 1143 q 418 1078 429 1106 l 401 1078 q 401 1099 401 1088 q 434 1206 401 1151 q 536 1260 467 1260 q 641 1226 574 1260 q 763 1192 708 1192 q 808 1208 781 1192 q 844 1247 836 1224 m 611 992 q 1019 856 868 992 q 1171 486 1171 719 q 1019 117 1171 253 q 611 -19 868 -19 q 203 117 354 -19 q 51 486 51 253 q 120 755 51 640 q 315 931 189 869 q 611 992 442 992 m 369 159 q 414 99 369 159 q 611 39 458 39 q 853 159 764 39 q 943 486 943 279 q 903 724 943 622 q 788 879 863 825 q 611 933 713 933 q 369 813 458 933 q 279 486 279 693 q 369 159 279 279 z "},"ö":{"ha":1221,"x_min":50,"x_max":1172,"o":"m 506 1090 q 494 1078 506 1090 q 447 1065 482 1065 q 388 1090 413 1065 q 364 1149 364 1115 q 388 1208 364 1183 q 447 1233 413 1233 q 506 1208 482 1233 q 531 1149 531 1183 q 506 1090 531 1115 m 830 1090 q 818 1078 830 1090 q 771 1065 806 1065 q 712 1090 736 1065 q 688 1149 688 1115 q 712 1208 688 1183 q 771 1233 736 1233 q 830 1208 806 1233 q 854 1149 854 1183 q 830 1090 854 1115 m 611 992 q 1019 856 868 992 q 1171 486 1171 719 q 1019 117 1171 253 q 611 -19 868 -19 q 203 117 354 -19 q 51 486 51 253 q 120 755 51 640 q 315 931 189 869 q 611 992 442 992 m 369 159 q 414 99 369 159 q 611 39 458 39 q 853 159 764 39 q 943 486 943 279 q 903 724 943 622 q 788 879 863 825 q 611 933 713 933 q 369 813 458 933 q 279 486 279 693 q 369 159 279 279 z "},"÷":{"ha":668,"x_min":56,"x_max":614,"o":"m 378 606 q 369 597 378 606 q 334 588 360 588 q 290 606 308 588 q 271 650 271 624 q 290 695 271 676 q 334 714 308 714 q 378 695 360 714 q 397 650 397 676 q 378 606 397 624 m 56 390 l 56 469 l 614 469 l 614 390 l 56 390 m 378 167 q 369 158 378 167 q 334 149 360 149 q 290 167 308 149 q 271 211 271 185 q 290 256 271 238 q 334 275 308 275 q 378 256 360 275 q 397 211 397 238 q 378 167 397 185 z "},"ø":{"ha":1221,"x_min":50,"x_max":1172,"o":"m 1171 486 q 1019 117 1171 253 q 611 -19 868 -19 q 276 63 414 -19 l 196 -32 l 146 11 l 222 100 q 51 486 51 238 q 120 755 51 640 q 315 931 189 869 q 615 992 442 992 q 921 924 789 992 l 990 1007 l 1042 965 l 978 889 q 1121 721 1071 824 q 1171 486 1171 618 m 840 829 q 606 933 753 933 q 369 813 458 933 q 279 486 279 693 q 329 228 279 335 l 840 829 m 364 167 q 609 39 454 39 q 853 159 764 39 q 943 469 943 279 q 879 774 943 660 l 364 167 z "},"ù":{"ha":1140,"x_min":51,"x_max":1097,"o":"m 653 1071 l 643 1061 q 360 1186 504 1094 q 453 1299 386 1265 q 653 1071 594 1172 m 1097 958 l 1074 958 q 1023 940 1044 958 q 1001 893 1001 921 l 1001 351 q 894 81 1001 181 q 601 -19 788 -19 q 265 78 382 -19 q 149 350 149 176 l 149 889 q 111 950 147 931 q 75 958 94 958 l 53 958 l 53 972 l 453 972 l 453 958 l 431 958 q 379 940 400 958 q 357 892 358 921 l 357 361 q 429 128 357 214 q 628 42 501 42 q 828 123 754 42 q 903 343 901 204 l 903 892 q 881 940 903 921 q 829 958 860 958 l 807 958 l 807 972 l 1097 972 l 1097 958 z "},"ú":{"ha":1140,"x_min":51,"x_max":1097,"o":"m 613 1058 l 603 1068 q 803 1296 663 1171 q 896 1183 869 1261 q 613 1058 754 1093 m 1097 958 l 1074 958 q 1023 940 1044 958 q 1001 893 1001 921 l 1001 351 q 894 81 1001 181 q 601 -19 788 -19 q 265 78 382 -19 q 149 350 149 176 l 149 890 q 111 950 147 931 q 75 958 94 958 l 53 958 l 53 972 l 453 972 l 453 958 l 431 958 q 379 940 400 958 q 357 892 358 921 l 357 361 q 429 128 357 214 q 626 42 501 42 q 828 123 754 42 q 903 343 901 204 l 903 892 q 881 940 903 921 q 829 958 860 958 l 807 958 l 807 972 l 1097 972 l 1097 958 z "},"û":{"ha":1140,"x_min":51,"x_max":1097,"o":"m 618 1271 l 633 1271 l 846 1058 l 836 1047 l 625 1138 l 426 1047 l 417 1058 l 618 1271 m 1097 958 l 1075 958 q 1011 926 1032 958 q 1001 893 1001 911 l 1001 351 q 894 81 1001 181 q 601 -19 788 -19 q 265 78 382 -19 q 149 350 149 176 l 149 889 q 111 950 147 931 q 75 958 94 958 l 53 958 l 53 972 l 453 972 l 453 958 l 431 958 q 379 940 400 958 q 357 892 358 921 l 357 361 q 429 128 357 214 q 628 42 501 42 q 828 123 754 42 q 903 343 901 204 l 903 892 q 881 940 903 921 q 829 958 860 958 l 807 958 l 807 972 l 1097 972 l 1097 958 z "},"ü":{"ha":1140,"x_min":51,"x_max":1097,"o":"m 520 1078 q 508 1066 520 1078 q 461 1054 496 1054 q 402 1078 426 1054 q 378 1138 378 1103 q 402 1197 378 1172 q 461 1221 426 1221 q 520 1197 496 1221 q 544 1138 544 1172 q 520 1078 544 1103 m 844 1078 q 832 1066 844 1078 q 785 1054 819 1054 q 727 1078 751 1054 q 703 1138 703 1103 q 727 1197 703 1172 q 785 1221 751 1221 q 844 1197 819 1221 q 869 1138 869 1172 q 844 1078 869 1103 m 1097 958 l 1074 958 q 1011 926 1032 958 q 1001 893 1001 911 l 1001 351 q 894 81 1001 181 q 601 -19 788 -19 q 265 78 382 -19 q 149 350 149 176 l 149 889 q 127 939 149 919 q 75 958 106 958 l 53 958 l 53 972 l 453 972 l 453 958 l 431 958 q 379 940 400 958 q 357 892 358 921 l 357 361 q 429 128 357 214 q 628 42 501 42 q 828 123 754 42 q 903 343 901 204 l 903 892 q 881 940 903 921 q 829 958 860 958 l 807 958 l 807 972 l 1097 972 l 1097 958 z "},"ý":{"ha":975,"x_min":-43,"x_max":1021,"o":"m 540 1058 l 531 1068 q 731 1296 590 1171 q 824 1183 797 1261 q 540 1058 682 1093 m 689 972 l 1019 972 l 1019 958 l 1000 958 q 921 935 958 958 q 861 878 883 911 l 588 442 l 588 101 q 632 25 588 50 q 676 14 653 14 l 693 14 l 694 0 l 272 0 l 272 14 l 290 14 q 352 39 326 14 q 379 100 378 64 l 379 443 l 114 879 q 31 947 85 925 q -24 958 4 958 l -43 958 l -43 972 l 417 972 l 417 958 l 399 958 q 351 931 368 958 q 343 901 343 915 q 350 872 343 886 l 549 511 l 754 872 q 763 901 763 886 q 753 929 763 915 q 706 958 736 958 l 689 958 l 689 972 z "},"þ":{"ha":897,"x_min":58,"x_max":860,"o":"m 860 492 q 835 371 860 428 q 660 221 788 263 q 592 208 624 208 q 415 260 494 208 l 415 274 q 585 342 519 271 q 640 501 640 403 q 535 697 640 653 q 461 711 501 711 l 375 711 l 375 101 q 401 40 375 65 q 464 14 426 14 l 481 14 l 481 0 l 60 0 l 60 14 l 76 14 q 140 40 114 14 q 167 101 165 65 l 167 872 q 140 933 165 908 q 78 958 114 958 l 60 958 l 60 972 l 481 972 l 481 958 l 464 958 q 401 933 428 958 q 375 872 375 908 l 375 769 l 517 769 q 771 697 688 769 q 860 492 860 621 z "},"ÿ":{"ha":975,"x_min":-44,"x_max":1021,"o":"m 448 1078 q 436 1066 448 1078 q 389 1054 424 1054 q 330 1078 354 1054 q 306 1138 306 1103 q 330 1197 306 1172 q 389 1221 354 1221 q 448 1197 424 1221 q 472 1138 472 1172 q 448 1078 472 1103 m 773 1078 q 761 1066 773 1078 q 714 1054 749 1054 q 655 1078 679 1054 q 631 1138 631 1103 q 655 1197 631 1172 q 714 1221 679 1221 q 773 1197 749 1221 q 797 1138 797 1172 q 773 1078 797 1103 m 689 972 l 1019 972 l 1019 958 l 1000 958 q 921 935 958 958 q 861 878 883 911 l 588 442 l 588 101 q 614 40 588 65 q 676 14 640 14 l 693 14 l 694 0 l 272 0 l 272 14 l 290 14 q 352 39 326 14 q 379 100 378 64 l 379 443 l 114 879 q 55 935 93 913 q -24 958 17 958 l -43 958 l -43 972 l 417 972 l 417 958 l 399 958 q 351 931 368 958 q 343 901 343 915 q 350 872 343 886 l 549 511 l 754 872 q 763 901 763 886 q 753 929 763 915 q 706 958 736 958 l 689 958 l 689 972 z "},"Ā":{"ha":979,"x_min":-39,"x_max":1342,"o":"m 290 1126 l 290 1218 l 672 1218 l 672 1126 l 290 1126 m 1340 -254 q 1172 -300 1250 -300 q 1025 -277 1094 -300 q 885 -200 956 -254 q 639 158 732 -83 l 594 276 l 267 276 l 193 101 q 186 72 186 83 q 191 48 186 61 q 212 24 196 35 q 247 14 228 14 l 258 14 l 258 0 l -39 0 l -39 14 l -26 14 q 37 33 6 14 q 89 89 68 51 l 399 796 q 283 964 344 918 q 185 1003 232 1003 q 99 989 139 1003 l 96 1003 q 288 1054 196 1054 q 492 965 401 1054 q 649 713 581 878 l 850 215 q 1083 -172 964 -67 q 1183 -232 1132 -215 q 1270 -249 1235 -249 q 1339 -240 1306 -249 l 1340 -254 m 290 336 l 574 336 l 476 593 q 456 647 469 611 q 440 694 443 683 l 290 336 z "},"ā":{"ha":994,"x_min":-40,"x_max":1036,"o":"m 303 1104 l 303 1196 l 683 1196 l 683 1104 l 303 1104 m 1024 14 l 1036 14 l 1036 0 l 593 0 l 593 14 l 606 14 q 651 33 636 14 q 665 68 665 51 q 658 101 665 85 l 590 272 l 265 272 l 193 101 q 186 67 186 83 q 201 33 186 51 q 247 14 215 14 l 258 14 l 258 0 l -39 0 l -39 14 l -26 14 q 38 33 6 14 q 90 92 69 53 l 411 818 q 481 1000 476 956 l 493 1000 l 906 94 q 958 34 926 54 q 1024 14 990 14 m 289 331 l 567 331 l 432 672 l 289 331 z "},"Ă":{"ha":979,"x_min":-39,"x_max":1342,"o":"m 654 1250 q 606 1137 654 1190 q 477 1083 557 1083 q 349 1137 397 1083 q 301 1250 301 1190 q 304 1278 301 1264 l 319 1278 q 378 1219 335 1243 q 477 1194 422 1194 q 576 1219 532 1194 q 635 1278 621 1243 l 651 1278 q 654 1250 654 1264 m 1340 -254 q 1172 -300 1250 -300 q 1025 -277 1094 -300 q 885 -200 956 -254 q 639 158 732 -83 l 594 276 l 267 276 l 193 101 q 186 67 186 83 q 201 33 186 51 q 247 14 217 14 l 258 14 l 258 0 l -39 0 l -39 14 l -26 14 q 37 33 6 14 q 89 89 68 51 l 399 796 q 283 964 344 918 q 185 1003 232 1003 q 99 989 139 1003 l 96 1003 q 288 1054 196 1054 q 492 965 401 1054 q 649 713 581 878 l 850 215 q 978 -43 919 43 q 1097 -182 1047 -147 q 1244 -247 1189 -247 q 1339 -240 1279 -247 l 1340 -254 m 290 336 l 574 336 l 476 593 q 456 647 469 611 q 440 694 443 683 l 290 336 z "},"ă":{"ha":994,"x_min":-40,"x_max":1036,"o":"m 665 1228 q 617 1115 665 1168 q 490 1061 569 1061 q 362 1115 410 1061 q 314 1228 314 1168 q 315 1256 314 1242 l 332 1256 q 390 1197 346 1221 q 490 1172 435 1172 q 589 1197 544 1172 q 647 1256 633 1221 l 664 1256 q 665 1228 665 1242 m 958 34 q 974 24 958 34 q 1024 14 990 14 l 1036 14 l 1036 0 l 593 0 l 593 14 l 606 14 q 651 33 636 14 q 665 68 665 51 q 658 101 665 85 l 590 272 l 265 272 l 193 101 q 186 72 186 83 q 191 48 186 61 q 212 24 196 35 q 247 14 228 14 l 258 14 l 258 0 l -39 0 l -39 14 l -26 14 q 38 33 6 14 q 90 92 69 53 l 411 818 q 481 1000 476 956 l 493 1000 l 906 94 q 958 34 926 54 m 289 331 l 567 331 l 432 672 l 289 331 z "},"Ą":{"ha":971,"x_min":-40,"x_max":1333,"o":"m 1332 -231 q 1144 -271 1239 -271 q 725 -7 890 -271 q 647 -103 647 -25 q 692 -183 647 -158 q 738 -194 713 -194 q 797 -174 764 -194 l 804 -183 q 686 -272 782 -272 q 589 -233 632 -272 q 546 -137 546 -194 q 610 -15 546 -51 q 700 8 650 8 q 715 8 708 8 q 642 158 675 76 l 596 276 l 267 276 l 193 101 q 186 67 186 83 q 201 33 186 51 q 247 14 217 14 l 258 14 l 258 0 l -39 0 l -39 14 l -26 14 q 37 33 6 14 q 89 89 68 51 l 390 776 q 140 974 285 974 q 74 964 107 974 l 69 978 q 269 1029 182 1029 q 424 989 356 1029 q 647 696 554 911 l 853 217 q 1033 -100 951 -14 q 1214 -215 1125 -197 q 1272 -222 1243 -222 q 1331 -217 1301 -222 l 1332 -231 m 290 336 l 572 336 l 472 590 q 435 683 444 660 l 290 336 z "},"ą":{"ha":1008,"x_min":-40,"x_max":1050,"o":"m 1049 0 l 865 8 q 752 -1 796 8 q 688 -36 708 -10 q 668 -100 668 -62 q 695 -163 668 -137 q 760 -189 722 -189 q 831 -158 797 -189 l 839 -167 q 801 -240 832 -212 q 650 -257 743 -290 q 591 -208 613 -243 q 569 -135 569 -174 q 593 -56 569 -83 q 649 -10 617 -29 q 686 39 686 14 q 674 96 686 64 l 601 272 l 268 272 l 193 101 q 186 67 186 83 q 201 33 186 51 q 247 14 215 14 l 258 14 l 258 0 l -39 0 l -39 14 l -26 14 q 42 36 8 14 q 94 101 75 58 l 419 810 q 488 992 483 947 l 500 992 l 918 99 q 1038 15 953 25 l 1049 14 l 1049 0 m 293 331 l 576 331 l 438 668 l 293 331 z "},"Ć":{"ha":1147,"x_min":32,"x_max":1126,"o":"m 608 1058 l 599 1068 q 799 1296 658 1171 q 892 1183 865 1261 q 608 1058 750 1093 m 1122 543 q 1126 438 1126 501 q 1101 284 1126 375 q 1011 124 1076 193 q 644 -19 878 -19 q 197 120 361 -19 q 33 485 33 260 q 199 851 33 711 q 638 992 365 992 q 993 917 850 992 l 996 678 l 985 678 q 750 919 933 869 q 642 933 699 933 q 363 813 467 933 q 260 494 260 692 q 307 261 260 363 q 447 101 354 160 q 664 39 539 42 q 989 169 868 39 q 1110 524 1110 300 q 1110 543 1110 533 l 1122 543 z "},"ć":{"ha":1083,"x_min":61,"x_max":1017,"o":"m 585 1058 l 575 1068 q 775 1296 635 1171 q 869 1183 842 1261 q 585 1058 726 1093 m 636 -19 q 502 -18 636 -19 q 215 117 368 -18 q 63 486 63 251 q 214 856 63 721 q 629 992 365 992 q 975 917 831 992 l 978 678 l 967 678 q 643 933 896 933 q 384 815 479 933 q 289 490 289 696 q 380 164 289 285 q 626 39 471 43 q 872 119 788 39 q 992 406 958 203 l 1003 406 l 1017 167 q 636 -19 904 -19 z "},"Ċ":{"ha":1147,"x_min":32,"x_max":1126,"o":"m 682 1086 q 669 1074 682 1086 q 622 1061 657 1061 q 561 1086 586 1061 q 536 1147 536 1111 q 561 1208 536 1182 q 622 1233 586 1233 q 682 1208 657 1233 q 707 1147 707 1182 q 682 1086 707 1111 m 1122 543 q 1126 438 1126 501 q 1101 284 1126 375 q 1011 124 1076 193 q 644 -19 878 -19 q 197 120 361 -19 q 33 485 33 260 q 199 851 33 711 q 638 992 365 992 q 836 971 742 992 q 993 917 931 950 l 996 678 l 985 678 q 750 919 933 869 q 642 933 699 933 q 363 813 467 933 q 260 492 260 692 q 367 168 260 293 q 664 39 475 43 q 989 169 868 39 q 1110 524 1110 300 q 1110 543 1110 533 l 1122 543 z "},"ċ":{"ha":1083,"x_min":61,"x_max":1017,"o":"m 658 1086 q 646 1074 658 1086 q 598 1061 633 1061 q 538 1086 563 1061 q 513 1147 513 1111 q 538 1208 513 1182 q 598 1233 563 1233 q 658 1208 633 1233 q 683 1147 683 1182 q 658 1086 683 1111 m 636 -19 q 502 -18 636 -19 q 215 117 368 -18 q 63 486 63 251 q 214 856 63 721 q 629 992 365 992 q 975 917 831 992 l 978 678 l 967 678 q 643 933 896 933 q 384 815 479 933 q 289 490 289 696 q 380 164 289 285 q 626 39 471 43 q 872 119 788 39 q 992 406 958 203 l 1003 406 l 1017 167 q 636 -19 904 -19 z "},"Č":{"ha":1147,"x_min":32,"x_max":1126,"o":"m 631 1061 l 615 1061 l 411 1274 l 419 1285 l 624 1194 l 814 1285 l 824 1274 l 631 1061 m 1122 543 q 1126 438 1126 501 q 1101 284 1126 375 q 1011 124 1076 193 q 644 -19 878 -19 q 197 120 361 -19 q 33 485 33 260 q 199 851 33 711 q 638 992 365 992 q 836 971 742 992 q 993 917 931 950 l 996 678 l 985 678 q 750 919 933 869 q 642 933 699 933 q 363 813 467 933 q 260 493 260 692 q 367 169 260 294 q 664 39 475 43 q 989 169 868 39 q 1110 524 1110 300 q 1110 543 1110 533 l 1122 543 z "},"č":{"ha":1083,"x_min":61,"x_max":1017,"o":"m 607 1061 l 592 1061 l 388 1274 l 396 1285 l 600 1194 l 790 1285 l 800 1274 l 607 1061 m 636 -19 q 502 -18 636 -19 q 215 117 368 -18 q 63 486 63 251 q 214 856 63 721 q 629 992 365 992 q 975 917 831 992 l 978 678 l 967 678 q 643 933 896 933 q 384 815 479 933 q 289 490 289 696 q 380 164 289 285 q 626 39 471 43 q 872 119 788 39 q 992 406 958 203 l 1003 406 l 1017 167 q 636 -19 904 -19 z "},"Ď":{"ha":1197,"x_min":-140,"x_max":1138,"o":"m 624 1061 l 608 1061 l 403 1274 l 413 1285 l 617 1194 l 806 1285 l 815 1274 l 624 1061 m 286 974 q 372 974 310 974 q 604 972 435 974 q 993 840 850 971 q 1136 485 1136 710 q 993 131 1136 261 q 604 0 850 0 l 100 0 l 100 14 l 118 14 q 193 56 167 14 q 207 97 206 74 l 207 910 q -24 838 51 899 q -83 778 -61 808 q -125 704 -104 747 l -139 710 q 1 910 -106 849 q 286 974 107 972 m 588 58 q 823 174 736 58 q 910 486 910 289 q 823 797 910 683 q 590 911 736 911 q 588 911 589 911 l 415 911 l 415 58 l 588 58 q 588 58 588 58 z "},"ď":{"ha":1150,"x_min":57,"x_max":1096,"o":"m 583 1061 l 567 1061 l 363 1274 l 372 1285 l 575 1194 l 765 1285 l 775 1274 l 583 1061 m 563 972 q 951 842 808 972 q 1094 486 1094 711 q 951 131 1094 261 q 563 0 808 0 l 58 0 l 58 14 l 76 14 q 138 40 113 14 q 165 101 164 65 l 165 879 q 136 935 161 913 q 76 958 111 958 l 58 958 l 58 972 l 563 972 m 544 58 q 717 110 644 58 q 829 259 790 163 q 868 469 868 356 q 845 663 868 583 q 781 799 822 743 q 544 914 694 914 l 374 914 l 374 58 l 544 58 z "},"Đ":{"ha":1197,"x_min":-140,"x_max":1138,"o":"m 428 1104 l 428 1196 l 810 1196 l 810 1104 l 428 1104 m 286 974 q 372 974 310 974 q 604 972 435 974 q 993 840 850 971 q 1136 485 1136 710 q 993 131 1136 261 q 604 0 850 0 l 100 0 l 100 14 l 118 14 q 178 38 153 14 q 207 97 204 63 l 207 910 q -24 838 51 899 q -83 778 -61 808 q -125 704 -104 747 l -139 710 q 1 910 -106 849 q 286 974 107 972 m 588 58 q 823 174 736 58 q 910 486 910 289 q 823 797 910 683 q 590 911 736 911 q 588 911 589 911 l 415 911 l 415 58 l 588 58 q 588 58 588 58 z "},"đ":{"ha":1150,"x_min":57,"x_max":1096,"o":"m 388 1104 l 388 1196 l 768 1196 l 768 1104 l 388 1104 m 563 972 q 951 842 808 972 q 1094 486 1094 711 q 951 131 1094 261 q 563 0 808 0 l 58 0 l 58 14 l 76 14 q 138 40 113 14 q 165 101 164 65 l 165 879 q 136 935 161 913 q 76 958 111 958 l 58 958 l 58 972 l 563 972 m 544 58 q 717 110 644 58 q 829 259 790 163 q 868 460 868 356 q 853 631 868 564 q 811 751 839 699 q 744 839 783 803 q 544 914 665 914 l 374 914 l 374 58 l 544 58 z "},"Ē":{"ha":931,"x_min":57,"x_max":931,"o":"m 185 1104 l 185 1196 l 565 1196 l 565 1104 l 185 1104 m 76 14 q 138 40 113 14 q 165 101 164 65 l 165 875 q 119 947 161 924 q 76 958 99 958 l 58 958 l 58 972 l 449 972 q 556 982 510 972 q 615 997 601 992 l 615 754 l 600 754 l 600 771 q 538 893 601 857 q 465 913 507 911 l 374 913 l 374 508 l 594 508 q 679 544 646 510 q 713 628 713 578 l 713 640 l 725 640 l 725 319 l 713 319 l 713 331 q 679 415 713 382 q 596 450 646 449 l 374 450 l 374 60 l 644 60 q 815 118 746 60 q 917 283 883 176 l 931 283 l 865 0 l 58 0 l 58 14 l 76 14 z "},"ē":{"ha":876,"x_min":57,"x_max":842,"o":"m 261 1104 l 261 1196 l 642 1196 l 642 1104 l 261 1104 m 76 14 q 138 40 113 14 q 165 101 164 65 l 165 875 q 119 947 161 924 q 76 958 99 958 l 58 958 l 58 972 l 590 972 q 697 982 651 972 q 757 997 743 992 l 757 754 l 743 756 l 743 771 q 706 872 743 833 q 607 913 669 910 l 374 913 l 374 508 l 557 508 q 642 544 608 510 q 675 628 675 578 l 675 640 l 689 640 l 689 319 l 675 319 l 675 331 q 619 433 675 400 q 558 450 592 449 l 374 450 l 374 60 l 556 60 q 726 118 657 60 q 828 283 794 176 l 842 283 l 778 0 l 58 0 l 58 14 l 76 14 z "},"Ė":{"ha":931,"x_min":57,"x_max":931,"o":"m 431 1086 q 418 1074 431 1086 q 370 1061 406 1061 q 310 1086 335 1061 q 285 1147 285 1111 q 310 1208 285 1182 q 370 1233 335 1233 q 431 1208 406 1233 q 456 1147 456 1182 q 431 1086 456 1111 m 76 14 q 138 40 113 14 q 165 101 164 65 l 165 875 q 119 947 161 924 q 76 958 99 958 l 58 958 l 58 972 l 449 972 q 556 982 510 972 q 615 997 601 992 l 615 754 l 600 754 l 600 771 q 565 872 601 833 q 465 913 528 910 l 374 913 l 374 508 l 594 508 q 679 544 646 510 q 713 628 713 578 l 713 640 l 725 640 l 725 319 l 713 319 l 713 331 q 679 415 713 382 q 596 450 646 449 l 374 450 l 374 60 l 644 60 q 815 118 746 60 q 917 283 883 176 l 931 283 l 865 0 l 58 0 l 58 14 l 76 14 z "},"ė":{"ha":876,"x_min":57,"x_max":842,"o":"m 508 1086 q 496 1074 508 1086 q 447 1061 483 1061 q 386 1086 411 1061 q 361 1147 361 1111 q 386 1208 361 1182 q 447 1233 411 1233 q 508 1208 483 1233 q 533 1147 533 1182 q 508 1086 533 1111 m 76 14 q 138 40 113 14 q 165 101 164 65 l 165 875 q 119 947 161 924 q 76 958 99 958 l 58 958 l 58 972 l 590 972 q 685 981 633 972 q 757 997 736 989 l 757 754 l 743 754 l 743 771 q 706 872 743 833 q 607 913 669 910 l 374 913 l 374 508 l 557 508 q 642 544 608 510 q 675 628 675 578 l 675 640 l 689 640 l 689 319 l 675 319 l 675 331 q 619 433 675 400 q 558 450 592 449 l 374 450 l 374 60 l 556 60 q 726 118 657 60 q 828 283 794 176 l 842 283 l 778 0 l 58 0 l 58 14 l 76 14 z "},"Ę":{"ha":931,"x_min":57,"x_max":938,"o":"m 828 -278 q 804 -278 824 -278 q 749 -265 785 -278 q 691 -217 713 -253 q 669 -140 669 -182 q 690 -67 669 -96 q 793 0 725 -14 l 58 0 l 58 14 l 76 14 q 138 40 113 14 q 165 101 164 65 l 165 875 q 119 947 161 924 q 76 958 99 958 l 58 958 l 58 972 l 449 972 q 543 981 492 972 q 615 997 594 989 l 615 754 l 600 754 l 600 771 q 565 872 601 833 q 465 913 528 910 l 374 913 l 374 508 l 594 508 q 679 544 646 510 q 713 628 713 578 l 713 640 l 725 640 l 725 319 l 713 319 l 713 331 q 679 415 713 382 q 596 450 646 449 l 374 450 l 374 60 l 644 60 q 815 118 746 60 q 917 283 883 176 l 931 283 l 865 0 l 863 0 q 768 -100 768 -22 q 825 -192 768 -169 q 867 -197 842 -197 q 929 -167 893 -197 l 938 -175 q 899 -249 931 -221 q 828 -278 868 -276 z "},"ę":{"ha":876,"x_min":57,"x_max":851,"o":"m 742 -278 q 717 -278 738 -278 q 662 -265 697 -278 q 605 -217 626 -253 q 583 -140 583 -182 q 620 -44 583 -78 q 706 0 657 -10 l 58 0 l 58 14 l 76 14 q 138 40 113 14 q 165 101 164 65 l 165 875 q 119 947 161 924 q 76 958 99 958 l 58 958 l 58 972 l 590 972 q 685 981 633 972 q 757 997 736 989 l 757 754 l 743 754 l 743 771 q 706 872 743 833 q 607 913 669 910 l 374 913 l 374 508 l 557 508 q 642 544 608 510 q 675 628 675 578 l 675 640 l 689 640 l 689 319 l 675 319 l 675 331 q 619 433 675 400 q 558 450 592 449 l 374 450 l 374 60 l 556 60 q 726 118 657 60 q 828 283 794 176 l 842 283 l 776 0 q 681 -100 681 -22 q 738 -192 681 -169 q 781 -197 754 -197 q 842 -167 807 -197 l 850 -175 q 812 -249 843 -221 q 742 -278 781 -276 z "},"Ě":{"ha":931,"x_min":57,"x_max":931,"o":"m 379 1061 l 364 1061 l 158 1274 l 168 1285 l 372 1194 l 563 1285 l 571 1274 l 379 1061 m 76 14 q 138 40 113 14 q 165 101 164 65 l 165 875 q 119 947 161 924 q 76 958 99 958 l 58 958 l 58 972 l 449 972 q 556 982 510 972 q 615 997 601 992 l 615 754 l 600 756 l 600 771 q 565 872 601 833 q 465 913 528 910 l 374 913 l 374 508 l 594 508 q 679 544 646 510 q 713 628 713 578 l 713 640 l 725 640 l 725 319 l 713 319 l 713 331 q 679 415 713 382 q 596 450 646 449 l 374 450 l 374 60 l 644 60 q 815 118 746 60 q 917 283 883 176 l 931 283 l 865 0 l 58 0 l 58 14 l 76 14 z "},"ě":{"ha":876,"x_min":57,"x_max":842,"o":"m 457 1061 l 440 1061 l 236 1274 l 246 1285 l 450 1194 l 639 1285 l 649 1274 l 457 1061 m 76 14 q 138 40 113 14 q 165 101 164 65 l 165 875 q 137 934 163 910 q 76 958 111 958 l 58 958 l 58 972 l 590 972 q 697 982 651 972 q 757 997 743 992 l 757 754 l 743 756 l 743 771 q 679 893 743 857 q 607 913 649 911 l 374 913 l 374 508 l 557 508 q 642 544 608 510 q 675 628 675 578 l 675 640 l 689 640 l 689 319 l 675 319 l 675 331 q 642 415 675 382 q 558 450 610 449 l 374 450 l 374 60 l 556 60 q 726 118 657 60 q 828 283 794 176 l 842 283 l 778 0 l 58 0 l 58 14 l 76 14 z "},"Ğ":{"ha":1196,"x_min":40,"x_max":1551,"o":"m 782 1228 q 733 1115 782 1168 q 605 1061 685 1061 q 477 1115 525 1061 q 429 1228 429 1168 q 432 1256 429 1242 l 447 1256 q 506 1197 463 1221 q 596 1172 550 1172 q 675 1183 642 1172 q 763 1256 743 1207 l 779 1256 q 782 1228 782 1242 m 1326 -275 q 1258 -269 1292 -275 q 1029 -167 1124 -249 q 893 35 935 -86 q 611 -19 763 -19 q 201 122 361 -19 q 42 488 42 264 q 203 851 42 711 q 621 992 364 992 q 836 970 732 992 q 1004 917 940 949 l 1007 678 l 996 678 q 867 869 963 804 q 639 933 772 933 q 372 808 475 933 q 268 481 268 682 q 314 252 268 353 q 442 95 360 151 q 621 39 525 39 q 780 76 717 39 q 865 176 843 114 l 865 388 q 796 451 867 451 l 774 451 l 774 465 l 1164 465 l 1164 451 l 1143 451 q 1090 435 1108 451 q 1074 389 1072 418 l 1074 168 q 1108 -3 1075 76 q 1353 -214 1182 -172 q 1448 -225 1399 -225 q 1549 -214 1497 -225 l 1551 -228 q 1326 -275 1432 -275 z "},"ğ":{"ha":1161,"x_min":61,"x_max":1139,"o":"m 763 1228 q 714 1115 763 1168 q 586 1061 665 1061 q 458 1115 507 1061 q 410 1228 410 1168 q 413 1256 410 1242 l 429 1256 q 488 1197 443 1221 q 586 1172 532 1172 q 685 1197 640 1172 q 744 1256 729 1221 l 760 1256 q 763 1228 763 1242 m 1138 451 l 1117 451 q 1065 435 1083 451 q 1047 389 1047 419 l 1047 160 q 790 8 971 60 q 588 -19 693 -19 q 206 117 350 -19 q 63 487 63 254 q 206 856 63 719 q 596 992 350 992 q 811 970 707 992 q 979 917 915 949 l 982 678 l 969 678 q 846 873 933 813 q 638 933 758 933 q 379 813 469 933 q 289 484 289 693 q 372 157 289 275 q 606 39 454 39 q 751 76 685 39 q 842 176 817 113 l 842 389 q 823 435 842 419 q 769 451 804 451 l 747 451 l 747 465 l 1138 465 l 1138 451 z "},"Ġ":{"ha":1196,"x_min":40,"x_max":1551,"o":"m 665 1086 q 653 1074 665 1086 q 605 1061 640 1061 q 544 1086 569 1061 q 519 1147 519 1111 q 544 1208 519 1182 q 605 1233 569 1233 q 665 1208 640 1233 q 690 1147 690 1182 q 665 1086 690 1111 m 1326 -275 q 1258 -269 1292 -275 q 1029 -167 1124 -249 q 893 35 935 -86 q 611 -19 763 -19 q 201 122 361 -19 q 42 486 42 264 q 115 750 42 635 q 319 928 188 865 q 621 992 451 992 q 836 970 732 992 q 1004 917 940 949 l 1007 678 l 996 678 q 867 869 963 804 q 639 933 772 933 q 372 808 475 933 q 268 484 268 682 q 369 163 268 286 q 631 39 471 39 q 780 76 717 39 q 865 176 843 114 l 865 388 q 847 435 865 418 q 796 451 829 451 l 774 451 l 774 465 l 1164 465 l 1164 451 l 1143 451 q 1090 435 1108 451 q 1074 389 1072 418 l 1074 168 q 1108 -3 1075 76 q 1353 -214 1182 -172 q 1448 -225 1399 -225 q 1549 -214 1497 -225 l 1551 -228 q 1326 -275 1432 -275 z "},"ġ":{"ha":1161,"x_min":61,"x_max":1139,"o":"m 646 1086 q 633 1074 646 1086 q 585 1061 621 1061 q 525 1086 550 1061 q 500 1147 500 1111 q 525 1208 500 1182 q 585 1233 550 1233 q 646 1208 621 1233 q 671 1147 671 1182 q 646 1086 671 1111 m 1138 451 l 1117 451 q 1065 435 1083 451 q 1047 389 1047 419 l 1047 160 q 790 8 971 60 q 588 -19 693 -19 q 206 117 350 -19 q 63 487 63 254 q 206 856 63 719 q 596 992 350 992 q 811 970 707 992 q 979 917 915 949 l 982 678 l 969 678 q 846 873 933 813 q 638 933 758 933 q 379 813 469 933 q 289 484 289 693 q 372 157 289 275 q 606 39 454 39 q 789 101 715 39 q 842 176 825 133 l 842 389 q 823 435 842 419 q 769 451 804 451 l 747 451 l 747 465 l 1138 465 l 1138 451 z "},"Ģ":{"ha":1196,"x_min":40,"x_max":1551,"o":"m 1326 -275 q 1258 -269 1292 -275 q 1029 -167 1124 -249 q 893 35 935 -86 q 611 -19 763 -19 q 201 122 361 -19 q 42 486 42 264 q 115 750 42 635 q 319 928 188 865 q 621 992 451 992 q 836 970 732 992 q 1004 917 940 949 l 1007 678 l 996 678 q 867 869 963 804 q 639 933 772 933 q 372 808 475 933 q 268 484 268 682 q 369 163 268 286 q 631 39 471 39 q 780 76 717 39 q 865 176 843 114 l 865 388 q 847 435 865 418 q 796 451 829 451 l 774 451 l 774 465 l 1164 465 l 1164 451 l 1143 451 q 1090 435 1108 451 q 1074 389 1072 418 l 1074 168 q 1108 -3 1075 76 q 1353 -214 1182 -172 q 1448 -225 1399 -225 q 1549 -214 1497 -225 l 1551 -228 q 1326 -275 1432 -275 m 558 -332 q 606 -269 606 -315 q 583 -216 606 -243 q 560 -158 560 -189 q 578 -108 560 -128 q 615 -89 597 -89 q 699 -137 676 -89 q 711 -196 711 -171 q 651 -319 711 -275 q 579 -344 618 -344 q 561 -343 569 -344 l 558 -332 z "},"ģ":{"ha":1161,"x_min":61,"x_max":1139,"o":"m 1138 451 l 1117 451 q 1065 435 1083 451 q 1047 389 1047 419 l 1047 160 q 868 35 993 89 q 588 -19 743 -19 q 206 117 350 -19 q 63 487 63 254 q 206 856 63 719 q 596 992 350 992 q 811 970 707 992 q 979 917 915 949 l 982 678 l 969 678 q 846 873 933 813 q 638 933 758 933 q 379 813 469 933 q 289 484 289 693 q 372 157 289 275 q 606 39 454 39 q 789 101 715 39 q 842 176 825 133 l 842 389 q 823 435 842 419 q 769 451 804 451 l 747 451 l 747 465 l 1138 465 l 1138 451 m 532 -337 q 579 -275 579 -321 q 556 -222 579 -249 q 533 -164 533 -194 q 552 -114 533 -133 q 589 -94 571 -94 q 672 -143 651 -94 q 685 -201 685 -176 q 625 -325 685 -281 q 553 -350 592 -350 q 535 -349 544 -350 l 532 -337 z "},"Ħ":{"ha":1197,"x_min":11,"x_max":1182,"o":"m 726 14 q 789 39 763 14 q 817 100 815 64 l 817 454 l 379 454 l 379 97 q 294 -168 379 -69 q 103 -246 228 -246 q 15 -236 63 -246 l 13 -222 q 144 -94 115 -179 q 171 97 171 -22 l 171 683 l 68 683 l 68 742 l 171 742 l 171 872 q 144 933 169 908 q 82 958 118 958 l 64 958 l 64 972 l 486 972 l 486 958 l 468 958 q 407 934 433 958 q 379 872 381 910 l 379 742 l 817 742 l 817 847 q 918 1106 817 1010 q 1121 1185 999 1185 q 1179 1181 1149 1185 l 1182 1167 q 1040 1006 1068 1126 q 1025 847 1025 943 l 1025 742 l 1117 742 l 1117 683 l 1024 683 l 1024 101 q 1051 40 1025 65 q 1114 14 1076 14 l 1131 14 l 1131 0 l 710 0 l 710 14 l 726 14 m 379 514 l 817 514 l 817 683 l 379 683 l 379 514 z "},"ħ":{"ha":1196,"x_min":57,"x_max":1139,"o":"m 735 14 q 790 32 771 14 q 824 100 822 64 l 824 454 l 374 454 l 374 101 q 400 40 374 65 q 463 14 426 14 l 479 14 l 481 0 l 58 0 l 58 14 l 76 14 q 138 40 113 14 q 165 101 164 65 l 165 683 l 76 683 l 76 742 l 165 742 l 165 872 q 138 933 164 908 q 76 958 113 958 l 58 958 l 58 972 l 481 972 l 479 958 l 463 958 q 400 933 426 958 q 374 872 374 908 l 374 742 l 824 742 l 824 872 q 797 933 822 908 q 735 958 771 958 l 717 958 l 717 972 l 1139 972 l 1139 958 l 1121 958 q 1058 933 1085 958 q 1032 871 1032 907 l 1032 742 l 1125 742 l 1125 683 l 1032 683 l 1032 101 q 1058 40 1032 65 q 1121 14 1085 14 l 1139 14 l 1139 0 l 717 0 l 717 14 l 735 14 m 374 513 l 824 513 l 824 683 l 374 683 l 374 513 z "},"Ī":{"ha":633,"x_min":-62,"x_max":581,"o":"m 179 1104 l 179 1196 l 560 1196 l 560 1104 l 179 1104 m 560 14 l 578 14 l 578 0 l 156 0 l 156 14 l 174 14 q 235 40 210 14 q 263 101 261 65 l 263 915 l 131 910 q 0 813 0 904 q 26 749 0 775 q 97 724 51 724 q 106 724 101 724 l 106 715 q 58 706 78 706 q -37 750 -4 706 q -61 819 -61 781 q -13 920 -61 881 q 135 967 35 960 q 251 972 153 968 q 578 1000 476 981 l 581 986 q 497 946 521 976 q 471 856 472 915 l 471 101 q 498 40 472 65 q 560 14 524 14 z "},"ī":{"ha":536,"x_min":57,"x_max":481,"o":"m 82 1104 l 82 1196 l 463 1196 l 463 1104 l 82 1104 m 76 14 q 138 40 113 14 q 165 101 164 65 l 165 872 q 138 933 164 908 q 76 958 113 958 l 58 958 l 58 972 l 481 972 l 479 958 l 463 958 q 400 933 426 958 q 374 872 374 908 l 374 101 q 400 40 374 65 q 463 14 426 14 l 479 14 l 481 0 l 58 0 l 58 14 l 76 14 z "},"Į":{"ha":633,"x_min":-62,"x_max":581,"o":"m 378 -193 q 420 -199 394 -199 q 482 -168 446 -199 l 490 -176 q 451 -250 483 -222 q 378 -279 418 -279 q 242 -215 282 -279 q 222 -142 222 -182 q 243 -65 222 -96 q 353 0 282 -12 l 156 0 l 156 14 l 174 14 q 235 40 210 14 q 263 101 261 65 l 263 915 l 131 910 q 0 813 0 904 q 26 749 0 775 q 97 724 51 724 q 106 724 101 724 l 106 715 q 58 706 78 706 q -37 750 -4 706 q -61 819 -61 781 q -13 920 -61 881 q 135 967 35 960 q 251 972 153 968 q 578 1000 476 981 l 581 986 q 497 946 521 976 q 471 856 472 915 l 471 101 q 497 40 471 65 q 560 14 524 14 l 578 14 l 578 0 l 411 0 l 415 -1 q 321 -97 321 -24 q 378 -193 321 -171 z "},"į":{"ha":536,"x_min":57,"x_max":481,"o":"m 281 -193 q 313 -200 296 -200 q 385 -168 349 -200 l 393 -176 q 354 -250 386 -222 q 281 -279 321 -279 q 144 -215 185 -279 q 125 -142 125 -182 q 164 -43 125 -78 q 254 0 203 -8 l 58 0 l 58 14 l 76 14 q 138 40 113 14 q 165 101 164 65 l 165 872 q 138 933 164 908 q 76 958 113 958 l 58 958 l 58 972 l 481 972 l 479 958 l 463 958 q 400 933 426 958 q 374 872 374 908 l 374 101 q 400 40 374 65 q 463 14 426 14 l 479 14 l 481 0 l 314 0 q 224 -97 224 -24 q 281 -193 224 -171 z "},"İ":{"ha":633,"x_min":-62,"x_max":581,"o":"m 425 1086 q 413 1074 425 1086 q 365 1061 400 1061 q 304 1086 329 1061 q 279 1147 279 1111 q 304 1208 279 1182 q 365 1233 329 1233 q 425 1208 400 1233 q 450 1147 450 1182 q 425 1086 450 1111 m 560 14 l 578 14 l 578 0 l 156 0 l 156 14 l 174 14 q 235 40 210 14 q 263 101 261 65 l 263 915 l 131 910 q 0 813 0 903 q 26 749 0 775 q 97 724 51 724 q 106 724 101 724 l 106 715 q 58 706 78 706 q -37 750 -4 706 q -61 819 -61 781 q -13 920 -61 881 q 135 967 35 960 q 251 972 153 968 q 578 1000 476 981 l 581 986 q 497 946 521 976 q 471 856 472 915 l 471 101 q 498 40 472 65 q 560 14 524 14 z "},"ı":{"ha":536,"x_min":57,"x_max":481,"o":"m 76 14 q 138 40 113 14 q 165 101 164 65 l 165 872 q 138 933 164 908 q 76 958 113 958 l 58 958 l 58 972 l 481 972 l 479 958 l 463 958 q 400 933 426 958 q 374 872 374 908 l 374 101 q 400 40 374 65 q 463 14 426 14 l 479 14 l 481 0 l 58 0 l 58 14 l 76 14 z "},"Ĳ":{"ha":1175,"x_min":-62,"x_max":1118,"o":"m 560 14 l 578 14 l 578 0 l 156 0 l 156 14 l 174 14 q 235 40 210 14 q 263 101 261 65 l 263 915 l 131 910 q 0 813 0 904 q 26 749 0 775 q 97 724 51 724 q 106 724 101 724 l 106 715 q 58 706 78 706 q -37 750 -4 706 q -61 819 -61 781 q -13 920 -61 881 q 135 967 35 960 q 251 972 153 968 q 578 1000 476 981 l 581 986 q 497 946 521 976 q 471 856 472 915 l 471 101 q 498 40 472 65 q 560 14 524 14 m 1100 958 q 1024 915 1050 958 q 1011 871 1011 896 l 1011 111 q 915 -181 1011 -76 q 710 -275 828 -275 q 524 -224 619 -275 l 528 -210 q 578 -215 554 -215 q 679 -186 635 -215 q 803 115 803 -108 l 803 871 q 776 933 801 907 q 714 958 750 958 l 696 958 l 696 972 l 1118 972 l 1118 958 l 1100 958 z "},"ĳ":{"ha":1069,"x_min":57,"x_max":1021,"o":"m 76 14 q 138 40 113 14 q 165 101 164 65 l 165 872 q 138 933 164 908 q 76 958 113 958 l 58 958 l 58 972 l 481 972 l 479 958 l 463 958 q 400 933 426 958 q 374 872 374 908 l 374 101 q 400 40 374 65 q 463 14 426 14 l 479 14 l 481 0 l 58 0 l 58 14 l 76 14 m 1003 958 q 947 940 967 958 q 914 871 915 908 l 914 42 q 861 -135 914 -57 q 732 -246 808 -212 q 579 -279 656 -279 q 543 -278 561 -279 l 543 -265 q 666 -145 626 -231 q 706 46 706 -60 l 706 871 q 678 933 704 907 q 617 958 653 958 l 599 958 l 599 972 l 1021 972 l 1021 958 l 1003 958 z "},"Ķ":{"ha":1057,"x_min":57,"x_max":1456,"o":"m 76 14 q 138 40 113 14 q 165 101 164 65 l 165 872 q 119 947 164 922 q 76 958 100 958 l 58 958 l 58 972 l 481 972 l 479 958 l 463 958 q 400 933 426 958 q 374 872 374 908 l 374 101 q 400 40 374 65 q 463 14 426 14 l 479 14 l 481 0 l 58 0 l 58 14 l 76 14 m 1456 -236 q 1271 -289 1354 -289 q 1121 -265 1188 -289 q 783 8 956 -206 l 418 458 l 747 894 q 758 919 758 908 q 754 939 758 931 q 715 960 743 960 l 701 960 l 701 972 l 1019 972 l 1019 960 l 1014 960 q 863 893 921 960 l 592 571 l 969 101 q 1207 -140 1096 -65 q 1454 -222 1318 -215 l 1456 -236 m 539 -278 q 586 -215 586 -261 q 563 -162 586 -189 q 540 -104 540 -135 q 559 -54 540 -74 q 596 -35 578 -35 q 679 -83 658 -35 q 692 -142 692 -117 q 632 -265 692 -221 q 560 -290 599 -290 q 542 -289 551 -290 l 539 -278 z "},"ķ":{"ha":1050,"x_min":57,"x_max":1079,"o":"m 76 14 q 138 40 113 14 q 165 101 164 65 l 165 872 q 119 947 164 922 q 76 958 100 958 l 58 958 l 58 972 l 481 972 l 479 958 l 463 958 q 386 915 413 958 q 374 872 374 896 l 374 101 q 400 40 374 65 q 463 14 426 14 l 479 14 l 481 0 l 58 0 l 58 14 l 76 14 m 1079 0 l 965 0 q 667 115 754 0 q 418 458 418 453 l 747 894 q 758 919 758 908 q 754 939 758 931 q 715 960 743 960 l 701 960 l 701 972 l 1019 972 l 1019 960 l 1014 960 q 863 893 921 960 l 592 572 l 938 100 q 1079 14 1001 17 l 1079 0 m 540 -278 q 588 -215 588 -261 q 565 -162 588 -189 q 542 -104 542 -135 q 560 -54 542 -74 q 597 -35 579 -35 q 681 -83 660 -35 q 693 -142 693 -117 q 633 -265 693 -221 q 561 -290 600 -290 q 543 -289 553 -290 l 540 -278 z "},"Ĺ":{"ha":593,"x_min":57,"x_max":1429,"o":"m 256 1058 l 246 1068 q 446 1296 306 1171 q 539 1183 513 1261 q 256 1058 397 1093 m 1186 -193 q 1419 -136 1331 -193 l 1429 -147 q 1311 -262 1378 -219 q 1192 -321 1244 -306 q 1102 -336 1140 -336 q 1010 -331 1064 -336 q 898 -312 957 -325 q 750 -262 839 -299 q 550 -172 638 -217 q 450 -119 463 -126 q 301 -50 353 -71 q 58 0 178 0 l 58 14 l 76 14 q 151 57 126 14 q 165 101 164 76 l 165 871 q 138 933 164 908 q 76 958 113 958 l 58 958 l 58 972 l 481 972 l 479 958 l 465 958 q 400 933 426 958 q 374 871 374 908 l 374 65 q 392 2 374 19 q 432 -22 410 -15 q 1186 -193 954 -193 z "},"ĺ":{"ha":856,"x_min":57,"x_max":842,"o":"m 256 1058 l 246 1068 q 446 1296 306 1171 q 540 1183 513 1261 q 256 1058 397 1093 m 76 14 q 138 40 113 14 q 165 101 164 65 l 165 871 q 119 947 164 922 q 76 958 100 958 l 58 958 l 58 972 l 481 972 l 479 958 l 463 958 q 400 933 426 958 q 374 871 374 907 l 374 60 l 556 60 q 726 118 657 60 q 828 283 794 176 l 842 283 l 778 0 l 58 0 l 58 14 l 76 14 z "},"Ļ":{"ha":593,"x_min":57,"x_max":1429,"o":"m 1186 -193 q 1419 -136 1331 -193 l 1429 -147 q 1132 -331 1310 -312 q 1067 -335 1094 -335 q 1005 -333 1040 -335 q 906 -314 969 -331 q 793 -280 842 -297 q 681 -234 744 -262 q 575 -184 617 -206 q 476 -133 533 -162 q 375 -82 418 -103 q 292 -46 332 -61 q 58 0 178 0 l 58 14 l 76 14 q 138 39 113 14 q 165 101 164 64 l 165 871 q 138 933 164 908 q 76 958 113 958 l 58 958 l 58 972 l 481 972 l 479 958 l 465 958 q 386 915 413 958 q 374 871 374 896 l 374 65 q 392 2 374 19 q 432 -22 410 -15 q 1186 -193 954 -193 m 289 -399 q 336 -336 336 -382 q 314 -283 336 -310 q 292 -225 292 -256 q 310 -176 292 -194 q 346 -157 328 -157 q 429 -204 408 -157 q 442 -262 442 -237 q 383 -386 442 -342 q 310 -411 349 -411 q 293 -410 301 -411 l 289 -399 z "},"ļ":{"ha":856,"x_min":57,"x_max":842,"o":"m 76 14 q 138 40 113 14 q 165 101 164 65 l 165 871 q 138 933 164 907 q 76 958 113 958 l 58 958 l 58 972 l 481 972 l 479 958 l 463 958 q 400 933 426 958 q 374 871 374 907 l 374 60 l 556 60 q 726 118 657 60 q 828 283 794 176 l 842 283 l 778 0 l 58 0 l 58 14 l 76 14 m 392 -332 q 440 -269 440 -315 q 417 -216 440 -243 q 394 -158 394 -189 q 413 -108 394 -128 q 449 -89 432 -89 q 532 -137 511 -89 q 544 -196 544 -171 q 486 -319 544 -275 q 413 -344 453 -344 q 396 -343 404 -344 l 392 -332 z "},"Ľ":{"ha":678,"x_min":57,"x_max":1429,"o":"m 561 739 q 608 803 608 757 q 586 856 608 829 q 564 913 564 882 q 582 963 564 944 q 618 982 600 982 q 701 935 681 982 q 714 876 714 901 q 656 753 714 796 q 582 728 621 728 q 565 728 574 728 l 561 739 m 1242 -292 q 1149 -315 1193 -311 q 1078 -319 1104 -319 q 1019 -317 1053 -319 q 926 -300 985 -315 q 818 -267 867 -285 q 710 -224 769 -250 q 604 -175 650 -197 q 403 -78 467 -107 q 58 0 233 0 l 58 14 l 76 14 q 131 32 113 14 q 165 101 164 64 l 165 871 q 138 933 164 908 q 76 958 113 958 l 58 958 l 58 972 l 481 972 l 479 958 l 463 958 q 399 933 425 958 q 374 871 374 908 l 374 74 q 385 10 374 32 q 432 -22 396 -11 q 872 -159 750 -129 q 1040 -194 993 -189 q 1119 -200 1088 -200 q 1196 -196 1150 -200 q 1419 -136 1276 -190 l 1429 -147 q 1242 -292 1346 -249 z "},"ľ":{"ha":856,"x_min":57,"x_max":842,"o":"m 561 739 q 608 803 608 757 q 586 856 608 829 q 564 913 564 882 q 582 963 564 944 q 618 982 600 982 q 701 935 681 982 q 714 876 714 901 q 656 753 714 796 q 582 728 621 728 q 565 728 574 728 l 561 739 m 76 14 q 138 40 113 14 q 165 101 164 65 l 165 871 q 138 933 164 907 q 76 958 113 958 l 58 958 l 58 972 l 481 972 l 479 958 l 463 958 q 400 933 426 958 q 374 871 374 907 l 374 60 l 556 60 q 726 118 657 60 q 828 283 794 176 l 842 283 l 778 0 l 58 0 l 58 14 l 76 14 z "},"Ŀ":{"ha":761,"x_min":57,"x_max":1429,"o":"m 1242 -292 q 1149 -315 1193 -311 q 1078 -319 1104 -319 q 1019 -317 1053 -319 q 926 -300 985 -315 q 818 -267 867 -285 q 710 -224 769 -250 q 604 -175 650 -197 q 403 -78 467 -107 q 58 0 233 0 l 58 14 l 76 14 q 138 40 113 14 q 165 101 164 65 l 165 871 q 138 933 164 908 q 76 958 113 958 l 58 958 l 58 972 l 481 972 l 479 958 l 463 958 q 399 933 425 958 q 374 871 374 908 l 374 74 q 385 10 374 32 q 432 -22 396 -11 q 872 -159 750 -129 q 1040 -194 993 -189 q 1119 -200 1088 -200 q 1196 -196 1150 -200 q 1419 -136 1276 -190 l 1429 -147 q 1242 -292 1346 -249 m 639 522 q 626 509 639 522 q 578 496 614 496 q 517 522 542 496 q 492 583 492 547 q 517 644 492 618 q 578 669 542 669 q 639 644 614 669 q 664 583 664 618 q 639 522 664 547 z "},"ŀ":{"ha":856,"x_min":57,"x_max":842,"o":"m 76 14 q 138 40 113 14 q 165 101 164 65 l 165 871 q 138 933 164 907 q 76 958 113 958 l 58 958 l 58 972 l 481 972 l 479 958 l 463 958 q 400 933 426 958 q 374 871 374 907 l 374 60 l 556 60 q 726 118 657 60 q 828 283 794 176 l 842 283 l 778 0 l 58 0 l 58 14 l 76 14 m 639 522 q 626 509 639 522 q 578 496 614 496 q 517 522 542 496 q 492 583 492 547 q 517 644 492 618 q 578 669 542 669 q 639 644 614 669 q 664 583 664 618 q 639 522 664 547 z "},"Ł":{"ha":643,"x_min":57,"x_max":1440,"o":"m 1439 -147 q 1325 -250 1388 -211 q 1213 -305 1263 -289 q 1128 -321 1164 -321 q 1047 -317 1093 -321 q 947 -303 1000 -314 q 811 -260 894 -293 q 582 -158 706 -219 q 413 -78 458 -97 q 68 0 243 0 l 68 14 l 86 14 q 149 40 122 14 q 175 101 175 65 l 175 378 l 88 328 l 58 381 l 175 449 l 175 871 q 149 933 175 908 q 86 958 122 958 l 68 958 l 68 972 l 490 972 l 490 958 l 472 958 q 410 933 436 958 q 383 871 385 908 l 383 568 l 540 658 l 569 606 l 383 499 l 383 74 q 394 10 383 32 q 442 -22 406 -11 q 882 -159 761 -129 q 1050 -194 1003 -189 q 1129 -200 1097 -200 q 1207 -196 1161 -200 q 1431 -136 1286 -190 l 1439 -147 z "},"ł":{"ha":856,"x_min":24,"x_max":842,"o":"m 76 14 q 138 40 113 14 q 165 101 164 65 l 165 390 l 54 328 l 25 381 l 165 461 l 165 871 q 138 933 164 907 q 76 958 113 958 l 58 958 l 58 972 l 481 972 l 479 958 l 463 958 q 400 933 426 958 q 374 871 374 907 l 374 582 l 507 658 l 536 606 l 374 511 l 374 60 l 556 60 q 726 118 657 60 q 828 283 794 176 l 842 283 l 778 0 l 58 0 l 58 14 l 76 14 z "},"Ń":{"ha":1201,"x_min":-299,"x_max":1538,"o":"m 557 1058 l 547 1068 q 747 1296 607 1171 q 842 1183 814 1261 q 557 1058 699 1093 m 1297 -145 q 1308 -152 1297 -145 q 1349 -170 1319 -158 q 1405 -187 1378 -182 q 1465 -192 1432 -192 q 1532 -183 1497 -192 l 1538 -197 q 1381 -235 1460 -235 q 1010 -33 1199 -235 l 351 665 l 351 97 q 376 38 351 63 q 436 14 401 14 l 463 14 l 463 0 l 42 0 l 42 14 l 67 14 q 128 38 103 14 q 153 99 153 63 l 153 878 q 50 987 85 956 q -12 1039 15 1018 q -64 1074 -39 1060 q -158 1113 -122 1107 q -224 1118 -193 1118 q -292 1106 -256 1118 l -297 1119 q -140 1164 -221 1164 q 231 956 35 1164 l 851 296 l 851 874 q 825 934 850 910 q 765 958 800 958 l 740 958 l 740 972 l 1161 972 l 1161 958 l 1135 958 q 1075 934 1100 958 q 1049 875 1050 910 l 1049 85 l 1071 63 q 1097 34 1079 54 q 1128 -1 1114 14 q 1163 -37 1142 -15 q 1203 -76 1185 -60 q 1248 -112 1222 -93 q 1297 -145 1274 -132 z "},"ń":{"ha":1201,"x_min":40,"x_max":1161,"o":"m 565 1058 l 556 1068 q 756 1296 615 1171 q 850 1183 822 1261 q 565 1058 707 1093 m 1135 958 q 1075 934 1100 958 q 1049 875 1050 910 l 1049 158 q 1061 1 1049 65 l 1065 -19 l 1053 -19 l 351 649 l 351 97 q 394 25 351 49 q 436 14 414 14 l 463 14 l 463 0 l 42 0 l 42 14 l 67 14 q 128 38 103 14 q 153 99 153 63 l 153 819 q 140 972 153 911 l 138 993 l 150 993 l 851 325 l 851 874 q 825 934 850 910 q 765 958 800 958 l 740 958 l 740 972 l 1161 972 l 1161 958 l 1135 958 z "},"Ņ":{"ha":1201,"x_min":-299,"x_max":1538,"o":"m 1297 -145 q 1308 -152 1297 -145 q 1349 -170 1319 -158 q 1405 -187 1378 -182 q 1465 -192 1432 -192 q 1532 -183 1497 -192 l 1538 -197 q 1381 -235 1460 -235 q 1010 -33 1199 -235 l 351 665 l 351 97 q 376 38 351 63 q 436 14 401 14 l 463 14 l 463 0 l 42 0 l 42 14 l 67 14 q 128 38 103 14 q 153 99 153 63 l 153 878 q 50 987 85 956 q -12 1039 15 1018 q -64 1074 -39 1060 q -158 1113 -122 1107 q -224 1118 -193 1118 q -292 1106 -256 1118 l -297 1119 q -140 1164 -221 1164 q 231 956 35 1164 l 851 296 l 851 874 q 825 934 850 910 q 765 958 800 958 l 740 958 l 740 972 l 1161 972 l 1161 958 l 1135 958 q 1075 934 1100 958 q 1049 875 1050 910 l 1049 85 l 1071 63 q 1097 34 1079 54 q 1128 -1 1114 14 q 1163 -37 1142 -15 q 1203 -76 1185 -60 q 1248 -112 1222 -93 q 1297 -145 1274 -132 m 594 -332 q 643 -269 643 -315 q 620 -216 643 -243 q 597 -158 597 -189 q 616 -108 597 -128 q 651 -89 635 -89 q 735 -137 714 -89 q 747 -196 747 -171 q 689 -319 747 -275 q 617 -344 656 -344 q 599 -343 607 -344 l 594 -332 z "},"ņ":{"ha":1201,"x_min":40,"x_max":1161,"o":"m 1135 958 q 1075 934 1100 958 q 1049 875 1050 910 l 1049 158 q 1061 1 1049 65 l 1065 -19 l 1053 -19 l 351 649 l 351 97 q 376 38 351 63 q 436 14 401 14 l 463 14 l 463 0 l 42 0 l 42 14 l 67 14 q 128 38 103 14 q 153 99 153 63 l 153 819 q 140 972 153 911 l 138 993 l 150 993 l 851 325 l 851 874 q 825 934 850 910 q 765 958 800 958 l 740 958 l 740 972 l 1161 972 l 1161 958 l 1135 958 m 589 -332 q 636 -269 636 -315 q 614 -216 636 -243 q 592 -158 592 -189 q 610 -108 592 -128 q 646 -89 628 -89 q 729 -137 708 -89 q 742 -196 742 -171 q 683 -319 742 -275 q 610 -344 649 -344 q 593 -343 601 -344 l 589 -332 z "},"Ň":{"ha":1201,"x_min":-299,"x_max":1538,"o":"m 579 1061 l 564 1061 l 360 1274 l 368 1285 l 572 1194 l 763 1285 l 772 1274 l 579 1061 m 1297 -145 q 1308 -152 1297 -145 q 1349 -170 1319 -158 q 1405 -187 1378 -182 q 1465 -192 1432 -192 q 1532 -183 1497 -192 l 1538 -197 q 1381 -235 1460 -235 q 1010 -33 1199 -235 l 351 665 l 351 97 q 376 38 351 63 q 436 14 401 14 l 463 14 l 463 0 l 42 0 l 42 14 l 67 14 q 128 38 103 14 q 153 99 153 63 l 153 878 q 49 987 85 956 q -12 1039 14 1018 q -64 1074 -39 1060 q -158 1113 -124 1107 q -224 1118 -193 1118 q -292 1106 -256 1118 l -297 1119 q -140 1164 -221 1164 q 231 956 35 1164 l 851 296 l 851 874 q 825 934 850 910 q 765 958 800 958 l 740 958 l 740 972 l 1161 972 l 1161 958 l 1135 958 q 1075 934 1100 958 q 1049 875 1050 910 l 1049 85 l 1071 63 q 1097 34 1079 54 q 1128 -1 1114 14 q 1163 -37 1142 -15 q 1203 -76 1185 -60 q 1248 -112 1222 -93 q 1297 -145 1274 -132 z "},"ň":{"ha":1201,"x_min":40,"x_max":1161,"o":"m 588 1061 l 572 1061 l 368 1274 l 376 1285 l 581 1194 l 771 1285 l 781 1274 l 588 1061 m 1135 958 q 1075 934 1100 958 q 1049 875 1050 910 l 1049 158 q 1061 1 1049 65 l 1065 -19 l 1053 -19 l 351 649 l 351 97 q 394 25 351 49 q 436 14 414 14 l 463 14 l 463 0 l 42 0 l 42 14 l 67 14 q 128 38 103 14 q 153 99 153 63 l 153 819 q 140 972 153 911 l 138 993 l 150 993 l 851 325 l 851 874 q 825 934 850 910 q 765 958 800 958 l 740 958 l 740 972 l 1161 972 l 1161 958 l 1135 958 z "},"Ŋ":{"ha":1197,"x_min":-339,"x_max":1150,"o":"m -60 1044 q -76 1056 -60 1044 q -125 1083 -93 1068 q -190 1107 -157 1097 q -259 1117 -224 1117 q -332 1104 -294 1117 l -339 1117 q -182 1161 -262 1161 q 189 954 -7 1161 l 854 318 l 854 878 q 829 933 853 910 q 772 957 806 957 l 749 957 l 749 972 l 1149 972 l 1149 957 l 1124 957 q 1070 935 1093 957 q 1047 883 1047 914 l 1047 -21 q 1003 -173 1047 -110 q 901 -258 960 -236 q 803 -281 842 -281 q 739 -278 764 -281 l 732 -267 q 800 -208 776 -235 q 854 19 854 -144 l 854 164 l 336 661 l 336 94 q 378 26 338 49 q 418 15 396 15 l 442 15 l 442 0 l 42 0 l 42 15 l 65 15 q 120 37 97 15 q 144 89 143 58 l 144 851 q 14 987 54 954 q -60 1044 -26 1019 z "},"ŋ":{"ha":1208,"x_min":32,"x_max":1142,"o":"m 1117 957 q 1062 935 1085 957 q 1039 883 1039 914 l 1039 -21 q 995 -173 1039 -110 q 892 -258 951 -236 q 794 -281 833 -281 q 732 -278 756 -281 l 724 -267 q 792 -208 769 -235 q 846 19 846 -144 l 846 164 l 328 657 l 328 94 q 353 39 329 63 q 410 15 376 15 l 433 15 l 433 0 l 33 0 l 33 15 l 58 15 q 114 38 90 15 q 139 94 138 61 l 139 819 q 126 972 139 911 l 122 993 l 136 993 l 846 318 l 846 878 q 821 933 844 910 q 764 957 797 957 l 740 957 l 740 972 l 1140 972 l 1140 957 l 1117 957 z "},"Ō":{"ha":1292,"x_min":40,"x_max":1251,"o":"m 463 1117 l 463 1207 l 843 1207 l 843 1117 l 463 1117 m 461 621 q 436 722 436 674 q 449 810 436 769 q 490 891 461 851 q 572 957 519 931 q 746 994 644 994 q 999 926 879 994 q 1217 681 1156 838 q 1251 496 1251 594 q 1084 122 1251 264 q 648 -19 917 -19 q 210 122 379 -19 q 42 494 42 264 q 140 794 42 667 q 404 967 238 921 l 413 954 q 306 779 342 894 q 269 531 269 664 q 374 172 269 306 q 647 39 478 39 q 919 165 815 39 q 1022 497 1022 290 q 984 723 1022 622 q 874 878 946 824 q 713 933 801 933 q 553 882 614 933 q 467 694 467 808 q 476 621 467 658 l 461 621 z "},"ō":{"ha":1221,"x_min":50,"x_max":1172,"o":"m 425 1117 l 425 1207 l 807 1207 l 807 1117 l 425 1117 m 611 992 q 1019 856 868 992 q 1171 486 1171 719 q 1019 117 1171 253 q 611 -19 868 -19 q 203 117 354 -19 q 51 486 51 253 q 120 755 51 640 q 315 931 189 869 q 611 992 442 992 m 369 159 q 414 99 369 159 q 611 39 458 39 q 853 159 764 39 q 943 486 943 279 q 903 724 943 622 q 788 879 863 825 q 611 933 713 933 q 369 813 458 933 q 279 486 279 693 q 369 159 279 279 z "},"Ő":{"ha":1292,"x_min":40,"x_max":1251,"o":"m 513 1075 l 500 1082 q 668 1310 538 1168 q 772 1219 739 1286 q 513 1075 650 1124 m 756 1075 l 744 1082 q 911 1310 783 1174 q 1017 1219 983 1286 q 756 1075 892 1121 m 461 621 q 436 722 436 674 q 449 810 436 769 q 490 891 461 851 q 572 957 519 931 q 746 994 644 994 q 999 926 879 994 q 1217 681 1156 838 q 1251 496 1251 594 q 1084 122 1251 264 q 648 -19 917 -19 q 210 122 379 -19 q 42 494 42 264 q 140 794 42 667 q 404 967 239 921 l 413 954 q 306 779 342 894 q 269 531 269 664 q 374 172 269 306 q 647 39 478 39 q 919 165 815 39 q 1022 497 1022 290 q 985 723 1022 622 q 874 878 947 824 q 713 933 801 933 q 553 882 614 933 q 467 694 467 808 q 476 621 467 658 l 461 621 z "},"ő":{"ha":1221,"x_min":50,"x_max":1172,"o":"m 476 1075 l 464 1082 q 631 1310 501 1168 q 736 1219 703 1286 q 476 1075 614 1124 m 719 1075 l 708 1082 q 875 1310 747 1174 q 979 1219 946 1286 q 719 1075 854 1121 m 611 992 q 1019 856 868 992 q 1171 486 1171 719 q 1019 117 1171 253 q 611 -19 868 -19 q 203 117 354 -19 q 51 486 51 253 q 120 755 51 640 q 315 931 189 869 q 611 992 442 992 m 369 159 q 414 99 369 159 q 611 39 458 39 q 853 159 764 39 q 943 486 943 279 q 853 813 943 693 q 611 933 764 933 q 369 813 458 933 q 279 486 279 693 q 369 159 279 279 z "},"Œ":{"ha":1460,"x_min":28,"x_max":1460,"o":"m 832 0 q 722 -6 772 0 q 651 -15 671 -12 q 569 -19 608 -19 q 176 117 324 -19 q 29 488 29 254 q 177 856 29 721 q 579 992 325 992 q 717 982 647 992 q 831 972 788 972 l 1124 972 q 1217 981 1167 972 q 1289 997 1268 989 l 1289 754 l 1274 754 l 1274 771 q 1237 872 1274 833 q 1138 913 1200 910 l 956 913 l 956 508 l 1151 508 q 1254 568 1221 510 q 1268 628 1268 594 l 1268 640 l 1282 640 l 1282 319 l 1268 319 l 1268 331 q 1236 415 1269 382 q 1153 450 1203 449 l 956 450 l 956 60 l 1174 60 q 1343 118 1275 60 q 1444 283 1411 176 l 1458 283 l 1394 0 l 832 0 m 749 849 q 699 908 749 882 q 567 933 650 933 q 408 881 483 933 q 290 726 333 829 q 246 486 246 624 q 288 247 246 349 q 406 92 329 146 q 581 39 482 39 q 699 65 649 39 q 749 122 749 90 l 749 849 z "},"œ":{"ha":1494,"x_min":61,"x_max":1461,"o":"m 865 0 q 743 -8 804 0 q 603 -19 650 -19 q 210 117 357 -19 q 63 488 63 254 q 210 856 63 721 q 613 992 358 992 q 751 982 681 992 q 864 972 821 972 l 1210 972 q 1303 981 1253 972 q 1375 997 1354 989 l 1375 754 l 1360 754 l 1360 771 q 1323 872 1360 833 q 1224 913 1286 910 l 989 913 l 989 508 l 1176 508 q 1279 568 1246 510 q 1293 628 1293 594 l 1293 640 l 1307 640 l 1307 319 l 1293 319 l 1293 331 q 1261 415 1294 382 q 1178 450 1228 449 l 989 450 l 989 60 l 1174 60 q 1344 118 1275 60 q 1446 283 1413 176 l 1460 283 l 1396 0 l 865 0 m 615 933 q 374 814 467 933 q 281 483 281 694 q 322 247 281 349 q 440 92 364 146 q 615 39 515 39 q 733 65 683 39 q 783 122 783 90 l 783 849 q 734 908 783 882 q 615 933 685 933 z "},"Ŕ":{"ha":1015,"x_min":61,"x_max":1508,"o":"m 492 1058 l 482 1068 q 682 1296 542 1171 q 776 1183 749 1261 q 492 1058 633 1093 m 1507 -236 q 1276 -290 1399 -290 q 1079 -257 1168 -290 q 753 19 888 -186 q 624 211 718 69 q 501 393 529 353 q 424 475 453 468 l 424 489 q 427 489 425 489 q 432 489 429 489 q 438 489 435 489 q 444 489 440 489 q 451 489 449 489 q 582 521 522 489 q 672 706 672 571 q 617 858 672 804 q 483 911 561 911 l 378 911 l 378 101 q 404 40 378 65 q 467 14 431 14 l 485 14 l 485 0 l 63 0 l 63 14 l 81 14 q 142 39 115 14 q 169 100 168 64 l 169 871 q 124 947 168 922 q 81 958 104 958 l 63 958 l 63 972 l 539 972 q 817 890 718 972 q 894 710 894 826 q 819 520 894 593 q 646 447 743 447 q 628 449 638 447 q 761 342 700 410 q 867 214 811 286 q 967 87 924 142 q 1066 -24 1010 32 q 1190 -128 1122 -81 q 1507 -222 1325 -221 l 1507 -236 z "},"ŕ":{"ha":1036,"x_min":61,"x_max":1096,"o":"m 486 1058 l 476 1068 q 676 1296 536 1171 q 771 1183 743 1261 q 486 1058 628 1093 m 442 911 l 382 911 q 378 911 379 911 l 378 101 q 405 40 379 65 q 467 14 431 14 l 485 14 l 485 0 l 63 0 l 63 14 l 81 14 q 142 39 117 14 q 169 100 168 64 l 169 871 q 142 933 168 907 q 81 958 117 958 l 63 958 l 63 972 l 539 972 q 767 914 674 972 q 842 833 814 885 q 869 697 869 781 q 811 535 869 613 q 642 446 753 457 q 721 399 683 433 q 783 324 758 364 q 1006 38 933 83 q 1096 14 1042 15 l 1096 0 l 960 0 q 763 33 842 0 q 633 144 683 65 q 569 266 608 185 q 518 382 531 347 q 424 475 481 465 l 424 489 l 467 489 q 577 526 529 489 q 642 649 625 564 q 647 694 647 678 q 601 859 647 808 q 483 911 556 910 q 442 911 469 911 z "},"Ŗ":{"ha":1015,"x_min":61,"x_max":1508,"o":"m 1507 -236 q 1276 -290 1399 -290 q 1079 -257 1168 -290 q 753 19 888 -186 q 624 211 718 69 q 501 392 529 353 q 424 475 453 468 l 424 489 q 427 489 425 489 q 432 489 429 489 q 438 489 435 489 q 444 489 440 489 q 451 489 449 489 q 582 521 522 489 q 672 706 672 571 q 617 858 672 804 q 483 911 561 911 l 378 911 l 378 101 q 404 40 378 65 q 467 14 431 14 l 485 14 l 485 0 l 63 0 l 63 14 l 81 14 q 142 39 115 14 q 169 100 168 64 l 169 871 q 142 933 168 907 q 81 958 117 958 l 63 958 l 63 972 l 539 972 q 817 890 718 972 q 894 710 894 826 q 819 520 894 593 q 646 447 743 447 q 628 449 638 447 q 723 381 685 418 q 790 310 761 343 q 838 251 818 276 q 892 183 858 225 q 961 94 925 140 q 1041 1 997 49 q 1138 -90 1085 -47 q 1247 -161 1192 -133 q 1507 -222 1365 -221 l 1507 -236 m 539 -325 q 588 -262 588 -308 q 565 -209 588 -236 q 542 -151 542 -182 q 560 -101 542 -121 q 596 -82 578 -82 q 679 -131 658 -82 q 692 -189 692 -164 q 633 -312 692 -268 q 560 -337 600 -337 q 543 -336 551 -337 l 539 -325 z "},"ŗ":{"ha":1036,"x_min":61,"x_max":1096,"o":"m 442 911 l 382 911 q 378 911 379 911 l 378 101 q 422 25 379 50 q 467 14 443 14 l 485 14 l 485 0 l 63 0 l 63 14 l 81 14 q 157 57 131 14 q 169 100 168 76 l 169 871 q 142 933 168 907 q 81 958 117 958 l 63 958 l 63 972 l 539 972 q 767 914 674 972 q 842 833 814 885 q 869 697 869 781 q 811 535 869 613 q 642 446 753 457 q 783 324 722 419 q 979 58 913 117 q 1096 14 1028 15 l 1096 0 l 960 0 q 763 33 842 0 q 633 144 683 65 q 569 266 608 185 q 518 382 531 347 q 424 475 481 465 l 424 489 l 467 489 q 642 649 610 490 q 647 694 647 678 q 601 859 647 808 q 483 911 556 910 q 442 911 469 911 m 540 -332 q 588 -269 588 -315 q 565 -216 588 -243 q 543 -158 543 -189 q 561 -108 543 -128 q 597 -89 579 -89 q 681 -137 660 -89 q 693 -196 693 -171 q 635 -319 693 -275 q 561 -344 600 -344 q 544 -343 553 -344 l 540 -332 z "},"Ř":{"ha":1015,"x_min":61,"x_max":1508,"o":"m 515 1061 l 499 1061 l 294 1274 l 304 1285 l 508 1194 l 697 1285 l 707 1274 l 515 1061 m 1507 -236 q 1276 -290 1399 -290 q 1079 -257 1168 -290 q 753 19 888 -186 q 624 211 718 69 q 501 392 529 353 q 424 475 453 468 l 424 489 q 428 489 425 489 q 436 489 432 489 q 446 489 440 489 q 582 521 521 488 q 672 706 672 571 q 617 858 672 804 q 483 911 561 911 l 378 911 l 378 101 q 404 40 378 65 q 467 14 431 14 l 485 14 l 485 0 l 63 0 l 63 14 l 81 14 q 142 39 115 14 q 169 100 168 64 l 169 871 q 142 933 168 907 q 81 958 117 958 l 63 958 l 63 972 l 539 972 q 817 890 718 972 q 894 710 894 826 q 819 520 894 593 q 646 447 743 447 q 628 449 638 447 q 723 381 685 418 q 790 310 761 343 q 838 251 818 276 q 892 183 858 225 q 961 94 925 140 q 1041 1 997 49 q 1138 -90 1085 -47 q 1246 -161 1192 -133 q 1507 -222 1365 -221 l 1507 -236 z "},"ř":{"ha":1036,"x_min":61,"x_max":1096,"o":"m 510 1061 l 493 1061 l 289 1274 l 299 1285 l 501 1194 l 692 1285 l 701 1274 l 510 1061 m 442 911 l 381 911 q 378 911 379 911 l 378 101 q 405 40 379 65 q 467 14 431 14 l 485 14 l 485 0 l 63 0 l 63 14 l 81 14 q 142 39 117 14 q 169 100 168 64 l 169 871 q 142 933 168 907 q 81 958 117 958 l 63 958 l 63 972 l 539 972 q 767 914 674 972 q 842 833 814 885 q 869 697 869 781 q 811 535 869 613 q 642 446 753 457 q 783 324 722 419 q 1004 39 933 85 q 1096 14 1042 15 l 1096 0 l 960 0 q 763 33 842 0 q 633 144 683 65 q 569 266 608 185 q 518 382 531 347 q 424 475 481 465 l 424 489 l 467 489 q 642 649 610 490 q 647 694 647 678 q 601 859 647 808 q 483 911 556 910 q 442 911 469 911 z "},"Ś":{"ha":865,"x_min":35,"x_max":826,"o":"m 426 1058 l 417 1068 q 617 1296 476 1171 q 710 1183 683 1261 q 426 1058 568 1093 m 131 394 q 75 214 75 307 q 107 86 75 142 q 178 -1 139 31 q 385 -72 264 -72 q 518 -44 460 -72 q 635 142 635 13 q 602 244 635 190 q 504 342 569 299 l 268 500 q 131 722 131 586 q 132 750 131 736 q 217 924 140 857 q 424 992 294 992 q 615 978 503 992 l 701 978 l 683 774 l 671 774 q 615 890 669 846 q 472 933 561 933 q 315 868 364 933 q 292 796 292 835 q 315 730 292 757 q 390 671 339 703 l 650 501 q 774 381 729 450 q 826 213 826 299 q 803 95 826 157 q 728 -19 781 33 q 594 -106 676 -72 q 413 -139 513 -139 q 233 -104 314 -139 q 44 114 85 -42 q 36 183 36 147 q 118 404 36 300 l 131 394 z "},"ś":{"ha":803,"x_min":68,"x_max":739,"o":"m 390 1058 l 381 1068 q 581 1296 440 1171 q 675 1183 647 1261 q 390 1058 532 1093 m 69 129 q 113 300 69 229 l 125 300 q 124 278 124 289 q 192 110 124 182 q 381 39 261 39 q 526 83 474 39 q 578 196 578 128 q 467 339 578 278 l 225 499 q 122 599 153 540 q 90 719 90 658 q 173 921 90 850 q 385 992 256 992 q 574 978 461 992 l 661 978 l 643 774 l 629 774 q 576 890 629 846 q 433 933 522 933 q 276 867 325 933 q 251 794 251 835 q 349 671 251 728 l 614 499 q 739 286 739 426 q 638 59 739 138 q 371 -19 538 -19 q 197 3 276 -19 q 79 65 117 26 q 69 129 69 92 z "},"Ş":{"ha":865,"x_min":36,"x_max":826,"o":"m 131 394 q 75 213 75 306 q 149 28 75 111 q 251 -46 189 -19 q 386 -72 313 -72 q 518 -44 460 -72 q 635 142 635 13 q 602 244 635 190 q 504 342 569 299 l 268 500 q 131 722 131 586 q 132 750 131 736 q 217 924 140 857 q 424 992 294 992 q 615 978 503 992 l 701 978 l 683 774 l 671 774 q 615 890 669 846 q 472 933 561 933 q 315 868 364 933 q 292 796 292 835 q 315 730 292 757 q 390 671 339 703 l 650 501 q 771 386 726 453 q 826 213 826 303 q 743 -4 826 90 q 622 -94 697 -57 q 457 -137 547 -131 l 399 -204 q 446 -197 419 -197 q 540 -233 513 -197 q 557 -283 557 -253 q 478 -393 557 -357 q 396 -412 435 -412 q 321 -400 357 -412 l 322 -386 q 415 -360 372 -386 q 458 -283 458 -335 q 438 -243 458 -258 q 388 -228 417 -228 q 331 -237 358 -228 l 324 -224 l 389 -139 q 185 -79 271 -133 q 38 179 38 15 q 118 404 38 301 l 131 394 z "},"ş":{"ha":803,"x_min":68,"x_max":739,"o":"m 69 129 q 113 300 69 229 l 125 300 q 124 278 124 289 q 192 110 124 182 q 381 39 261 39 q 526 83 474 39 q 578 196 578 128 q 467 339 578 278 l 225 499 q 122 599 153 540 q 90 719 90 658 q 173 921 90 850 q 385 992 256 992 q 574 978 461 992 l 661 978 l 643 774 l 629 774 q 576 890 629 846 q 433 933 522 933 q 276 867 325 933 q 251 794 251 835 q 349 671 251 728 l 614 499 q 739 286 739 426 q 651 71 739 149 q 418 -18 564 -7 l 360 -85 q 407 -78 381 -78 q 501 -114 474 -78 q 518 -164 518 -133 q 439 -274 518 -237 q 357 -293 396 -293 q 282 -281 318 -293 l 283 -267 q 376 -241 333 -267 q 419 -164 419 -215 q 399 -124 419 -139 q 349 -108 378 -108 q 292 -118 319 -108 l 285 -104 l 350 -19 q 188 6 261 -17 q 79 65 115 29 q 69 129 69 92 z "},"Š":{"ha":865,"x_min":35,"x_max":826,"o":"m 449 1061 l 433 1061 l 229 1274 l 238 1285 l 442 1194 l 632 1285 l 642 1274 l 449 1061 m 131 394 q 75 217 75 307 q 160 15 75 99 q 385 -72 249 -72 q 518 -44 460 -72 q 635 142 635 13 q 602 244 635 190 q 504 342 569 299 l 268 500 q 131 722 131 586 q 132 750 131 736 q 217 924 140 857 q 424 992 294 992 q 615 978 503 992 l 701 978 l 683 774 l 671 774 q 615 890 669 846 q 477 933 561 933 q 342 894 393 933 q 292 792 292 856 q 315 730 292 757 q 390 671 339 703 l 650 501 q 774 381 729 450 q 826 213 826 299 q 803 95 826 157 q 728 -19 781 33 q 594 -106 676 -72 q 413 -139 513 -139 q 233 -104 314 -139 q 44 114 85 -42 q 36 183 36 147 q 118 404 36 300 l 131 394 z "},"š":{"ha":803,"x_min":68,"x_max":739,"o":"m 414 1061 l 397 1061 l 193 1274 l 203 1285 l 406 1194 l 596 1285 l 606 1274 l 414 1061 m 69 129 q 113 300 69 229 l 125 300 q 124 278 124 289 q 192 110 124 182 q 381 39 261 39 q 526 83 474 39 q 578 196 578 128 q 467 339 578 278 l 225 499 q 122 599 153 540 q 90 719 90 658 q 173 921 90 850 q 385 992 256 992 q 574 978 461 992 l 661 978 l 643 774 l 629 774 q 576 890 629 846 q 433 933 522 933 q 276 867 325 933 q 251 794 251 835 q 349 671 251 728 l 614 499 q 739 286 739 426 q 638 59 739 138 q 371 -19 538 -19 q 197 3 276 -19 q 79 65 117 26 q 69 129 69 92 z "},"Ţ":{"ha":969,"x_min":-104,"x_max":951,"o":"m -36 649 q -104 789 -104 714 q -67 890 -104 847 q 132 974 4 974 l 786 974 q 880 982 829 974 q 951 999 931 990 l 951 757 l 938 757 l 938 774 q 872 896 938 860 q 799 915 840 914 l 611 915 l 611 100 q 638 39 613 64 q 700 14 664 14 l 718 14 l 718 0 l 533 0 l 475 -67 q 560 -62 519 -51 q 633 -151 633 -82 q 554 -256 633 -219 q 472 -275 511 -275 q 397 -262 433 -275 l 399 -249 q 492 -223 449 -249 q 535 -146 535 -197 q 514 -106 535 -121 q 464 -90 493 -90 q 407 -100 435 -90 l 400 -86 l 467 0 l 296 0 l 296 14 l 314 14 q 376 39 350 14 q 403 99 401 64 l 403 915 l 132 915 q 32 894 75 915 q -56 764 -56 853 q -22 656 -56 711 l -36 649 z "},"ţ":{"ha":925,"x_min":18,"x_max":908,"o":"m 458 -144 q 438 -104 458 -119 q 388 -89 417 -89 q 331 -99 358 -89 l 324 -85 l 389 0 l 253 0 l 253 14 l 271 14 q 331 39 306 14 q 360 99 357 64 l 360 915 l 172 915 q 71 875 108 914 q 33 774 33 836 l 33 757 l 19 757 l 19 999 q 90 982 40 990 q 183 974 140 974 l 743 974 q 837 982 786 974 q 907 999 888 990 l 907 757 l 893 757 l 893 774 q 828 896 893 860 q 754 915 797 914 l 568 915 l 568 100 q 595 39 569 64 q 657 14 621 14 l 674 14 l 675 0 l 456 0 l 399 -65 q 446 -58 419 -58 q 540 -94 513 -58 q 557 -144 557 -114 q 478 -254 557 -218 q 396 -274 435 -274 q 321 -261 357 -274 l 322 -247 q 415 -222 372 -247 q 458 -144 458 -196 z "},"Ť":{"ha":969,"x_min":-104,"x_max":951,"o":"m 517 1026 l 500 1026 l 296 1239 l 306 1250 l 510 1160 l 699 1250 l 708 1239 l 517 1026 m -36 649 q -104 789 -104 714 q -67 890 -104 847 q 132 974 4 974 l 786 974 q 880 982 829 974 q 951 999 931 990 l 951 757 l 938 757 l 938 774 q 872 896 938 860 q 799 915 840 914 l 611 915 l 611 100 q 638 39 613 64 q 700 14 664 14 l 718 14 l 718 0 l 296 0 l 296 14 l 314 14 q 376 39 350 14 q 403 99 401 64 l 403 915 l 132 915 q 32 894 75 915 q -56 764 -56 853 q -22 656 -56 711 l -36 649 z "},"ť":{"ha":925,"x_min":18,"x_max":908,"o":"m 472 1061 l 457 1061 l 251 1274 l 261 1285 l 465 1194 l 656 1285 l 664 1274 l 472 1061 m 568 915 l 568 100 q 595 39 569 64 q 657 14 621 14 l 674 14 l 675 0 l 253 0 l 253 14 l 271 14 q 331 39 306 14 q 360 99 357 64 l 360 915 l 172 915 q 71 875 108 914 q 33 774 33 836 l 33 757 l 19 757 l 19 999 q 90 982 39 990 q 183 974 140 974 l 743 974 q 837 982 786 974 q 907 999 888 990 l 907 757 l 893 757 l 893 774 q 828 896 893 860 q 754 915 797 914 l 568 915 z "},"Ŧ":{"ha":969,"x_min":-106,"x_max":951,"o":"m -36 649 q -104 790 -104 714 q -68 890 -104 847 q 132 974 3 974 l 786 974 q 893 984 847 975 q 951 999 939 993 l 951 757 l 938 757 l 938 774 q 900 875 938 836 q 799 915 863 914 l 611 915 l 611 542 l 826 542 l 826 488 l 611 488 l 611 100 q 657 25 614 50 q 700 14 676 14 l 718 14 l 718 0 l 296 0 l 296 14 l 314 14 q 376 39 350 14 q 403 99 401 64 l 403 488 l 189 488 l 189 542 l 403 542 l 403 915 l 132 915 q 32 894 75 915 q -56 764 -56 853 q -22 656 -56 711 l -36 649 z "},"ŧ":{"ha":925,"x_min":18,"x_max":908,"o":"m 568 915 l 568 558 l 783 558 l 783 500 l 568 500 l 568 100 q 595 39 569 64 q 657 14 621 14 l 674 14 l 675 0 l 253 0 l 253 14 l 271 14 q 331 39 306 14 q 360 99 357 64 l 360 500 l 144 500 l 144 558 l 360 558 l 360 915 l 172 915 q 71 875 108 914 q 33 774 33 836 l 33 757 l 19 757 l 19 999 q 90 982 39 990 q 183 974 140 974 l 743 974 q 854 985 811 975 q 907 999 897 994 l 907 757 l 893 757 l 893 774 q 856 875 893 836 q 754 915 818 914 l 568 915 z "},"Ū":{"ha":1144,"x_min":51,"x_max":1301,"o":"m 1264 1254 q 1301 1253 1282 1254 l 1301 1239 q 1065 1083 1138 1226 q 1018 847 1018 990 l 1018 351 q 906 78 1015 176 q 592 -19 796 -19 q 268 81 389 -19 q 149 350 147 182 l 149 890 q 127 939 149 919 q 75 958 106 958 l 53 958 l 53 972 l 453 972 l 453 958 l 431 958 q 367 925 388 958 q 357 892 357 910 l 357 361 q 433 128 357 214 q 635 42 510 42 q 636 42 636 42 q 638 42 636 42 q 840 122 761 42 q 919 343 919 203 l 919 847 q 1019 1144 919 1035 q 1264 1254 1118 1254 m 465 1104 l 465 1196 l 846 1196 l 846 1104 l 465 1104 z "},"ū":{"ha":1140,"x_min":51,"x_max":1097,"o":"m 440 1104 l 440 1196 l 821 1196 l 821 1104 l 440 1104 m 1097 958 l 1074 958 q 1023 940 1044 958 q 1001 893 1001 921 l 1001 351 q 894 81 1001 181 q 601 -19 788 -19 q 265 78 382 -19 q 149 350 149 176 l 149 889 q 111 950 147 931 q 75 958 94 958 l 53 958 l 53 972 l 453 972 l 453 958 l 431 958 q 379 940 400 958 q 357 892 358 921 l 357 361 q 429 128 357 214 q 628 42 501 42 q 828 123 754 42 q 903 343 901 204 l 903 892 q 881 940 903 921 q 829 958 860 958 l 807 958 l 807 972 l 1097 972 l 1097 958 z "},"Ů":{"ha":1144,"x_min":51,"x_max":1301,"o":"m 500 1176 q 500 1201 500 1176 q 543 1260 500 1226 q 651 1293 586 1293 q 759 1261 717 1293 q 801 1178 801 1229 q 758 1094 801 1128 q 651 1061 715 1061 q 543 1094 586 1061 q 500 1176 500 1126 m 1264 1254 q 1301 1253 1282 1254 l 1301 1239 q 1092 1126 1165 1228 q 1018 847 1018 1025 l 1018 351 q 906 78 1015 176 q 592 -19 796 -19 q 268 81 389 -19 q 149 350 147 182 l 149 890 q 127 939 149 919 q 75 958 106 958 l 53 958 l 53 972 l 453 972 l 453 958 l 431 958 q 379 939 400 958 q 357 892 358 919 l 357 361 q 433 128 357 214 q 635 42 510 42 q 636 42 636 42 q 638 42 636 42 q 840 122 761 42 q 919 343 919 203 l 919 847 q 1019 1144 919 1035 q 1264 1254 1118 1254 m 721 1176 q 721 1194 721 1176 q 701 1235 721 1213 q 651 1258 681 1258 q 601 1235 621 1258 q 581 1176 581 1213 q 601 1118 581 1140 q 651 1096 621 1096 q 701 1118 681 1096 q 721 1176 721 1140 z "},"ů":{"ha":1140,"x_min":51,"x_max":1097,"o":"m 475 1176 q 475 1201 475 1176 q 518 1260 475 1226 q 626 1293 561 1293 q 734 1261 692 1293 q 776 1178 776 1229 q 733 1094 776 1128 q 626 1061 690 1061 q 518 1094 561 1061 q 475 1176 475 1126 m 696 1170 q 696 1191 696 1170 q 676 1235 696 1213 q 626 1258 656 1258 q 576 1235 596 1258 q 556 1183 556 1213 q 565 1134 556 1153 q 590 1106 574 1115 q 626 1096 606 1096 q 661 1106 646 1096 q 696 1170 696 1128 m 1097 958 l 1074 958 q 1011 926 1032 958 q 1001 893 1001 911 l 1001 351 q 894 81 1001 181 q 601 -19 788 -19 q 265 78 382 -19 q 149 350 149 176 l 149 889 q 127 939 149 919 q 75 958 106 958 l 53 958 l 53 972 l 453 972 l 453 958 l 431 958 q 379 940 400 958 q 357 892 358 921 l 357 361 q 429 128 357 214 q 628 42 501 42 q 828 123 754 42 q 903 343 901 204 l 903 892 q 881 940 903 921 q 829 958 860 958 l 807 958 l 807 972 l 1097 972 l 1097 958 z "},"Ű":{"ha":1144,"x_min":51,"x_max":1301,"o":"m 515 1064 l 504 1071 q 671 1299 542 1156 q 776 1207 742 1274 q 515 1064 653 1111 m 760 1064 l 747 1071 q 914 1299 786 1161 q 1019 1207 986 1275 q 760 1064 894 1110 m 1265 1254 q 1301 1253 1283 1254 l 1301 1239 q 1092 1126 1165 1228 q 1018 847 1018 1025 l 1018 351 q 824 25 1015 114 q 597 -19 729 -19 q 268 81 389 -19 q 149 350 147 182 l 149 890 q 127 939 149 919 q 75 958 106 958 l 53 958 l 53 972 l 453 972 l 453 958 l 431 958 q 367 925 388 958 q 357 892 358 910 l 357 361 q 433 128 357 214 q 635 42 510 42 q 636 42 636 42 q 638 42 636 42 q 839 121 761 42 q 919 343 919 201 l 919 847 q 966 1065 919 969 q 1093 1207 1013 1160 q 1265 1254 1174 1254 z "},"ű":{"ha":1140,"x_min":51,"x_max":1097,"o":"m 490 1064 l 478 1071 q 646 1299 515 1156 q 750 1207 717 1274 q 490 1064 628 1111 m 735 1064 l 722 1071 q 889 1299 761 1161 q 994 1207 961 1275 q 735 1064 869 1110 m 1097 958 l 1075 958 q 1023 940 1044 958 q 1001 893 1001 921 l 1001 351 q 894 81 1001 181 q 601 -19 788 -19 q 265 78 382 -19 q 149 350 149 176 l 149 889 q 111 950 147 931 q 75 958 94 958 l 53 958 l 53 972 l 453 972 l 453 958 l 431 958 q 379 940 400 958 q 357 892 358 921 l 357 361 q 429 128 357 214 q 626 42 501 42 q 828 123 754 42 q 903 343 901 204 l 903 892 q 881 940 903 921 q 829 958 860 958 l 807 958 l 807 972 l 1097 972 l 1097 958 z "},"Ų":{"ha":1144,"x_min":51,"x_max":1301,"o":"m 1264 1254 q 1301 1253 1282 1254 l 1301 1239 q 1092 1127 1165 1229 q 1018 847 1018 1025 l 1018 351 q 924 96 1017 192 q 663 -17 832 0 q 569 -117 569 -39 q 626 -208 569 -186 q 669 -214 643 -214 q 731 -183 694 -214 l 739 -192 q 700 -265 732 -237 q 626 -294 667 -294 q 490 -231 531 -294 q 471 -157 471 -197 q 503 -65 471 -99 q 581 -19 536 -32 q 263 85 379 -15 q 149 350 147 185 l 149 890 q 127 939 149 919 q 75 958 106 958 l 53 958 l 53 972 l 453 972 l 453 958 l 431 958 q 367 925 388 958 q 357 892 357 910 l 357 361 q 433 128 357 214 q 635 42 510 42 q 636 42 636 42 q 638 42 636 42 q 840 122 761 42 q 919 343 919 203 l 919 847 q 1019 1144 919 1035 q 1264 1254 1118 1254 z "},"ų":{"ha":1140,"x_min":51,"x_max":1097,"o":"m 1097 958 l 1074 958 q 1007 919 1026 958 q 1001 893 1001 907 l 1001 351 q 908 94 1001 192 q 650 -18 815 -4 q 561 -117 561 -40 q 618 -208 561 -186 q 660 -214 635 -214 q 722 -183 686 -214 l 731 -192 q 692 -265 724 -237 q 543 -282 635 -315 q 484 -233 506 -268 q 463 -157 463 -197 q 495 -65 463 -99 q 574 -19 528 -32 q 258 85 367 -12 q 149 350 149 182 l 149 889 q 127 939 149 919 q 75 958 106 958 l 53 958 l 53 972 l 453 972 l 453 958 l 431 958 q 379 940 400 958 q 357 892 358 921 l 357 361 q 429 128 357 214 q 628 42 501 42 q 828 123 754 42 q 903 343 901 204 l 903 892 q 881 940 903 921 q 829 958 860 958 l 807 958 l 807 972 l 1097 972 l 1097 958 z "},"Ŵ":{"ha":1333,"x_min":-47,"x_max":1668,"o":"m 1499 1297 q 1603 1314 1563 1314 q 1667 1311 1643 1314 l 1667 1297 q 1375 1131 1485 1288 q 1283 943 1318 1050 l 1022 129 q 999 -12 999 53 q 999 -25 999 -19 l 985 -25 l 683 644 l 436 57 q 326 -121 399 -35 q 138 -242 249 -212 q 82 -250 111 -250 q 19 -240 53 -250 l 21 -226 q 274 -56 158 -219 q 365 111 328 21 l 83 878 q 32 938 65 918 q -36 958 -1 958 l -47 958 l -47 972 l 376 972 l 376 958 l 364 958 q 320 940 335 958 q 306 904 306 921 q 311 872 306 888 l 482 390 l 733 994 l 746 993 l 1022 383 l 1182 943 q 1292 1157 1217 1064 q 1499 1297 1379 1267 m 732 1271 l 747 1271 l 960 1058 l 950 1047 l 739 1138 l 540 1047 l 532 1058 l 732 1271 z "},"ŵ":{"ha":1349,"x_min":-47,"x_max":1389,"o":"m 726 1276 l 742 1276 l 954 1064 l 944 1053 l 733 1143 l 535 1053 l 525 1064 l 726 1276 m 1389 958 l 1376 958 q 1306 938 1342 958 q 1256 878 1271 917 l 1022 129 q 999 -12 999 53 q 999 -25 999 -19 l 985 -25 l 682 646 l 463 129 q 429 -25 431 49 l 415 -25 l 83 878 q 7 950 60 932 q -36 958 -14 958 l -47 958 l -47 972 l 376 972 l 376 958 l 364 958 q 320 940 335 958 q 306 904 306 921 q 311 871 306 888 l 482 389 l 733 994 l 746 993 l 1022 383 l 1161 872 q 1165 904 1165 888 q 1152 940 1165 921 q 1108 958 1139 958 l 1096 958 l 1096 972 l 1389 972 l 1389 958 z "},"Ŷ":{"ha":926,"x_min":-93,"x_max":985,"o":"m 479 1271 l 494 1271 l 708 1058 l 699 1047 l 486 1138 l 289 1047 l 279 1058 l 479 1271 m -93 1053 q -23 1054 -71 1054 q 103 1034 25 1054 q 249 971 182 1014 q 371 867 315 928 q 532 593 474 753 q 749 957 615 831 q 972 1053 850 1053 q 983 1053 978 1053 l 983 1039 q 840 966 914 1038 q 710 793 765 894 q 616 582 654 692 q 571 392 578 472 l 571 101 q 597 40 571 67 q 660 14 622 14 l 678 14 l 678 0 l 256 0 l 256 14 l 274 14 q 335 40 310 14 q 363 101 361 65 l 363 393 q 263 711 346 543 q 47 988 167 906 q -93 1039 -22 1036 l -93 1053 z "},"ŷ":{"ha":975,"x_min":-43,"x_max":1021,"o":"m 546 1271 l 561 1271 l 774 1058 l 764 1047 l 553 1138 l 354 1047 l 344 1058 l 546 1271 m 689 972 l 1019 972 l 1019 958 l 1000 958 q 921 935 958 958 q 861 878 883 911 l 588 442 l 588 101 q 632 25 588 50 q 676 14 653 14 l 693 14 l 694 0 l 272 0 l 272 14 l 290 14 q 352 39 326 14 q 379 100 378 64 l 379 443 l 114 879 q 55 935 93 913 q -24 958 17 958 l -43 958 l -43 972 l 417 972 l 417 958 l 399 958 q 351 931 368 958 q 343 901 343 915 q 350 872 343 886 l 549 511 l 754 872 q 763 901 763 886 q 753 929 763 915 q 706 958 736 958 l 689 958 l 689 972 z "},"Ÿ":{"ha":926,"x_min":-93,"x_max":985,"o":"m 383 1078 q 370 1066 383 1078 q 324 1054 358 1054 q 265 1078 289 1054 q 240 1138 240 1103 q 265 1197 240 1172 q 324 1221 289 1221 q 383 1197 358 1221 q 407 1138 407 1172 q 383 1078 407 1103 m 706 1078 q 694 1066 706 1078 q 647 1054 682 1054 q 588 1078 613 1054 q 564 1138 564 1103 q 588 1197 564 1172 q 647 1221 613 1221 q 706 1197 682 1221 q 731 1138 731 1172 q 706 1078 731 1103 m -93 1053 q -23 1054 -71 1054 q 103 1034 25 1054 q 249 971 182 1014 q 371 867 315 928 q 532 593 474 753 q 749 957 615 831 q 972 1053 850 1053 q 983 1053 978 1053 l 983 1039 q 886 1004 936 1038 q 793 917 836 971 q 710 794 750 863 q 642 653 671 725 q 571 392 579 500 l 571 101 q 597 40 571 67 q 660 14 622 14 l 678 14 l 678 0 l 256 0 l 256 14 l 274 14 q 335 40 310 14 q 363 101 361 65 l 363 393 q 263 711 346 543 q 47 988 167 906 q -93 1039 -22 1036 l -93 1053 z "},"Ź":{"ha":901,"x_min":61,"x_max":1468,"o":"m 444 1058 l 435 1068 q 635 1296 494 1171 q 729 1183 703 1261 q 444 1058 586 1093 m 1467 -156 q 1347 -260 1413 -221 q 1221 -310 1281 -299 q 1124 -321 1161 -321 q 1038 -318 1086 -321 q 915 -295 990 -315 q 760 -247 840 -275 q 606 -186 679 -219 q 456 -120 532 -153 q 314 -61 379 -87 q 72 0 169 -1 l 63 0 l 63 13 l 572 915 l 236 915 q 134 876 172 914 q 96 774 96 838 l 96 757 l 82 757 l 82 999 q 155 982 103 990 q 228 974 207 974 q 250 974 250 974 l 693 974 q 792 981 751 974 q 839 992 832 988 l 839 979 l 297 11 l 339 1 q 488 -38 388 -11 q 633 -77 589 -65 q 760 -110 676 -89 q 885 -139 844 -131 q 997 -161 926 -147 q 1106 -178 1067 -175 q 1244 -185 1214 -185 q 1303 -182 1274 -185 q 1457 -146 1394 -171 l 1467 -156 z "},"ź":{"ha":917,"x_min":61,"x_max":881,"o":"m 444 1058 l 435 1068 q 635 1296 494 1171 q 729 1183 703 1261 q 444 1058 586 1093 m 82 999 q 155 982 103 990 q 228 974 207 974 q 250 974 250 974 l 693 974 q 792 981 751 974 q 839 992 832 988 l 839 979 l 325 58 l 617 58 q 772 118 706 58 q 865 279 838 178 l 879 279 l 829 0 l 63 0 l 63 13 l 572 915 l 236 915 q 134 876 172 914 q 96 774 96 838 l 96 757 l 82 757 l 82 999 z "},"Ż":{"ha":901,"x_min":61,"x_max":1468,"o":"m 519 1086 q 507 1074 519 1086 q 459 1061 494 1061 q 398 1086 424 1061 q 372 1147 372 1111 q 398 1208 372 1182 q 459 1233 424 1233 q 519 1208 494 1233 q 544 1147 544 1182 q 519 1086 544 1111 m 1467 -156 q 1347 -260 1413 -221 q 1221 -310 1281 -299 q 1124 -321 1161 -321 q 1038 -318 1086 -321 q 915 -295 990 -315 q 760 -247 840 -275 q 606 -186 679 -219 q 456 -120 532 -153 q 314 -61 379 -87 q 72 0 169 -1 l 63 0 l 63 13 l 572 915 l 236 915 q 134 876 172 914 q 96 774 96 838 l 96 757 l 82 757 l 82 999 q 155 982 103 990 q 228 974 207 974 q 250 974 250 974 l 693 974 q 792 981 751 974 q 839 992 832 988 l 839 979 l 297 11 l 339 1 q 488 -39 388 -12 q 633 -77 589 -65 q 760 -110 676 -89 q 885 -139 844 -131 q 997 -161 926 -147 q 1106 -178 1067 -175 q 1244 -185 1214 -185 q 1303 -182 1274 -185 q 1457 -146 1394 -171 l 1467 -156 z "},"ż":{"ha":917,"x_min":61,"x_max":881,"o":"m 519 1086 q 507 1074 519 1086 q 459 1061 494 1061 q 398 1086 424 1061 q 372 1147 372 1111 q 398 1208 372 1182 q 459 1233 424 1233 q 519 1208 494 1233 q 544 1147 544 1182 q 519 1086 544 1111 m 82 999 q 155 982 103 990 q 228 974 207 974 q 250 974 250 974 l 693 974 q 797 981 761 974 q 839 992 833 989 l 839 979 l 325 58 l 617 58 q 772 118 706 58 q 865 279 838 178 l 879 279 l 829 0 l 63 0 l 63 13 l 572 915 l 236 915 q 134 876 172 914 q 96 774 96 838 l 96 757 l 82 757 l 82 999 z "},"Ž":{"ha":901,"x_min":61,"x_max":1468,"o":"m 468 1061 l 453 1061 l 247 1274 l 257 1285 l 461 1194 l 650 1285 l 660 1274 l 468 1061 m 1467 -156 q 1347 -260 1413 -221 q 1221 -310 1281 -299 q 1124 -321 1161 -321 q 1038 -318 1086 -321 q 915 -295 990 -315 q 760 -247 840 -275 q 606 -186 679 -219 q 456 -120 532 -153 q 314 -61 379 -87 q 72 0 169 -1 l 63 0 l 63 13 l 572 915 l 236 915 q 134 876 172 914 q 96 774 96 838 l 96 757 l 82 757 l 82 999 q 155 982 103 990 q 228 974 207 974 q 250 974 250 974 l 693 974 q 792 981 751 974 q 839 992 832 988 l 839 979 l 297 11 l 339 1 q 488 -38 388 -11 q 633 -77 589 -65 q 760 -110 676 -89 q 885 -139 844 -131 q 997 -161 926 -147 q 1106 -178 1067 -175 q 1244 -185 1214 -185 q 1303 -182 1274 -185 q 1457 -146 1394 -171 l 1467 -156 z "},"ž":{"ha":917,"x_min":61,"x_max":881,"o":"m 468 1061 l 453 1061 l 247 1274 l 257 1285 l 461 1194 l 650 1285 l 660 1274 l 468 1061 m 82 999 q 155 982 103 990 q 228 974 207 974 q 250 974 250 974 l 693 974 q 781 979 733 974 q 839 992 828 985 l 839 979 l 324 58 l 615 58 q 772 118 706 58 q 865 279 838 178 l 879 279 l 829 0 l 63 0 l 63 13 l 572 915 l 236 915 q 134 876 172 914 q 96 774 96 838 l 96 757 l 82 757 l 82 999 z "},"ƒ":{"ha":756,"x_min":28,"x_max":699,"o":"m 699 632 l 686 632 l 686 644 q 626 761 686 728 q 557 778 597 776 l 375 778 l 375 440 l 518 440 q 596 472 567 442 q 625 550 625 503 l 625 560 l 638 561 l 638 265 l 625 267 l 625 275 q 596 353 625 322 q 519 385 567 383 l 375 385 l 375 68 q 345 -78 375 -15 q 265 -176 315 -140 q 28 -247 164 -247 l 28 -233 q 168 42 168 -164 l 168 747 q 147 800 168 779 q 96 821 125 821 l 79 821 l 79 833 l 558 833 q 638 840 594 833 q 699 854 681 847 l 699 632 z "},"Ș":{"ha":865,"x_min":35,"x_max":826,"o":"m 131 394 q 75 213 75 306 q 149 28 75 111 q 251 -46 189 -19 q 386 -72 313 -72 q 518 -44 460 -72 q 635 142 635 13 q 602 244 635 190 q 504 342 569 299 l 268 500 q 131 722 131 586 q 132 750 131 736 q 217 924 140 857 q 424 992 294 992 q 615 978 503 992 l 701 978 l 683 774 l 671 774 q 615 890 669 846 q 472 933 561 933 q 315 868 364 933 q 292 796 292 835 q 315 730 292 757 q 390 671 339 703 l 650 501 q 774 381 729 450 q 826 213 826 299 q 803 95 826 157 q 728 -19 781 33 q 594 -106 676 -72 q 413 -139 513 -139 q 233 -104 314 -139 q 44 114 85 -42 q 36 183 36 147 q 118 404 36 300 l 131 394 m 360 -464 q 407 -400 407 -447 q 385 -348 407 -375 q 363 -290 363 -321 q 381 -240 363 -260 q 417 -221 399 -221 q 500 -269 479 -221 q 514 -318 514 -299 q 510 -362 514 -337 q 487 -417 507 -386 q 437 -462 467 -447 q 390 -476 407 -476 q 363 -475 372 -476 l 360 -464 z "},"ș":{"ha":803,"x_min":68,"x_max":739,"o":"m 69 129 q 113 300 69 229 l 125 300 q 124 278 124 289 q 192 110 124 182 q 381 39 261 39 q 526 83 474 39 q 578 196 578 128 q 467 339 578 278 l 225 499 q 122 599 153 540 q 90 719 90 658 q 173 921 90 850 q 385 992 256 992 q 574 978 461 992 l 661 978 l 643 774 l 629 774 q 576 890 629 846 q 433 933 522 933 q 276 867 325 933 q 251 794 251 835 q 349 671 251 728 l 614 499 q 739 286 739 426 q 638 59 739 138 q 371 -19 538 -19 q 197 3 276 -19 q 79 65 117 26 q 69 129 69 92 m 325 -339 q 372 -276 372 -322 q 350 -223 372 -250 q 328 -165 328 -196 q 346 -116 328 -135 q 382 -97 364 -97 q 465 -144 444 -97 q 478 -203 478 -178 q 419 -326 478 -282 q 346 -351 385 -351 q 329 -350 338 -351 l 325 -339 z "},"Ț":{"ha":969,"x_min":-104,"x_max":951,"o":"m -36 649 q -104 789 -104 714 q -67 890 -104 847 q 132 974 4 974 l 786 974 q 880 982 829 974 q 951 999 931 990 l 951 757 l 938 757 l 938 774 q 900 875 938 836 q 799 915 863 914 l 611 915 l 611 100 q 657 25 614 50 q 700 14 676 14 l 718 14 l 718 0 l 296 0 l 296 14 l 314 14 q 376 39 350 14 q 403 99 401 64 l 403 915 l 132 915 q 32 894 75 915 q -56 764 -56 853 q -22 656 -56 711 l -36 649 m 436 -243 q 483 -181 483 -226 q 461 -127 483 -154 q 439 -69 439 -100 q 457 -19 439 -39 q 493 0 475 0 q 576 -49 556 0 q 589 -107 589 -82 q 531 -231 589 -186 q 457 -256 496 -256 q 440 -254 449 -256 l 436 -243 z "},"ț":{"ha":925,"x_min":18,"x_max":908,"o":"m 568 915 l 568 100 q 595 39 569 64 q 657 14 621 14 l 674 14 l 675 0 l 253 0 l 253 14 l 271 14 q 331 39 306 14 q 360 99 357 64 l 360 915 l 172 915 q 71 875 108 914 q 33 774 33 836 l 33 757 l 19 757 l 19 999 q 90 982 39 990 q 183 974 140 974 l 743 974 q 854 985 811 975 q 907 999 897 994 l 907 757 l 893 757 l 893 774 q 856 875 893 836 q 754 915 818 914 l 568 915 m 393 -332 q 440 -269 440 -315 q 417 -216 440 -243 q 394 -158 394 -189 q 413 -108 394 -128 q 449 -89 432 -89 q 533 -137 511 -89 q 544 -196 544 -171 q 486 -319 544 -275 q 414 -344 453 -344 q 396 -343 404 -344 l 393 -332 z "},"ˆ":{"ha":833,"x_min":175,"x_max":606,"o":"m 376 1179 l 392 1179 l 604 965 l 596 954 l 383 1044 l 185 954 l 176 965 l 376 1179 z "},"ˇ":{"ha":833,"x_min":183,"x_max":597,"o":"m 404 963 l 389 963 l 183 1176 l 193 1188 l 397 1097 l 588 1188 l 596 1176 l 404 963 z "},"˘":{"ha":746,"x_min":129,"x_max":482,"o":"m 482 1175 q 433 1062 482 1115 q 306 1008 385 1008 q 178 1062 226 1008 q 129 1175 129 1115 q 132 1203 129 1189 l 149 1203 q 207 1144 163 1168 q 306 1119 251 1119 q 404 1144 360 1119 q 464 1203 449 1168 l 479 1203 q 482 1175 482 1189 z "},"˙":{"ha":833,"x_min":325,"x_max":499,"o":"m 472 968 q 460 956 472 968 q 412 943 447 943 q 351 968 376 943 q 326 1028 326 993 q 351 1090 326 1064 q 412 1115 376 1115 q 472 1090 447 1115 q 497 1028 497 1064 q 472 968 497 993 z "},"˚":{"ha":833,"x_min":267,"x_max":569,"o":"m 267 1086 q 267 1111 267 1086 q 310 1169 267 1136 q 407 1203 353 1203 q 495 1188 461 1203 q 549 1147 529 1174 q 568 1079 568 1121 q 525 1003 568 1038 q 417 969 482 969 q 310 1003 353 969 q 267 1086 267 1036 m 488 1086 q 488 1104 488 1086 q 467 1145 488 1122 q 417 1168 447 1168 q 367 1145 388 1168 q 347 1092 347 1122 q 357 1044 347 1063 q 412 1006 376 1006 q 467 1028 447 1006 q 488 1086 488 1050 z "},"˛":{"ha":833,"x_min":331,"x_max":600,"o":"m 489 -260 q 465 -260 485 -260 q 410 -247 446 -260 q 353 -198 375 -233 q 331 -122 331 -162 q 361 -33 331 -67 q 497 24 414 24 q 511 22 504 24 l 525 19 q 429 -82 429 -4 q 486 -174 429 -151 q 528 -179 503 -179 q 590 -149 554 -179 l 599 -157 q 560 -231 592 -203 q 489 -260 529 -258 z "},"˜":{"ha":833,"x_min":167,"x_max":632,"o":"m 613 1099 l 628 1099 q 632 1068 632 1083 q 604 982 632 1026 q 494 925 567 925 q 392 956 446 925 q 344 980 371 968 q 301 993 317 992 q 269 994 286 994 q 224 976 251 994 q 185 929 197 957 l 169 929 q 168 950 168 939 q 201 1057 168 1003 q 303 1111 233 1111 q 409 1077 342 1111 q 529 1043 476 1043 q 575 1059 547 1043 q 613 1099 603 1075 z "},"˝":{"ha":833,"x_min":221,"x_max":739,"o":"m 235 1036 l 222 1043 q 389 1271 260 1128 q 494 1181 461 1247 q 235 1036 372 1085 m 478 1036 l 467 1043 q 633 1271 504 1135 q 738 1181 704 1247 q 478 1036 613 1082 z "},"̦":{"ha":0,"x_min":44,"x_max":199,"o":"m 46 -243 q 93 -181 93 -226 q 70 -127 93 -154 q 47 -69 47 -100 q 66 -19 47 -39 q 101 0 85 0 q 185 -49 164 0 q 197 -107 197 -82 q 139 -231 197 -186 q 67 -256 106 -256 q 49 -254 57 -256 l 46 -243 z "},"Δ":{"ha":906,"x_min":7,"x_max":899,"o":"m 899 0 l 7 0 l 7 14 l 446 992 l 460 992 l 899 14 l 899 0 m 725 58 l 413 782 l 93 58 l 725 58 z "},"Ω":{"ha":1182,"x_min":46,"x_max":1136,"o":"m 643 183 q 837 331 761 232 q 913 579 913 431 q 822 831 913 728 q 593 933 731 933 q 363 828 456 933 q 269 576 269 724 q 343 329 269 428 q 535 183 417 231 l 518 0 l 113 0 l 46 296 l 60 296 q 106 225 86 249 q 222 178 147 178 l 450 178 q 163 317 272 204 q 54 578 54 429 q 124 788 54 693 q 317 938 193 883 q 592 992 442 992 q 866 937 743 992 q 1058 785 989 882 q 1128 572 1128 689 q 1013 314 1128 429 q 728 178 899 199 l 960 178 q 1051 202 1019 178 q 1122 296 1083 226 l 1136 296 l 1069 0 l 660 0 l 643 183 z "},"μ":{"ha":1324,"x_min":-12,"x_max":1339,"o":"m 1315 14 l 1338 14 l 1338 0 l 921 0 l 921 13 l 942 13 q 982 31 965 13 q 996 72 999 50 l 942 576 l 681 126 q 628 -28 629 40 l 614 -28 l 257 572 l 203 72 q 217 31 200 50 q 257 13 233 13 l 278 13 l 278 0 l -12 0 l -12 14 l 10 14 q 77 38 49 14 q 111 101 106 61 l 226 992 l 239 992 l 669 283 l 1083 992 l 1096 992 l 1214 101 q 1249 38 1221 61 q 1315 14 1278 14 z "},"π":{"ha":1043,"x_min":50,"x_max":994,"o":"m 618 14 q 672 36 650 14 q 694 89 694 58 l 694 700 q 657 765 694 743 q 621 775 640 775 l 425 775 q 373 753 394 775 q 350 701 351 732 l 350 88 q 374 35 351 57 q 426 14 396 14 l 442 14 l 442 0 l 51 0 l 51 14 l 67 14 q 120 36 97 14 q 143 89 143 58 l 143 744 q 104 810 142 788 q 67 819 88 819 l 51 819 l 51 833 l 994 833 l 994 819 l 979 819 q 926 798 947 819 q 901 746 904 776 l 901 88 q 940 24 903 44 q 979 14 958 14 l 994 14 l 994 0 l 603 0 l 603 14 l 618 14 z "},"Ẁ":{"ha":1333,"x_min":-47,"x_max":1668,"o":"m 1499 1297 q 1603 1314 1563 1314 q 1667 1311 1643 1314 l 1667 1297 q 1375 1131 1485 1288 q 1283 943 1318 1050 l 1022 129 q 999 -12 999 53 q 999 -25 999 -19 l 985 -25 l 683 644 l 436 57 q 326 -121 399 -35 q 138 -242 249 -212 q 82 -250 111 -250 q 19 -240 53 -250 l 21 -226 q 274 -56 158 -219 q 365 111 328 21 l 83 878 q 32 938 65 918 q -36 958 -1 958 l -47 958 l -47 972 l 376 972 l 376 958 l 364 958 q 320 940 335 958 q 306 904 306 921 q 311 872 306 888 l 482 390 l 733 994 l 746 993 l 1022 383 l 1182 943 q 1292 1157 1217 1064 q 1499 1297 1379 1267 m 767 1071 l 757 1061 q 474 1186 618 1094 q 567 1299 500 1265 q 767 1071 708 1172 z "},"ẁ":{"ha":1349,"x_min":-47,"x_max":1389,"o":"m 761 1076 l 751 1067 q 468 1192 613 1099 q 561 1304 494 1269 q 761 1076 703 1178 m 1389 958 l 1376 958 q 1306 938 1342 958 q 1256 878 1271 917 l 1022 129 q 999 -12 999 53 q 999 -25 999 -19 l 985 -25 l 682 646 l 463 129 q 429 -25 431 49 l 415 -25 l 83 878 q 32 938 65 918 q -36 958 -1 958 l -47 958 l -47 972 l 376 972 l 376 958 l 364 958 q 320 940 335 958 q 306 904 306 921 q 311 871 306 888 l 482 389 l 733 994 l 746 993 l 1022 383 l 1161 872 q 1135 953 1178 933 q 1108 958 1124 958 l 1096 958 l 1096 972 l 1389 972 l 1389 958 z "},"Ẃ":{"ha":1333,"x_min":-47,"x_max":1668,"o":"m 1499 1297 q 1603 1314 1563 1314 q 1667 1311 1643 1314 l 1667 1297 q 1375 1131 1485 1288 q 1283 943 1318 1050 l 1022 129 q 999 -12 999 53 q 999 -25 999 -19 l 985 -25 l 683 644 l 436 57 q 326 -121 399 -35 q 138 -242 249 -212 q 82 -250 111 -250 q 19 -240 53 -250 l 21 -226 q 274 -56 158 -219 q 365 111 328 21 l 83 878 q 32 938 65 918 q -36 958 -1 958 l -47 958 l -47 972 l 376 972 l 376 958 l 364 958 q 320 940 335 958 q 306 904 306 921 q 311 872 306 888 l 482 390 l 733 994 l 746 993 l 1022 383 l 1182 943 q 1292 1157 1217 1064 q 1499 1297 1379 1267 m 726 1058 l 717 1068 q 917 1296 776 1171 q 1010 1183 983 1261 q 726 1058 868 1093 z "},"ẃ":{"ha":1349,"x_min":-47,"x_max":1389,"o":"m 721 1064 l 711 1074 q 911 1301 771 1176 q 1004 1189 978 1267 q 721 1064 863 1099 m 1389 958 l 1376 958 q 1306 938 1342 958 q 1256 878 1271 917 l 1022 129 q 999 -12 999 53 q 999 -25 999 -19 l 985 -25 l 682 646 l 463 129 q 429 -25 431 49 l 415 -25 l 83 878 q 32 938 65 918 q -36 958 -1 958 l -47 958 l -47 972 l 376 972 l 376 958 l 364 958 q 320 940 335 958 q 306 904 306 921 q 311 872 306 888 l 482 390 l 733 994 l 746 993 l 1022 383 l 1161 872 q 1135 953 1178 933 q 1108 958 1124 958 l 1096 958 l 1096 972 l 1389 972 l 1389 958 z "},"Ẅ":{"ha":1333,"x_min":-47,"x_max":1668,"o":"m 1499 1297 q 1603 1314 1563 1314 q 1667 1311 1643 1314 l 1667 1297 q 1375 1131 1485 1288 q 1283 943 1318 1050 l 1022 129 q 999 -12 999 53 q 999 -25 999 -19 l 985 -25 l 683 644 l 436 57 q 326 -121 399 -35 q 138 -242 249 -212 q 82 -250 111 -250 q 19 -240 53 -250 l 21 -226 q 274 -56 158 -219 q 365 111 328 21 l 83 878 q 32 938 65 918 q -36 958 -1 958 l -47 958 l -47 972 l 376 972 l 376 958 l 364 958 q 320 940 335 958 q 306 904 306 921 q 311 872 306 888 l 482 390 l 733 994 l 746 993 l 1022 383 l 1182 943 q 1292 1157 1217 1064 q 1499 1297 1379 1267 m 634 1078 q 622 1066 634 1078 q 575 1054 610 1054 q 516 1078 540 1054 q 492 1138 492 1103 q 516 1197 492 1172 q 575 1221 540 1221 q 634 1197 610 1221 q 658 1138 658 1172 q 634 1078 658 1103 m 959 1078 q 947 1066 959 1078 q 900 1054 935 1054 q 841 1078 865 1054 q 817 1138 817 1103 q 841 1197 817 1172 q 900 1221 865 1221 q 959 1197 935 1221 q 983 1138 983 1172 q 959 1078 983 1103 z "},"ẅ":{"ha":1349,"x_min":-47,"x_max":1389,"o":"m 628 1084 q 616 1072 628 1084 q 569 1060 604 1060 q 510 1084 535 1060 q 486 1143 486 1108 q 510 1202 486 1178 q 569 1226 535 1226 q 628 1202 604 1226 q 653 1143 653 1178 q 628 1084 653 1108 m 953 1084 q 941 1072 953 1084 q 894 1060 929 1060 q 835 1084 860 1060 q 811 1143 811 1108 q 835 1202 811 1178 q 894 1226 860 1226 q 953 1202 929 1226 q 978 1143 978 1178 q 953 1084 978 1108 m 1389 958 l 1376 958 q 1306 938 1342 958 q 1256 878 1271 917 l 1022 129 q 999 -12 999 53 q 999 -25 999 -19 l 985 -25 l 682 646 l 463 129 q 429 -25 431 49 l 415 -25 l 83 878 q 32 938 65 918 q -36 958 -1 958 l -47 958 l -47 972 l 376 972 l 376 958 l 364 958 q 320 940 335 958 q 306 904 306 921 q 311 872 306 888 l 482 389 l 733 994 l 746 993 l 1022 383 l 1161 872 q 1135 953 1178 933 q 1108 958 1124 958 l 1096 958 l 1096 972 l 1389 972 l 1389 958 z "},"Ỳ":{"ha":926,"x_min":-93,"x_max":985,"o":"m 515 1071 l 506 1061 q 221 1186 365 1094 q 315 1299 247 1265 q 515 1071 456 1172 m -93 1053 q -23 1054 -71 1054 q 103 1034 25 1054 q 249 971 182 1014 q 371 867 315 928 q 532 593 474 753 q 749 957 615 831 q 972 1053 850 1053 q 983 1053 978 1053 l 983 1039 q 840 966 914 1038 q 710 793 765 894 q 616 582 654 692 q 571 392 578 472 l 571 101 q 597 40 571 67 q 660 14 622 14 l 678 14 l 678 0 l 256 0 l 256 14 l 274 14 q 335 40 310 14 q 363 101 361 65 l 363 393 q 263 711 346 543 q 47 988 167 906 q -93 1039 -22 1036 l -93 1053 z "},"ỳ":{"ha":975,"x_min":-44,"x_max":1021,"o":"m 581 1071 l 571 1061 q 288 1186 432 1094 q 381 1299 314 1265 q 581 1071 522 1172 m 1019 958 l 1000 958 q 921 935 958 958 q 861 878 883 911 l 588 442 l 588 101 q 614 40 588 65 q 676 14 640 14 l 693 14 l 694 0 l 272 0 l 272 14 l 290 14 q 352 39 326 14 q 379 100 378 64 l 379 443 l 114 879 q 55 935 93 913 q -24 958 17 958 l -43 958 l -43 972 l 417 972 l 417 958 l 399 958 q 351 931 368 958 q 343 901 343 915 q 350 872 343 886 l 549 511 l 754 872 q 740 944 775 915 q 706 958 725 958 l 689 958 l 689 972 l 1019 972 l 1019 958 z "},"–":{"ha":694,"x_min":0,"x_max":694,"o":"m 0 368 l 0 440 l 694 440 l 694 368 l 0 368 z "},"—":{"ha":1111,"x_min":0,"x_max":1111,"o":"m 0 368 l 0 440 l 1111 440 l 1111 368 l 0 368 z "},"‘":{"ha":340,"x_min":53,"x_max":282,"o":"m 282 1121 q 213 1029 213 1094 q 246 951 213 990 q 279 866 279 913 q 251 791 279 819 q 185 763 224 763 q 74 833 106 763 q 53 906 53 876 q 88 1042 53 989 q 167 1118 122 1096 q 238 1140 211 1140 q 276 1138 264 1140 l 282 1121 z "},"’":{"ha":328,"x_min":58,"x_max":278,"o":"m 60 799 q 125 886 125 824 q 93 960 125 924 q 61 1042 61 997 q 88 1113 61 1086 q 151 1140 114 1140 q 257 1074 228 1140 q 276 1004 276 1032 q 243 874 276 925 q 88 781 183 781 q 64 783 75 781 l 60 799 z "},"‚":{"ha":340,"x_min":58,"x_max":289,"o":"m 60 -156 q 128 -62 128 -129 q 94 15 128 -24 q 61 101 61 54 q 90 176 61 147 q 157 204 118 204 q 267 133 236 204 q 288 61 288 90 q 253 -76 288 -22 q 174 -151 218 -129 q 103 -174 129 -174 q 64 -172 76 -174 l 60 -156 z "},"“":{"ha":619,"x_min":51,"x_max":561,"o":"m 560 1121 q 492 1029 492 1094 q 524 951 492 990 q 557 866 557 913 q 529 791 557 819 q 463 763 501 763 q 353 833 383 763 q 332 906 332 876 q 367 1042 332 989 q 445 1118 401 1096 q 516 1140 489 1140 q 556 1138 543 1140 l 560 1121 m 281 1121 q 211 1029 211 1096 q 244 951 211 990 q 278 866 278 913 q 250 791 278 819 q 183 763 222 763 q 72 833 104 763 q 51 906 51 876 q 86 1042 51 989 q 165 1118 121 1096 q 236 1140 210 1140 q 275 1138 263 1140 l 281 1121 z "},"”":{"ha":601,"x_min":58,"x_max":547,"o":"m 329 799 q 394 886 394 824 q 363 960 394 924 q 332 1042 332 997 q 358 1113 332 1086 q 422 1140 385 1140 q 528 1074 497 1140 q 547 1004 547 1032 q 514 874 547 925 q 357 781 454 781 q 335 783 346 781 l 329 799 m 60 799 q 125 886 125 824 q 93 960 125 924 q 61 1042 61 997 q 88 1113 61 1086 q 151 1140 114 1140 q 257 1074 228 1140 q 276 1004 276 1032 q 243 874 276 925 q 88 781 183 781 q 64 783 75 781 l 60 799 z "},"„":{"ha":617,"x_min":58,"x_max":567,"o":"m 333 -164 q 404 -69 404 -137 q 370 9 404 -31 q 336 97 336 49 q 365 173 336 144 q 433 201 393 201 q 546 129 514 201 q 567 56 567 85 q 531 -83 567 -29 q 451 -160 496 -137 q 378 -182 406 -182 q 339 -181 351 -182 l 333 -164 m 60 -164 q 129 -69 129 -137 q 96 9 129 -31 q 63 97 63 49 q 90 173 63 144 q 158 201 118 201 q 271 129 239 201 q 292 56 292 85 q 256 -83 292 -29 q 176 -160 221 -137 q 105 -182 132 -182 q 64 -181 78 -182 l 60 -164 z "},"†":{"ha":683,"x_min":38,"x_max":647,"o":"m 647 608 l 619 515 l 428 560 l 349 603 l 392 526 l 433 215 l 350 -250 l 336 -250 l 251 215 l 294 526 l 336 603 l 256 560 l 67 515 l 39 608 l 67 703 l 256 658 l 336 617 l 294 692 l 249 964 l 344 992 l 436 964 l 392 692 l 350 617 l 428 658 l 619 703 l 647 608 z "},"‡":{"ha":685,"x_min":38,"x_max":649,"o":"m 619 226 l 649 132 l 619 38 l 431 83 l 351 125 l 393 50 l 439 -224 l 343 -251 l 250 -224 l 294 50 l 338 125 l 258 83 l 68 38 l 39 132 l 68 226 l 258 181 l 338 139 l 294 214 l 249 371 l 294 526 l 336 603 l 256 560 l 67 515 l 39 608 l 67 703 l 256 658 l 336 617 l 294 692 l 249 964 l 344 992 l 436 964 l 392 692 l 350 617 l 428 658 l 619 703 l 647 608 l 619 515 l 428 560 l 349 603 l 392 526 l 438 371 l 393 214 l 350 139 l 431 181 l 619 226 z "},"•":{"ha":510,"x_min":81,"x_max":432,"o":"m 281 278 q 256 274 268 274 q 232 278 244 274 q 133 326 154 304 q 85 425 111 347 q 81 449 81 438 q 85 474 81 461 q 133 573 111 551 q 232 621 154 594 q 256 625 243 625 q 281 621 268 625 q 379 573 357 594 q 426 474 401 551 q 431 449 431 463 q 426 422 431 436 q 379 326 401 347 q 281 278 357 304 m 284 370 q 295 374 284 370 q 317 388 306 378 q 335 421 328 399 q 343 449 343 443 q 335 478 343 456 q 317 510 328 500 q 283 528 306 521 q 256 536 261 536 q 228 528 250 536 q 194 510 206 521 q 176 478 183 500 q 169 449 169 456 q 176 421 169 443 q 194 388 183 399 q 228 370 206 378 q 256 363 250 363 q 284 370 263 363 z "},"…":{"ha":933,"x_min":53,"x_max":882,"o":"m 226 15 q 211 1 226 15 q 154 -14 196 -14 q 83 15 113 -14 q 54 86 54 44 q 83 158 54 128 q 154 188 113 188 q 226 158 196 188 q 256 86 256 128 q 226 15 256 44 m 542 15 q 527 1 542 15 q 471 -14 513 -14 q 399 15 429 -14 q 369 86 369 44 q 399 158 369 128 q 471 188 429 188 q 542 158 513 188 q 571 86 571 128 q 542 15 571 44 m 851 15 q 837 1 851 15 q 781 -14 822 -14 q 710 15 739 -14 q 681 86 681 44 q 710 158 681 128 q 781 188 739 188 q 851 158 822 188 q 881 86 881 128 q 851 15 881 44 z "},"‰":{"ha":1538,"x_min":40,"x_max":1483,"o":"m 476 900 q 497 815 497 857 q 406 567 497 649 q 228 501 333 501 q 75 568 124 501 q 42 692 42 617 q 135 928 42 844 q 314 992 206 992 q 408 975 367 992 q 483 940 450 958 q 554 919 524 919 q 612 926 585 919 q 658 941 639 932 q 706 965 676 950 q 742 985 735 981 l 788 965 l 269 -22 l 218 0 l 704 919 q 582 879 636 879 q 476 900 528 879 m 183 658 q 240 546 183 546 q 313 599 282 546 q 353 722 343 653 q 364 829 364 792 q 306 947 364 947 q 237 894 267 947 q 195 768 207 840 q 183 658 183 696 m 611 408 q 784 471 682 471 q 935 406 886 471 q 972 274 972 354 q 883 46 972 126 q 705 -19 811 -19 q 551 49 599 -19 q 517 171 517 96 q 611 408 517 324 m 1121 408 q 1294 471 1192 471 q 1444 406 1396 471 q 1482 274 1482 354 q 1393 46 1482 126 q 1215 -19 1321 -19 q 1061 49 1108 -19 q 1026 171 1026 96 q 1121 408 1026 324 m 1164 138 q 1219 25 1164 25 q 1292 78 1261 25 q 1333 200 1324 131 q 1343 307 1343 269 q 1286 426 1343 426 q 1183 283 1218 426 q 1164 138 1164 206 m 654 138 q 710 25 654 25 q 783 78 751 25 q 824 200 814 131 q 833 307 833 269 q 776 426 833 426 q 707 373 738 426 q 665 247 676 319 q 654 138 654 175 z "},"‹":{"ha":432,"x_min":56,"x_max":363,"o":"m 222 406 l 361 132 l 349 122 q 56 406 224 285 q 217 531 147 469 q 349 681 286 592 l 360 674 l 222 406 z "},"›":{"ha":432,"x_min":72,"x_max":379,"o":"m 213 406 l 74 674 l 85 681 q 217 531 147 592 q 378 406 286 469 q 85 124 210 285 l 72 132 l 213 406 z "},"⁄":{"ha":801,"x_min":28,"x_max":746,"o":"m 692 999 l 744 964 l 81 -25 l 28 11 l 692 999 z "},"€":{"ha":983,"x_min":-39,"x_max":943,"o":"m 943 68 q 812 3 901 25 q 612 -18 722 -18 q 394 33 501 -18 q 216 172 286 83 q 122 376 146 261 l -39 376 l -18 436 l 114 436 q 113 533 108 485 l -39 533 l -18 592 l 121 592 q 295 881 156 769 q 632 992 435 992 q 892 947 797 992 q 942 910 925 931 l 881 726 l 867 726 q 868 763 868 740 q 858 817 868 785 q 825 871 847 849 q 771 908 803 893 q 646 933 717 933 q 442 842 522 933 q 340 592 361 750 l 835 592 l 814 533 l 333 533 l 333 488 q 335 436 333 461 l 781 436 l 761 376 l 340 376 q 445 130 363 219 q 649 40 528 40 q 836 95 771 40 q 931 264 901 150 l 943 264 l 943 68 z "},"™":{"ha":675,"x_min":14,"x_max":663,"o":"m 268 904 q 225 951 268 951 l 179 951 l 179 725 q 188 705 179 710 q 203 700 197 700 l 208 700 l 208 696 l 78 696 l 78 700 l 82 700 q 99 707 92 700 q 107 725 107 714 l 107 951 l 60 951 q 29 940 40 951 q 18 908 18 928 l 18 904 l 14 904 l 14 981 q 61 974 32 974 l 225 974 q 271 981 254 974 l 271 904 l 268 904 m 663 696 l 532 696 l 532 700 l 539 700 q 549 705 544 700 q 554 717 554 710 l 535 843 l 467 732 q 451 688 451 707 l 447 688 l 347 839 l 335 715 q 340 703 335 707 q 350 700 346 700 l 356 700 l 356 696 l 268 696 l 268 700 l 274 700 q 303 722 297 700 l 336 978 l 340 978 l 468 789 l 585 978 l 588 978 l 628 724 q 656 700 633 700 l 663 700 l 663 696 z "},"∂":{"ha":854,"x_min":57,"x_max":794,"o":"m 388 996 q 707 825 596 996 q 793 506 793 693 q 679 117 793 257 q 364 -21 568 -21 q 236 0 297 -21 q 76 161 121 40 q 57 268 57 213 q 83 403 57 331 q 179 534 108 475 q 353 607 250 593 q 388 610 369 610 q 574 551 475 610 q 530 758 568 674 q 424 874 492 843 q 314 903 365 903 q 106 810 183 903 l 93 819 q 235 963 144 919 q 388 996 304 996 m 375 494 q 282 321 308 438 q 274 236 274 271 q 317 75 274 128 q 386 39 346 39 q 514 160 463 39 q 575 463 565 281 l 575 503 q 463 525 513 525 q 375 494 413 525 z "},"∏":{"ha":1135,"x_min":58,"x_max":1078,"o":"m 701 -264 q 756 -242 733 -264 q 778 -189 778 -221 l 778 839 q 756 892 778 869 q 704 914 735 914 l 433 914 q 381 892 403 914 q 358 840 360 871 l 358 -190 q 382 -242 360 -221 q 435 -264 404 -264 l 450 -264 l 450 -278 l 60 -278 l 60 -264 l 75 -264 q 129 -242 107 -264 q 151 -189 151 -221 l 151 883 q 113 949 151 926 q 75 958 96 958 l 60 958 l 60 972 l 1078 972 l 1078 958 l 1063 958 q 1009 937 1031 958 q 985 885 988 915 l 985 -190 q 1008 -242 986 -221 q 1063 -264 1031 -264 l 1078 -264 l 1078 -278 l 686 -278 l 686 -264 l 701 -264 z "},"∑":{"ha":883,"x_min":42,"x_max":850,"o":"m 43 -251 l 43 -236 l 421 333 l 50 958 l 50 972 l 626 972 q 735 982 688 972 q 796 997 782 992 l 796 756 l 782 756 l 782 772 q 744 874 782 836 q 642 914 707 913 l 307 914 l 581 443 l 240 -68 l 600 -68 q 747 -3 685 -62 q 835 153 808 56 l 849 153 l 799 -251 l 43 -251 z "},"−":{"ha":668,"x_min":56,"x_max":614,"o":"m 56 390 l 56 469 l 614 469 l 614 390 l 56 390 z "},"√":{"ha":822,"x_min":18,"x_max":807,"o":"m 33 538 l 19 597 l 293 658 l 425 200 l 744 1171 l 807 1168 l 363 -204 l 129 557 l 33 538 z "},"∞":{"ha":857,"x_min":46,"x_max":833,"o":"m 439 350 q 345 257 403 294 q 218 219 288 219 q 98 274 149 219 q 47 411 47 329 q 99 549 47 493 q 217 606 151 606 q 440 478 339 606 q 540 569 483 532 q 663 606 597 606 q 781 549 729 606 q 832 410 832 493 q 809 314 832 357 q 745 245 786 271 q 647 219 704 219 q 533 257 590 219 q 439 350 476 294 m 126 413 q 126 389 126 413 q 156 331 126 365 q 228 297 186 297 q 315 331 271 297 q 392 413 358 364 q 225 528 304 528 q 156 494 186 528 q 126 413 126 460 m 654 297 q 724 331 694 297 q 753 404 753 365 q 739 469 753 443 q 654 528 710 528 q 488 413 576 528 q 654 297 565 297 z "},"∫":{"ha":781,"x_min":11,"x_max":765,"o":"m 301 799 q 381 1017 308 933 q 578 1101 453 1101 q 733 1060 683 1101 q 765 1001 765 1033 q 742 947 765 969 q 689 925 717 925 q 608 988 633 925 q 591 1019 600 1008 q 564 1031 582 1031 q 519 921 525 1029 q 506 678 513 813 q 493 447 499 544 q 482 258 488 349 q 469 36 472 71 q 396 -181 460 -106 q 193 -267 322 -267 q 40 -224 88 -267 q 11 -167 11 -197 q 31 -114 11 -137 q 86 -89 57 -89 q 164 -153 139 -89 q 183 -185 174 -174 q 207 -195 192 -196 q 231 -186 222 -194 q 253 -87 249 -165 l 301 799 z "},"≈":{"ha":668,"x_min":38,"x_max":632,"o":"m 196 613 q 224 613 196 613 q 338 572 251 613 q 438 529 424 531 q 463 528 451 528 q 500 538 475 528 q 538 558 525 549 q 578 590 550 567 l 631 540 q 617 526 629 538 q 592 501 604 514 q 465 446 528 446 q 370 469 421 446 q 281 510 319 492 q 202 533 231 533 q 155 522 174 533 q 117 492 136 511 q 93 469 97 472 l 39 518 q 89 571 58 546 q 196 613 140 613 m 196 376 q 224 376 196 376 q 338 335 251 376 q 438 293 424 294 q 463 292 451 292 q 500 302 475 292 q 538 322 525 313 q 578 354 550 331 l 631 304 q 617 289 629 301 q 592 265 604 276 q 465 210 528 210 q 425 215 453 210 q 322 256 397 219 q 225 294 246 292 q 189 297 204 297 q 103 242 158 297 q 93 233 97 236 l 39 282 q 89 335 58 310 q 196 376 140 376 z "},"≠":{"ha":668,"x_min":56,"x_max":614,"o":"m 614 497 l 435 497 l 356 333 l 614 333 l 614 254 l 318 254 l 236 85 l 163 118 l 228 254 l 56 254 l 56 333 l 267 333 l 346 497 l 56 497 l 56 576 l 383 576 l 457 729 l 531 696 l 472 576 l 614 576 l 614 497 z "},"≤":{"ha":685,"x_min":56,"x_max":614,"o":"m 614 304 l 614 218 l 56 479 l 56 554 l 614 815 l 614 729 l 167 517 l 614 304 m 56 131 l 614 131 l 614 51 l 56 51 l 56 131 z "},"≥":{"ha":768,"x_min":56,"x_max":614,"o":"m 56 815 l 614 554 l 614 479 l 56 218 l 56 304 l 503 517 l 56 729 l 56 815 m 56 51 l 56 131 l 614 131 l 614 51 l 56 51 z "},"◊":{"ha":718,"x_min":60,"x_max":660,"o":"m 660 486 l 351 -19 l 61 486 l 351 992 l 660 486 m 140 486 l 353 110 l 581 486 l 353 863 l 140 486 z "},"ﬁ":{"ha":1363,"x_min":57,"x_max":1307,"o":"m 374 913 l 374 508 l 557 508 q 642 543 608 510 q 675 628 675 576 l 675 640 l 689 640 l 689 319 l 675 319 l 675 331 q 642 415 675 382 q 558 450 610 449 l 374 450 l 374 101 q 418 25 374 50 q 463 14 439 14 l 479 14 l 481 0 l 58 0 l 58 14 l 76 14 q 138 40 113 14 q 165 101 164 65 l 165 875 q 137 934 163 910 q 76 958 111 958 l 58 958 l 58 972 l 590 972 q 703 983 658 972 q 757 997 747 993 l 757 763 l 743 763 l 743 776 q 708 874 743 838 q 611 913 672 911 l 374 913 m 903 14 q 965 40 939 14 q 992 101 990 65 l 992 872 q 965 933 990 908 q 903 958 939 958 l 885 958 l 885 972 l 1307 972 l 1306 958 l 1289 958 q 1226 933 1253 958 q 1200 872 1200 908 l 1200 101 q 1226 40 1200 65 q 1289 14 1253 14 l 1306 14 l 1307 0 l 885 0 l 885 14 l 903 14 z "},"ﬂ":{"ha":1682,"x_min":57,"x_max":1668,"o":"m 374 913 l 374 508 l 557 508 q 642 543 608 510 q 675 628 675 576 l 675 640 l 689 640 l 689 319 l 675 319 l 675 331 q 642 415 675 382 q 558 450 610 449 l 374 450 l 374 101 q 418 25 374 50 q 463 14 439 14 l 479 14 l 481 0 l 58 0 l 58 14 l 76 14 q 138 40 113 14 q 165 101 164 65 l 165 875 q 137 934 163 910 q 76 958 111 958 l 58 958 l 58 972 l 590 972 q 703 983 658 972 q 757 997 747 993 l 757 763 l 743 763 l 743 776 q 708 874 743 838 q 611 913 672 911 l 374 913 m 903 14 q 965 40 939 14 q 992 101 990 65 l 992 871 q 965 933 990 907 q 903 958 939 958 l 885 958 l 885 972 l 1307 972 l 1306 958 l 1289 958 q 1213 915 1238 958 q 1200 871 1200 894 l 1200 60 l 1382 60 q 1552 118 1483 60 q 1654 283 1621 176 l 1668 283 l 1604 0 l 885 0 l 885 14 l 903 14 z "}}}
